<mxfile host="app.diagrams.net" agent="Mozilla/5.0 (Macintosh; Intel Mac OS X 10_15_7) AppleWebKit/537.36 (KHTML, like Gecko) Chrome/129.0.0.0 Safari/537.36" version="24.7.17">
  <diagram name="Страница — 1" id="gh7PZ2lUKRi0kGx3TqZ_">
    <mxGraphModel dx="8376" dy="9111" grid="1" gridSize="10" guides="1" tooltips="1" connect="1" arrows="1" fold="1" page="1" pageScale="1" pageWidth="827" pageHeight="1169" math="0" shadow="0">
      <root>
        <mxCell id="0" />
        <mxCell id="1" parent="0" />
        <mxCell id="B4N4aQDUJcZZaR4VZE6Q-896" value="" style="rounded=1;whiteSpace=wrap;html=1;arcSize=0;movable=0;resizable=0;rotatable=0;deletable=0;editable=0;locked=1;connectable=0;" vertex="1" parent="1">
          <mxGeometry x="-441.5" y="2530" width="1128" height="850" as="geometry" />
        </mxCell>
        <mxCell id="B4N4aQDUJcZZaR4VZE6Q-819" value="" style="rounded=0;whiteSpace=wrap;html=1;fillColor=#e1d5e7;strokeColor=#9673a6;movable=0;resizable=0;rotatable=0;deletable=0;editable=0;locked=1;connectable=0;" vertex="1" parent="1">
          <mxGeometry x="-1600" y="-2550" width="4720" height="710" as="geometry" />
        </mxCell>
        <mxCell id="B4N4aQDUJcZZaR4VZE6Q-816" value="" style="rounded=0;whiteSpace=wrap;html=1;fillColor=#dae8fc;strokeColor=#6c8ebf;movable=0;resizable=0;rotatable=0;deletable=0;editable=0;locked=1;connectable=0;" vertex="1" parent="1">
          <mxGeometry x="-1600" y="-1790" width="4700" height="4163" as="geometry" />
        </mxCell>
        <mxCell id="B4N4aQDUJcZZaR4VZE6Q-665" value="" style="rounded=1;whiteSpace=wrap;html=1;arcSize=3;fillColor=#f5f5f5;strokeColor=#FF6666;strokeWidth=3;align=center;verticalAlign=middle;fontFamily=Helvetica;fontSize=12;fontColor=#333333;resizable=1;" vertex="1" parent="1">
          <mxGeometry x="1530" y="-878" width="460" height="471" as="geometry" />
        </mxCell>
        <mxCell id="B4N4aQDUJcZZaR4VZE6Q-537" value="" style="rounded=1;whiteSpace=wrap;html=1;arcSize=3;fillColor=#f5f5f5;strokeColor=#FF6666;strokeWidth=3;align=center;verticalAlign=middle;fontFamily=Helvetica;fontSize=12;fontColor=#333333;resizable=1;" vertex="1" parent="1">
          <mxGeometry x="-200" y="890" width="660" height="380" as="geometry" />
        </mxCell>
        <mxCell id="B4N4aQDUJcZZaR4VZE6Q-687" style="edgeStyle=orthogonalEdgeStyle;rounded=0;orthogonalLoop=1;jettySize=auto;html=1;exitX=1;exitY=0.25;exitDx=0;exitDy=0;entryX=0.022;entryY=0.541;entryDx=0;entryDy=0;entryPerimeter=0;strokeColor=#FF6666;" edge="1" parent="1" source="B4N4aQDUJcZZaR4VZE6Q-535" target="B4N4aQDUJcZZaR4VZE6Q-658">
          <mxGeometry relative="1" as="geometry">
            <mxPoint x="1050" y="580" as="targetPoint" />
          </mxGeometry>
        </mxCell>
        <mxCell id="B4N4aQDUJcZZaR4VZE6Q-535" value="" style="rounded=1;whiteSpace=wrap;html=1;arcSize=3;fillColor=#f5f5f5;strokeColor=#FF6666;strokeWidth=3;align=center;verticalAlign=middle;fontFamily=Helvetica;fontSize=12;fontColor=#333333;resizable=1;" vertex="1" parent="1">
          <mxGeometry x="-215" y="501" width="665" height="319" as="geometry" />
        </mxCell>
        <mxCell id="B4N4aQDUJcZZaR4VZE6Q-533" value="" style="rounded=1;whiteSpace=wrap;html=1;arcSize=3;fillColor=#f5f5f5;strokeColor=#FF6666;strokeWidth=3;align=center;verticalAlign=middle;fontFamily=Helvetica;fontSize=12;fontColor=#333333;resizable=1;" vertex="1" parent="1">
          <mxGeometry x="1528" y="-270" width="661" height="490" as="geometry" />
        </mxCell>
        <mxCell id="B4N4aQDUJcZZaR4VZE6Q-531" value="" style="rounded=1;whiteSpace=wrap;html=1;arcSize=3;fillColor=#f5f5f5;strokeColor=#FF6666;strokeWidth=3;align=center;verticalAlign=middle;fontFamily=Helvetica;fontSize=12;fontColor=#333333;resizable=1;" vertex="1" parent="1">
          <mxGeometry x="-220" y="-3.5" width="660" height="376.5" as="geometry" />
        </mxCell>
        <mxCell id="B4N4aQDUJcZZaR4VZE6Q-529" value="" style="rounded=1;whiteSpace=wrap;html=1;arcSize=3;fillColor=#f5f5f5;strokeColor=#FF6666;strokeWidth=3;align=center;verticalAlign=middle;fontFamily=Helvetica;fontSize=12;fontColor=#333333;resizable=1;" vertex="1" parent="1">
          <mxGeometry x="-220" y="-1220" width="710" height="360" as="geometry" />
        </mxCell>
        <mxCell id="B4N4aQDUJcZZaR4VZE6Q-525" value="" style="rounded=1;whiteSpace=wrap;html=1;arcSize=3;fillColor=#f5f5f5;strokeColor=#FF6666;strokeWidth=3;align=center;verticalAlign=middle;fontFamily=Helvetica;fontSize=12;fontColor=#333333;resizable=1;" vertex="1" parent="1">
          <mxGeometry x="-215" y="-1600" width="675" height="340" as="geometry" />
        </mxCell>
        <mxCell id="B4N4aQDUJcZZaR4VZE6Q-482" value="" style="rounded=1;whiteSpace=wrap;html=1;arcSize=3;fillColor=#f5f5f5;strokeColor=#FF6666;strokeWidth=3;align=center;verticalAlign=middle;fontFamily=Helvetica;fontSize=12;fontColor=#333333;resizable=1;" vertex="1" parent="1">
          <mxGeometry x="-230" y="-820" width="840" height="320" as="geometry" />
        </mxCell>
        <mxCell id="B4N4aQDUJcZZaR4VZE6Q-566" style="edgeStyle=orthogonalEdgeStyle;rounded=0;orthogonalLoop=1;jettySize=auto;html=1;entryX=-0.004;entryY=0.181;entryDx=0;entryDy=0;entryPerimeter=0;strokeColor=#FF6666;" edge="1" parent="1" target="B4N4aQDUJcZZaR4VZE6Q-482">
          <mxGeometry relative="1" as="geometry">
            <mxPoint x="-280" y="-740" as="targetPoint" />
            <mxPoint x="-870" y="-762" as="sourcePoint" />
            <Array as="points">
              <mxPoint x="-629" y="-759" />
              <mxPoint x="-480" y="-759" />
              <mxPoint x="-480" y="-760" />
              <mxPoint x="-290" y="-760" />
              <mxPoint x="-290" y="-762" />
            </Array>
          </mxGeometry>
        </mxCell>
        <mxCell id="B4N4aQDUJcZZaR4VZE6Q-571" style="edgeStyle=orthogonalEdgeStyle;rounded=0;orthogonalLoop=1;jettySize=auto;html=1;entryX=0;entryY=0.5;entryDx=0;entryDy=0;strokeColor=#FF6666;" edge="1" parent="1" target="B4N4aQDUJcZZaR4VZE6Q-482">
          <mxGeometry relative="1" as="geometry">
            <mxPoint x="-880" y="-660" as="sourcePoint" />
            <mxPoint x="-280" y="-660" as="targetPoint" />
          </mxGeometry>
        </mxCell>
        <mxCell id="B4N4aQDUJcZZaR4VZE6Q-574" style="edgeStyle=orthogonalEdgeStyle;rounded=0;orthogonalLoop=1;jettySize=auto;html=1;entryX=0;entryY=0.75;entryDx=0;entryDy=0;strokeColor=#FF6666;" edge="1" parent="1" source="B4N4aQDUJcZZaR4VZE6Q-1" target="B4N4aQDUJcZZaR4VZE6Q-482">
          <mxGeometry relative="1" as="geometry">
            <Array as="points">
              <mxPoint x="-540" y="-580" />
              <mxPoint x="-540" y="-580" />
            </Array>
          </mxGeometry>
        </mxCell>
        <mxCell id="B4N4aQDUJcZZaR4VZE6Q-588" style="edgeStyle=orthogonalEdgeStyle;rounded=0;orthogonalLoop=1;jettySize=auto;html=1;entryX=0;entryY=0.5;entryDx=0;entryDy=0;strokeColor=#FF6666;" edge="1" parent="1" source="B4N4aQDUJcZZaR4VZE6Q-1" target="B4N4aQDUJcZZaR4VZE6Q-35">
          <mxGeometry relative="1" as="geometry">
            <Array as="points">
              <mxPoint x="-550" y="-219" />
              <mxPoint x="-550" y="-219" />
            </Array>
          </mxGeometry>
        </mxCell>
        <mxCell id="B4N4aQDUJcZZaR4VZE6Q-591" style="edgeStyle=orthogonalEdgeStyle;rounded=0;orthogonalLoop=1;jettySize=auto;html=1;strokeColor=#FF6666;" edge="1" parent="1" source="B4N4aQDUJcZZaR4VZE6Q-1" target="B4N4aQDUJcZZaR4VZE6Q-531">
          <mxGeometry relative="1" as="geometry">
            <Array as="points">
              <mxPoint x="-530" y="310" />
              <mxPoint x="-530" y="310" />
            </Array>
          </mxGeometry>
        </mxCell>
        <mxCell id="B4N4aQDUJcZZaR4VZE6Q-726" style="edgeStyle=orthogonalEdgeStyle;rounded=0;orthogonalLoop=1;jettySize=auto;html=1;entryX=-0.007;entryY=0.44;entryDx=0;entryDy=0;exitX=0.999;exitY=0.046;exitDx=0;exitDy=0;exitPerimeter=0;entryPerimeter=0;strokeColor=#FF6666;" edge="1" parent="1" source="B4N4aQDUJcZZaR4VZE6Q-1" target="B4N4aQDUJcZZaR4VZE6Q-525">
          <mxGeometry relative="1" as="geometry">
            <mxPoint x="-830" y="-914.4444444444445" as="sourcePoint" />
          </mxGeometry>
        </mxCell>
        <mxCell id="B4N4aQDUJcZZaR4VZE6Q-736" style="edgeStyle=orthogonalEdgeStyle;rounded=0;orthogonalLoop=1;jettySize=auto;html=1;entryX=0;entryY=0.5;entryDx=0;entryDy=0;strokeColor=#FF6666;" edge="1" parent="1" source="B4N4aQDUJcZZaR4VZE6Q-816" target="B4N4aQDUJcZZaR4VZE6Q-537">
          <mxGeometry relative="1" as="geometry" />
        </mxCell>
        <mxCell id="B4N4aQDUJcZZaR4VZE6Q-1" value="" style="rounded=1;whiteSpace=wrap;html=1;arcSize=0;fillColor=#f5f5f5;strokeColor=#1C57CD;strokeWidth=3;align=center;verticalAlign=middle;fontFamily=Helvetica;fontSize=12;fontColor=#333333;resizable=1;" vertex="1" parent="1">
          <mxGeometry x="-1530" y="-1613" width="650" height="3670" as="geometry" />
        </mxCell>
        <mxCell id="B4N4aQDUJcZZaR4VZE6Q-2" value="Портал электронной площадки" style="text;html=1;align=center;verticalAlign=middle;whiteSpace=wrap;rounded=1;shadow=0;fontSize=23;fontStyle=1" vertex="1" parent="1">
          <mxGeometry x="-1395" y="-503" width="380" height="49" as="geometry" />
        </mxCell>
        <mxCell id="B4N4aQDUJcZZaR4VZE6Q-3" value="" style="group" vertex="1" connectable="0" parent="1">
          <mxGeometry x="-1269.5" y="-187.5" width="309" height="39" as="geometry" />
        </mxCell>
        <mxCell id="B4N4aQDUJcZZaR4VZE6Q-4" value="" style="group" vertex="1" connectable="0" parent="B4N4aQDUJcZZaR4VZE6Q-3">
          <mxGeometry width="309" height="39" as="geometry" />
        </mxCell>
        <mxCell id="B4N4aQDUJcZZaR4VZE6Q-5" value="" style="rounded=1;whiteSpace=wrap;html=1;fillColor=#1C57CD;strokeColor=none;" vertex="1" parent="B4N4aQDUJcZZaR4VZE6Q-4">
          <mxGeometry x="-250" y="-243.5" width="309" height="39" as="geometry" />
        </mxCell>
        <mxCell id="B4N4aQDUJcZZaR4VZE6Q-6" value="" style="sketch=0;outlineConnect=0;fontColor=#FFFFFF;gradientColor=none;fillColor=#FFFFFF;strokeColor=none;dashed=0;verticalLabelPosition=bottom;verticalAlign=top;align=center;html=1;fontSize=12;fontStyle=0;aspect=fixed;pointerEvents=1;shape=mxgraph.aws4.gear;rounded=1;" vertex="1" parent="B4N4aQDUJcZZaR4VZE6Q-4">
          <mxGeometry x="30" y="-232.5" width="17" height="17" as="geometry" />
        </mxCell>
        <mxCell id="B4N4aQDUJcZZaR4VZE6Q-7" value="Зарегистрироваться на площадке" style="text;html=1;align=center;verticalAlign=middle;whiteSpace=wrap;rounded=1;fontSize=13;fontColor=#FFFFFF;" vertex="1" parent="B4N4aQDUJcZZaR4VZE6Q-4">
          <mxGeometry x="-241" y="-239" width="218" height="30" as="geometry" />
        </mxCell>
        <mxCell id="B4N4aQDUJcZZaR4VZE6Q-8" value="" style="group" vertex="1" connectable="0" parent="1">
          <mxGeometry x="-1519.5" y="-378.5" width="309" height="39" as="geometry" />
        </mxCell>
        <mxCell id="B4N4aQDUJcZZaR4VZE6Q-9" value="" style="group" vertex="1" connectable="0" parent="B4N4aQDUJcZZaR4VZE6Q-8">
          <mxGeometry width="309" height="39" as="geometry" />
        </mxCell>
        <mxCell id="B4N4aQDUJcZZaR4VZE6Q-10" value="" style="rounded=1;whiteSpace=wrap;html=1;fillColor=#1C57CD;strokeColor=none;" vertex="1" parent="B4N4aQDUJcZZaR4VZE6Q-9">
          <mxGeometry width="309" height="39" as="geometry" />
        </mxCell>
        <mxCell id="B4N4aQDUJcZZaR4VZE6Q-11" value="" style="sketch=0;outlineConnect=0;fontColor=#FFFFFF;gradientColor=none;fillColor=#FFFFFF;strokeColor=none;dashed=0;verticalLabelPosition=bottom;verticalAlign=top;align=center;html=1;fontSize=12;fontStyle=0;aspect=fixed;pointerEvents=1;shape=mxgraph.aws4.gear;rounded=1;" vertex="1" parent="B4N4aQDUJcZZaR4VZE6Q-9">
          <mxGeometry x="280" y="11" width="17" height="17" as="geometry" />
        </mxCell>
        <mxCell id="B4N4aQDUJcZZaR4VZE6Q-12" value="Редактировать профиль" style="text;html=1;align=center;verticalAlign=middle;whiteSpace=wrap;rounded=1;fontSize=13;fontColor=#FFFFFF;" vertex="1" parent="B4N4aQDUJcZZaR4VZE6Q-9">
          <mxGeometry x="8" y="4.5" width="164" height="30" as="geometry" />
        </mxCell>
        <mxCell id="B4N4aQDUJcZZaR4VZE6Q-13" value="" style="group" vertex="1" connectable="0" parent="1">
          <mxGeometry x="-1519.5" y="-331" width="309" height="39" as="geometry" />
        </mxCell>
        <mxCell id="B4N4aQDUJcZZaR4VZE6Q-14" value="" style="group" vertex="1" connectable="0" parent="B4N4aQDUJcZZaR4VZE6Q-13">
          <mxGeometry width="309" height="39" as="geometry" />
        </mxCell>
        <mxCell id="B4N4aQDUJcZZaR4VZE6Q-15" value="" style="rounded=1;whiteSpace=wrap;html=1;fillColor=#1C57CD;strokeColor=none;" vertex="1" parent="B4N4aQDUJcZZaR4VZE6Q-14">
          <mxGeometry width="309" height="39" as="geometry" />
        </mxCell>
        <mxCell id="B4N4aQDUJcZZaR4VZE6Q-16" value="" style="sketch=0;outlineConnect=0;fontColor=#FFFFFF;gradientColor=none;fillColor=#FFFFFF;strokeColor=none;dashed=0;verticalLabelPosition=bottom;verticalAlign=top;align=center;html=1;fontSize=12;fontStyle=0;aspect=fixed;pointerEvents=1;shape=mxgraph.aws4.gear;rounded=1;" vertex="1" parent="B4N4aQDUJcZZaR4VZE6Q-14">
          <mxGeometry x="280" y="11" width="17" height="17" as="geometry" />
        </mxCell>
        <mxCell id="B4N4aQDUJcZZaR4VZE6Q-17" value="Разместить заказ" style="text;html=1;align=center;verticalAlign=middle;whiteSpace=wrap;rounded=1;fontSize=13;fontColor=#FFFFFF;" vertex="1" parent="B4N4aQDUJcZZaR4VZE6Q-14">
          <mxGeometry x="14" y="3" width="117" height="30" as="geometry" />
        </mxCell>
        <mxCell id="B4N4aQDUJcZZaR4VZE6Q-18" value="" style="group" vertex="1" connectable="0" parent="1">
          <mxGeometry x="-1199.5" y="-431" width="309" height="39" as="geometry" />
        </mxCell>
        <mxCell id="B4N4aQDUJcZZaR4VZE6Q-19" value="" style="group" vertex="1" connectable="0" parent="B4N4aQDUJcZZaR4VZE6Q-18">
          <mxGeometry width="309" height="39" as="geometry" />
        </mxCell>
        <mxCell id="B4N4aQDUJcZZaR4VZE6Q-20" value="" style="rounded=1;whiteSpace=wrap;html=1;fillColor=#1C57CD;strokeColor=none;" vertex="1" parent="B4N4aQDUJcZZaR4VZE6Q-19">
          <mxGeometry width="309" height="39" as="geometry" />
        </mxCell>
        <mxCell id="B4N4aQDUJcZZaR4VZE6Q-21" value="" style="sketch=0;outlineConnect=0;fontColor=#FFFFFF;gradientColor=none;fillColor=#FFFFFF;strokeColor=none;dashed=0;verticalLabelPosition=bottom;verticalAlign=top;align=center;html=1;fontSize=12;fontStyle=0;aspect=fixed;pointerEvents=1;shape=mxgraph.aws4.gear;rounded=1;" vertex="1" parent="B4N4aQDUJcZZaR4VZE6Q-19">
          <mxGeometry x="280" y="11" width="17" height="17" as="geometry" />
        </mxCell>
        <mxCell id="B4N4aQDUJcZZaR4VZE6Q-22" value="Разместить услугу" style="text;html=1;align=center;verticalAlign=middle;whiteSpace=wrap;rounded=1;fontSize=13;fontColor=#FFFFFF;" vertex="1" parent="B4N4aQDUJcZZaR4VZE6Q-19">
          <mxGeometry x="6" y="4.5" width="132" height="30" as="geometry" />
        </mxCell>
        <mxCell id="B4N4aQDUJcZZaR4VZE6Q-23" value="" style="group" vertex="1" connectable="0" parent="1">
          <mxGeometry x="-949.5" y="-137.5" width="309" height="39" as="geometry" />
        </mxCell>
        <mxCell id="B4N4aQDUJcZZaR4VZE6Q-24" value="" style="group" vertex="1" connectable="0" parent="B4N4aQDUJcZZaR4VZE6Q-23">
          <mxGeometry width="309" height="39" as="geometry" />
        </mxCell>
        <mxCell id="B4N4aQDUJcZZaR4VZE6Q-25" value="" style="rounded=1;whiteSpace=wrap;html=1;fillColor=#1C57CD;strokeColor=none;" vertex="1" parent="B4N4aQDUJcZZaR4VZE6Q-24">
          <mxGeometry x="-250" y="-243.5" width="309" height="39" as="geometry" />
        </mxCell>
        <mxCell id="B4N4aQDUJcZZaR4VZE6Q-26" value="" style="sketch=0;outlineConnect=0;fontColor=#FFFFFF;gradientColor=none;fillColor=#FFFFFF;strokeColor=none;dashed=0;verticalLabelPosition=bottom;verticalAlign=top;align=center;html=1;fontSize=12;fontStyle=0;aspect=fixed;pointerEvents=1;shape=mxgraph.aws4.gear;rounded=1;" vertex="1" parent="B4N4aQDUJcZZaR4VZE6Q-24">
          <mxGeometry x="30" y="-232.5" width="17" height="17" as="geometry" />
        </mxCell>
        <mxCell id="B4N4aQDUJcZZaR4VZE6Q-27" value="Создать аукцион" style="text;html=1;align=center;verticalAlign=middle;whiteSpace=wrap;rounded=1;fontSize=13;fontColor=#FFFFFF;" vertex="1" parent="B4N4aQDUJcZZaR4VZE6Q-24">
          <mxGeometry x="-240" y="-239" width="110" height="30" as="geometry" />
        </mxCell>
        <mxCell id="B4N4aQDUJcZZaR4VZE6Q-28" value="" style="group" vertex="1" connectable="0" parent="1">
          <mxGeometry x="-1199.5" y="-331" width="309" height="39" as="geometry" />
        </mxCell>
        <mxCell id="B4N4aQDUJcZZaR4VZE6Q-29" value="" style="group" vertex="1" connectable="0" parent="B4N4aQDUJcZZaR4VZE6Q-28">
          <mxGeometry width="309" height="39" as="geometry" />
        </mxCell>
        <mxCell id="B4N4aQDUJcZZaR4VZE6Q-30" value="" style="rounded=1;whiteSpace=wrap;html=1;fillColor=#1C57CD;strokeColor=none;" vertex="1" parent="B4N4aQDUJcZZaR4VZE6Q-29">
          <mxGeometry width="309" height="39" as="geometry" />
        </mxCell>
        <mxCell id="B4N4aQDUJcZZaR4VZE6Q-31" value="" style="sketch=0;outlineConnect=0;fontColor=#FFFFFF;gradientColor=none;fillColor=#FFFFFF;strokeColor=none;dashed=0;verticalLabelPosition=bottom;verticalAlign=top;align=center;html=1;fontSize=12;fontStyle=0;aspect=fixed;pointerEvents=1;shape=mxgraph.aws4.gear;rounded=1;" vertex="1" parent="B4N4aQDUJcZZaR4VZE6Q-29">
          <mxGeometry x="280" y="11" width="17" height="17" as="geometry" />
        </mxCell>
        <mxCell id="B4N4aQDUJcZZaR4VZE6Q-32" value="Подать заявку на аукцион" style="text;html=1;align=center;verticalAlign=middle;whiteSpace=wrap;rounded=1;fontSize=13;fontColor=#FFFFFF;" vertex="1" parent="B4N4aQDUJcZZaR4VZE6Q-29">
          <mxGeometry x="10" y="4.5" width="167" height="30" as="geometry" />
        </mxCell>
        <mxCell id="B4N4aQDUJcZZaR4VZE6Q-676" style="edgeStyle=orthogonalEdgeStyle;rounded=0;orthogonalLoop=1;jettySize=auto;html=1;exitX=0.992;exitY=0.57;exitDx=0;exitDy=0;exitPerimeter=0;entryX=0.024;entryY=0.246;entryDx=0;entryDy=0;entryPerimeter=0;strokeColor=#FF6666;" edge="1" parent="1" source="B4N4aQDUJcZZaR4VZE6Q-35" target="B4N4aQDUJcZZaR4VZE6Q-658">
          <mxGeometry relative="1" as="geometry">
            <mxPoint x="1050" y="-220" as="targetPoint" />
          </mxGeometry>
        </mxCell>
        <mxCell id="B4N4aQDUJcZZaR4VZE6Q-35" value="" style="rounded=1;whiteSpace=wrap;html=1;arcSize=3;fillColor=#f5f5f5;strokeColor=#FF6666;strokeWidth=3;align=center;verticalAlign=middle;fontFamily=Helvetica;fontSize=12;fontColor=#333333;resizable=1;" vertex="1" parent="1">
          <mxGeometry x="-220" y="-464" width="650" height="424" as="geometry" />
        </mxCell>
        <mxCell id="B4N4aQDUJcZZaR4VZE6Q-36" value="Заказы" style="text;html=1;align=center;verticalAlign=middle;whiteSpace=wrap;rounded=1;shadow=0;fontSize=23;fontStyle=1" vertex="1" parent="1">
          <mxGeometry x="-205" y="-454" width="380" height="49" as="geometry" />
        </mxCell>
        <mxCell id="B4N4aQDUJcZZaR4VZE6Q-42" value="" style="group" vertex="1" connectable="0" parent="1">
          <mxGeometry x="-189" y="-356" width="328.5" height="295" as="geometry" />
        </mxCell>
        <mxCell id="B4N4aQDUJcZZaR4VZE6Q-43" value="" style="group" vertex="1" connectable="0" parent="B4N4aQDUJcZZaR4VZE6Q-42">
          <mxGeometry width="328.5" height="295" as="geometry" />
        </mxCell>
        <mxCell id="B4N4aQDUJcZZaR4VZE6Q-45" value="" style="sketch=0;outlineConnect=0;fontColor=#FFFFFF;gradientColor=none;fillColor=#FFFFFF;strokeColor=none;dashed=0;verticalLabelPosition=bottom;verticalAlign=top;align=center;html=1;fontSize=12;fontStyle=0;aspect=fixed;pointerEvents=1;shape=mxgraph.aws4.gear;rounded=1;" vertex="1" parent="B4N4aQDUJcZZaR4VZE6Q-43">
          <mxGeometry x="280" y="11" width="17" height="17" as="geometry" />
        </mxCell>
        <mxCell id="B4N4aQDUJcZZaR4VZE6Q-46" value="Редактировать профиль" style="text;html=1;align=center;verticalAlign=middle;whiteSpace=wrap;rounded=1;fontSize=13;fontColor=#FFFFFF;" vertex="1" parent="B4N4aQDUJcZZaR4VZE6Q-43">
          <mxGeometry x="8" y="4.5" width="164" height="30" as="geometry" />
        </mxCell>
        <mxCell id="B4N4aQDUJcZZaR4VZE6Q-71" value="" style="group" vertex="1" connectable="0" parent="B4N4aQDUJcZZaR4VZE6Q-43">
          <mxGeometry x="19.5" y="12" width="309" height="39" as="geometry" />
        </mxCell>
        <mxCell id="B4N4aQDUJcZZaR4VZE6Q-72" value="" style="rounded=1;whiteSpace=wrap;html=1;fillColor=#1C57CD;strokeColor=none;" vertex="1" parent="B4N4aQDUJcZZaR4VZE6Q-71">
          <mxGeometry width="309" height="39" as="geometry" />
        </mxCell>
        <mxCell id="B4N4aQDUJcZZaR4VZE6Q-73" value="" style="sketch=0;outlineConnect=0;fontColor=#232F3E;gradientColor=none;fillColor=default;strokeColor=none;dashed=0;verticalLabelPosition=bottom;verticalAlign=top;align=center;html=1;fontSize=12;fontStyle=0;aspect=fixed;pointerEvents=1;shape=mxgraph.aws4.gear;rounded=1;" vertex="1" parent="B4N4aQDUJcZZaR4VZE6Q-71">
          <mxGeometry x="282" y="11" width="17" height="17" as="geometry" />
        </mxCell>
        <mxCell id="B4N4aQDUJcZZaR4VZE6Q-74" value="Редактирование заказа" style="text;html=1;align=center;verticalAlign=middle;whiteSpace=wrap;rounded=1;fontSize=13;fontColor=#FFFFFF;strokeColor=none;" vertex="1" parent="B4N4aQDUJcZZaR4VZE6Q-71">
          <mxGeometry x="3" y="4.5" width="154" height="30" as="geometry" />
        </mxCell>
        <mxCell id="B4N4aQDUJcZZaR4VZE6Q-75" value="" style="group" vertex="1" connectable="0" parent="B4N4aQDUJcZZaR4VZE6Q-43">
          <mxGeometry x="19.5" y="60" width="309" height="39" as="geometry" />
        </mxCell>
        <mxCell id="B4N4aQDUJcZZaR4VZE6Q-76" value="" style="rounded=1;whiteSpace=wrap;html=1;fillColor=#1C57CD;strokeColor=none;" vertex="1" parent="B4N4aQDUJcZZaR4VZE6Q-75">
          <mxGeometry width="309" height="39" as="geometry" />
        </mxCell>
        <mxCell id="B4N4aQDUJcZZaR4VZE6Q-77" value="" style="sketch=0;outlineConnect=0;fontColor=#232F3E;gradientColor=none;fillColor=default;strokeColor=none;dashed=0;verticalLabelPosition=bottom;verticalAlign=top;align=center;html=1;fontSize=12;fontStyle=0;aspect=fixed;pointerEvents=1;shape=mxgraph.aws4.gear;rounded=1;" vertex="1" parent="B4N4aQDUJcZZaR4VZE6Q-75">
          <mxGeometry x="282" y="11" width="17" height="17" as="geometry" />
        </mxCell>
        <mxCell id="B4N4aQDUJcZZaR4VZE6Q-78" value="Сохранение заказа" style="text;html=1;align=center;verticalAlign=middle;whiteSpace=wrap;rounded=1;fontSize=13;fontColor=#FFFFFF;strokeColor=none;" vertex="1" parent="B4N4aQDUJcZZaR4VZE6Q-75">
          <mxGeometry x="4" y="4" width="126" height="30" as="geometry" />
        </mxCell>
        <mxCell id="B4N4aQDUJcZZaR4VZE6Q-79" value="" style="group" vertex="1" connectable="0" parent="B4N4aQDUJcZZaR4VZE6Q-43">
          <mxGeometry x="19.5" y="109" width="309" height="39" as="geometry" />
        </mxCell>
        <mxCell id="B4N4aQDUJcZZaR4VZE6Q-80" value="" style="rounded=1;whiteSpace=wrap;html=1;fillColor=#1C57CD;strokeColor=none;" vertex="1" parent="B4N4aQDUJcZZaR4VZE6Q-79">
          <mxGeometry width="309" height="39" as="geometry" />
        </mxCell>
        <mxCell id="B4N4aQDUJcZZaR4VZE6Q-81" value="" style="sketch=0;outlineConnect=0;fontColor=#232F3E;gradientColor=none;fillColor=default;strokeColor=none;dashed=0;verticalLabelPosition=bottom;verticalAlign=top;align=center;html=1;fontSize=12;fontStyle=0;aspect=fixed;pointerEvents=1;shape=mxgraph.aws4.gear;rounded=1;" vertex="1" parent="B4N4aQDUJcZZaR4VZE6Q-79">
          <mxGeometry x="281.5" y="11" width="17" height="17" as="geometry" />
        </mxCell>
        <mxCell id="B4N4aQDUJcZZaR4VZE6Q-82" value="Подтверждение заказа" style="text;html=1;align=center;verticalAlign=middle;whiteSpace=wrap;rounded=1;fontSize=13;fontColor=#FFFFFF;strokeColor=none;" vertex="1" parent="B4N4aQDUJcZZaR4VZE6Q-79">
          <mxGeometry x="4" y="4.5" width="152" height="30" as="geometry" />
        </mxCell>
        <mxCell id="B4N4aQDUJcZZaR4VZE6Q-83" value="" style="group" vertex="1" connectable="0" parent="B4N4aQDUJcZZaR4VZE6Q-43">
          <mxGeometry x="19.5" y="157" width="309" height="39" as="geometry" />
        </mxCell>
        <mxCell id="B4N4aQDUJcZZaR4VZE6Q-84" value="" style="rounded=1;whiteSpace=wrap;html=1;fillColor=#1C57CD;strokeColor=none;" vertex="1" parent="B4N4aQDUJcZZaR4VZE6Q-83">
          <mxGeometry width="309" height="39" as="geometry" />
        </mxCell>
        <mxCell id="B4N4aQDUJcZZaR4VZE6Q-85" value="" style="sketch=0;outlineConnect=0;fontColor=#232F3E;gradientColor=none;fillColor=default;strokeColor=none;dashed=0;verticalLabelPosition=bottom;verticalAlign=top;align=center;html=1;fontSize=12;fontStyle=0;aspect=fixed;pointerEvents=1;shape=mxgraph.aws4.gear;rounded=1;" vertex="1" parent="B4N4aQDUJcZZaR4VZE6Q-83">
          <mxGeometry x="281.5" y="11" width="17" height="17" as="geometry" />
        </mxCell>
        <mxCell id="B4N4aQDUJcZZaR4VZE6Q-86" value="Размещение заказа" style="text;html=1;align=center;verticalAlign=middle;whiteSpace=wrap;rounded=1;fontSize=13;fontColor=#FFFFFF;strokeColor=none;" vertex="1" parent="B4N4aQDUJcZZaR4VZE6Q-83">
          <mxGeometry x="3" y="4.5" width="130.5" height="30" as="geometry" />
        </mxCell>
        <mxCell id="B4N4aQDUJcZZaR4VZE6Q-87" value="" style="group" vertex="1" connectable="0" parent="B4N4aQDUJcZZaR4VZE6Q-43">
          <mxGeometry x="19.5" y="206" width="309" height="39" as="geometry" />
        </mxCell>
        <mxCell id="B4N4aQDUJcZZaR4VZE6Q-88" value="" style="rounded=1;whiteSpace=wrap;html=1;fillColor=#1C57CD;strokeColor=none;" vertex="1" parent="B4N4aQDUJcZZaR4VZE6Q-87">
          <mxGeometry width="309" height="39" as="geometry" />
        </mxCell>
        <mxCell id="B4N4aQDUJcZZaR4VZE6Q-89" value="" style="sketch=0;outlineConnect=0;fontColor=#232F3E;gradientColor=none;fillColor=default;strokeColor=none;dashed=0;verticalLabelPosition=bottom;verticalAlign=top;align=center;html=1;fontSize=12;fontStyle=0;aspect=fixed;pointerEvents=1;shape=mxgraph.aws4.gear;rounded=1;" vertex="1" parent="B4N4aQDUJcZZaR4VZE6Q-87">
          <mxGeometry x="281.5" y="11" width="17" height="17" as="geometry" />
        </mxCell>
        <mxCell id="B4N4aQDUJcZZaR4VZE6Q-90" value="Отобразить все заказы" style="text;html=1;align=center;verticalAlign=middle;whiteSpace=wrap;rounded=1;fontSize=13;fontColor=#FFFFFF;strokeColor=none;" vertex="1" parent="B4N4aQDUJcZZaR4VZE6Q-87">
          <mxGeometry x="3" y="4.5" width="152" height="30" as="geometry" />
        </mxCell>
        <mxCell id="B4N4aQDUJcZZaR4VZE6Q-91" value="" style="group" vertex="1" connectable="0" parent="B4N4aQDUJcZZaR4VZE6Q-43">
          <mxGeometry x="19.5" y="256" width="309" height="39" as="geometry" />
        </mxCell>
        <mxCell id="B4N4aQDUJcZZaR4VZE6Q-92" value="" style="rounded=1;whiteSpace=wrap;html=1;fillColor=#1C57CD;strokeColor=none;" vertex="1" parent="B4N4aQDUJcZZaR4VZE6Q-91">
          <mxGeometry width="309" height="39" as="geometry" />
        </mxCell>
        <mxCell id="B4N4aQDUJcZZaR4VZE6Q-93" value="" style="sketch=0;outlineConnect=0;fontColor=#232F3E;gradientColor=none;fillColor=default;strokeColor=none;dashed=0;verticalLabelPosition=bottom;verticalAlign=top;align=center;html=1;fontSize=12;fontStyle=0;aspect=fixed;pointerEvents=1;shape=mxgraph.aws4.gear;rounded=1;" vertex="1" parent="B4N4aQDUJcZZaR4VZE6Q-91">
          <mxGeometry x="282" y="11" width="17" height="17" as="geometry" />
        </mxCell>
        <mxCell id="B4N4aQDUJcZZaR4VZE6Q-94" value="Отобразить детали заказа" style="text;html=1;align=center;verticalAlign=middle;whiteSpace=wrap;rounded=1;fontSize=13;fontColor=#FFFFFF;strokeColor=none;" vertex="1" parent="B4N4aQDUJcZZaR4VZE6Q-91">
          <mxGeometry x="5" y="5" width="169" height="30" as="geometry" />
        </mxCell>
        <mxCell id="B4N4aQDUJcZZaR4VZE6Q-68" value="" style="rounded=1;whiteSpace=wrap;html=1;fillColor=#1C57CD;strokeColor=none;" vertex="1" parent="1">
          <mxGeometry x="-169.5" y="-395" width="309" height="39" as="geometry" />
        </mxCell>
        <mxCell id="B4N4aQDUJcZZaR4VZE6Q-69" value="" style="sketch=0;outlineConnect=0;fontColor=#232F3E;gradientColor=none;fillColor=default;strokeColor=none;dashed=0;verticalLabelPosition=bottom;verticalAlign=top;align=center;html=1;fontSize=12;fontStyle=0;aspect=fixed;pointerEvents=1;shape=mxgraph.aws4.gear;rounded=1;" vertex="1" parent="1">
          <mxGeometry x="112.5" y="-384" width="17" height="17" as="geometry" />
        </mxCell>
        <mxCell id="B4N4aQDUJcZZaR4VZE6Q-70" value="Создание заказа" style="text;html=1;align=center;verticalAlign=middle;whiteSpace=wrap;rounded=1;fontSize=13;fontColor=#FFFFFF;strokeColor=none;" vertex="1" parent="1">
          <mxGeometry x="-164.5" y="-390.5" width="110" height="30" as="geometry" />
        </mxCell>
        <mxCell id="B4N4aQDUJcZZaR4VZE6Q-95" value="" style="rounded=1;whiteSpace=wrap;html=1;fillColor=#1C57CD;strokeColor=none;" vertex="1" parent="1">
          <mxGeometry x="1573" y="-734" width="309" height="39" as="geometry" />
        </mxCell>
        <mxCell id="B4N4aQDUJcZZaR4VZE6Q-96" value="" style="sketch=0;outlineConnect=0;fontColor=#232F3E;gradientColor=none;fillColor=default;strokeColor=none;dashed=0;verticalLabelPosition=bottom;verticalAlign=top;align=center;html=1;fontSize=12;fontStyle=0;aspect=fixed;pointerEvents=1;shape=mxgraph.aws4.gear;rounded=1;" vertex="1" parent="1">
          <mxGeometry x="1855" y="-723" width="17" height="17" as="geometry" />
        </mxCell>
        <mxCell id="B4N4aQDUJcZZaR4VZE6Q-97" value="Нотификация об изменении состояния заказа" style="text;html=1;align=center;verticalAlign=middle;whiteSpace=wrap;rounded=1;fontSize=13;fontColor=#FFFFFF;strokeColor=none;" vertex="1" parent="1">
          <mxGeometry x="1579" y="-729.5" width="247" height="30" as="geometry" />
        </mxCell>
        <mxCell id="B4N4aQDUJcZZaR4VZE6Q-134" value="" style="group" vertex="1" connectable="0" parent="1">
          <mxGeometry x="-165" y="-760" width="309" height="39" as="geometry" />
        </mxCell>
        <mxCell id="B4N4aQDUJcZZaR4VZE6Q-135" value="" style="group" vertex="1" connectable="0" parent="B4N4aQDUJcZZaR4VZE6Q-134">
          <mxGeometry width="309" height="39" as="geometry" />
        </mxCell>
        <mxCell id="B4N4aQDUJcZZaR4VZE6Q-136" value="" style="rounded=1;whiteSpace=wrap;html=1;gradientColor=none;fillColor=#1C57CD;strokeColor=none;movable=1;resizable=1;rotatable=1;deletable=1;editable=1;locked=0;connectable=1;" vertex="1" parent="B4N4aQDUJcZZaR4VZE6Q-135">
          <mxGeometry width="309" height="39" as="geometry" />
        </mxCell>
        <mxCell id="B4N4aQDUJcZZaR4VZE6Q-137" value="" style="sketch=0;outlineConnect=0;dashed=0;verticalLabelPosition=bottom;verticalAlign=top;align=center;html=1;fontSize=12;fontStyle=0;aspect=fixed;pointerEvents=1;shape=mxgraph.aws4.gear;rounded=1;strokeColor=none;fillColor=default;" vertex="1" parent="B4N4aQDUJcZZaR4VZE6Q-135">
          <mxGeometry x="280" y="11" width="17" height="17" as="geometry" />
        </mxCell>
        <mxCell id="B4N4aQDUJcZZaR4VZE6Q-138" value="Регистрация пользователя" style="text;html=1;align=center;verticalAlign=middle;whiteSpace=wrap;rounded=1;fontSize=13;fontColor=#FFFFFF;strokeColor=none;movable=1;resizable=1;rotatable=1;deletable=1;editable=1;locked=0;connectable=1;" vertex="1" parent="B4N4aQDUJcZZaR4VZE6Q-135">
          <mxGeometry x="3" y="4.5" width="172" height="30" as="geometry" />
        </mxCell>
        <mxCell id="B4N4aQDUJcZZaR4VZE6Q-139" value="" style="group" vertex="1" connectable="0" parent="1">
          <mxGeometry x="-165" y="-711" width="309" height="39" as="geometry" />
        </mxCell>
        <mxCell id="B4N4aQDUJcZZaR4VZE6Q-140" value="" style="rounded=1;whiteSpace=wrap;html=1;fillColor=#1C57CD;strokeColor=none;" vertex="1" parent="B4N4aQDUJcZZaR4VZE6Q-139">
          <mxGeometry width="309" height="39" as="geometry" />
        </mxCell>
        <mxCell id="B4N4aQDUJcZZaR4VZE6Q-141" value="" style="sketch=0;outlineConnect=0;fontColor=#232F3E;gradientColor=none;fillColor=default;strokeColor=none;dashed=0;verticalLabelPosition=bottom;verticalAlign=top;align=center;html=1;fontSize=12;fontStyle=0;aspect=fixed;pointerEvents=1;shape=mxgraph.aws4.gear;rounded=1;" vertex="1" parent="B4N4aQDUJcZZaR4VZE6Q-139">
          <mxGeometry x="280" y="11" width="17" height="17" as="geometry" />
        </mxCell>
        <mxCell id="B4N4aQDUJcZZaR4VZE6Q-142" value="Аутентификация" style="text;html=1;align=center;verticalAlign=middle;whiteSpace=wrap;rounded=1;fontSize=13;fontColor=#FFFFFF;strokeColor=none;" vertex="1" parent="B4N4aQDUJcZZaR4VZE6Q-139">
          <mxGeometry x="2" y="4.5" width="114" height="30" as="geometry" />
        </mxCell>
        <mxCell id="B4N4aQDUJcZZaR4VZE6Q-143" value="" style="group" vertex="1" connectable="0" parent="1">
          <mxGeometry x="-165" y="-666" width="309" height="39" as="geometry" />
        </mxCell>
        <mxCell id="B4N4aQDUJcZZaR4VZE6Q-144" value="" style="rounded=1;whiteSpace=wrap;html=1;fillColor=#1C57CD;strokeColor=none;" vertex="1" parent="B4N4aQDUJcZZaR4VZE6Q-143">
          <mxGeometry width="309" height="39" as="geometry" />
        </mxCell>
        <mxCell id="B4N4aQDUJcZZaR4VZE6Q-145" value="" style="sketch=0;outlineConnect=0;fontColor=#232F3E;gradientColor=none;fillColor=default;strokeColor=none;dashed=0;verticalLabelPosition=bottom;verticalAlign=top;align=center;html=1;fontSize=12;fontStyle=0;aspect=fixed;pointerEvents=1;shape=mxgraph.aws4.gear;rounded=1;" vertex="1" parent="B4N4aQDUJcZZaR4VZE6Q-143">
          <mxGeometry x="280" y="11" width="17" height="17" as="geometry" />
        </mxCell>
        <mxCell id="B4N4aQDUJcZZaR4VZE6Q-146" value="Присвоение ролей" style="text;html=1;align=center;verticalAlign=middle;whiteSpace=wrap;rounded=1;fontSize=13;fontColor=#FFFFFF;strokeColor=none;" vertex="1" parent="B4N4aQDUJcZZaR4VZE6Q-143">
          <mxGeometry x="3" y="5" width="122" height="30" as="geometry" />
        </mxCell>
        <mxCell id="B4N4aQDUJcZZaR4VZE6Q-147" value="" style="group" vertex="1" connectable="0" parent="1">
          <mxGeometry x="-165" y="-630" width="309" height="50" as="geometry" />
        </mxCell>
        <mxCell id="B4N4aQDUJcZZaR4VZE6Q-149" value="" style="sketch=0;outlineConnect=0;fontColor=#232F3E;gradientColor=none;fillColor=default;strokeColor=none;dashed=0;verticalLabelPosition=bottom;verticalAlign=top;align=center;html=1;fontSize=12;fontStyle=0;aspect=fixed;pointerEvents=1;shape=mxgraph.aws4.gear;rounded=1;" vertex="1" parent="B4N4aQDUJcZZaR4VZE6Q-147">
          <mxGeometry x="280" y="11" width="17" height="17" as="geometry" />
        </mxCell>
        <mxCell id="B4N4aQDUJcZZaR4VZE6Q-150" value="Нотификация нового пользователя" style="text;html=1;align=center;verticalAlign=middle;whiteSpace=wrap;rounded=1;fontSize=13;fontColor=#FFFFFF;strokeColor=none;" vertex="1" parent="B4N4aQDUJcZZaR4VZE6Q-147">
          <mxGeometry x="3" y="4.5" width="227" height="30" as="geometry" />
        </mxCell>
        <mxCell id="B4N4aQDUJcZZaR4VZE6Q-152" value="" style="rounded=1;whiteSpace=wrap;html=1;fillColor=#1C57CD;strokeColor=none;" vertex="1" parent="B4N4aQDUJcZZaR4VZE6Q-147">
          <mxGeometry y="11" width="309" height="39" as="geometry" />
        </mxCell>
        <mxCell id="B4N4aQDUJcZZaR4VZE6Q-154" value="Валидация токена безопасности" style="text;html=1;align=center;verticalAlign=middle;whiteSpace=wrap;rounded=1;fontSize=13;fontColor=#FFFFFF;strokeColor=none;" vertex="1" parent="B4N4aQDUJcZZaR4VZE6Q-147">
          <mxGeometry x="3" y="15.5" width="209" height="30" as="geometry" />
        </mxCell>
        <mxCell id="B4N4aQDUJcZZaR4VZE6Q-153" value="" style="sketch=0;outlineConnect=0;fontColor=#232F3E;gradientColor=none;fillColor=default;strokeColor=none;dashed=0;verticalLabelPosition=bottom;verticalAlign=top;align=center;html=1;fontSize=12;fontStyle=0;aspect=fixed;pointerEvents=1;shape=mxgraph.aws4.gear;rounded=1;" vertex="1" parent="B4N4aQDUJcZZaR4VZE6Q-147">
          <mxGeometry x="280" y="22" width="17" height="17" as="geometry" />
        </mxCell>
        <mxCell id="B4N4aQDUJcZZaR4VZE6Q-155" value="" style="group" vertex="1" connectable="0" parent="1">
          <mxGeometry x="-175.25" y="-1521" width="309" height="39" as="geometry" />
        </mxCell>
        <mxCell id="B4N4aQDUJcZZaR4VZE6Q-156" value="" style="rounded=1;whiteSpace=wrap;html=1;fillColor=#1C57CD;strokeColor=none;" vertex="1" parent="B4N4aQDUJcZZaR4VZE6Q-155">
          <mxGeometry width="309" height="39" as="geometry" />
        </mxCell>
        <mxCell id="B4N4aQDUJcZZaR4VZE6Q-157" value="" style="sketch=0;outlineConnect=0;fontColor=#232F3E;gradientColor=none;fillColor=default;strokeColor=none;dashed=0;verticalLabelPosition=bottom;verticalAlign=top;align=center;html=1;fontSize=12;fontStyle=0;aspect=fixed;pointerEvents=1;shape=mxgraph.aws4.gear;rounded=1;" vertex="1" parent="B4N4aQDUJcZZaR4VZE6Q-155">
          <mxGeometry x="282" y="11" width="17" height="17" as="geometry" />
        </mxCell>
        <mxCell id="B4N4aQDUJcZZaR4VZE6Q-158" value="Удалить услугу пользователя" style="text;html=1;align=center;verticalAlign=middle;whiteSpace=wrap;rounded=1;fontSize=13;fontColor=#FFFFFF;strokeColor=none;" vertex="1" parent="B4N4aQDUJcZZaR4VZE6Q-155">
          <mxGeometry x="3" y="4.5" width="189" height="30" as="geometry" />
        </mxCell>
        <mxCell id="B4N4aQDUJcZZaR4VZE6Q-159" value="" style="group" vertex="1" connectable="0" parent="1">
          <mxGeometry x="-179.25" y="-1131" width="309" height="39" as="geometry" />
        </mxCell>
        <mxCell id="B4N4aQDUJcZZaR4VZE6Q-160" value="" style="rounded=1;whiteSpace=wrap;html=1;fillColor=#1C57CD;strokeColor=none;" vertex="1" parent="B4N4aQDUJcZZaR4VZE6Q-159">
          <mxGeometry width="309" height="39" as="geometry" />
        </mxCell>
        <mxCell id="B4N4aQDUJcZZaR4VZE6Q-161" value="" style="sketch=0;outlineConnect=0;fontColor=#232F3E;gradientColor=none;fillColor=default;strokeColor=none;dashed=0;verticalLabelPosition=bottom;verticalAlign=top;align=center;html=1;fontSize=12;fontStyle=0;aspect=fixed;pointerEvents=1;shape=mxgraph.aws4.gear;rounded=1;" vertex="1" parent="B4N4aQDUJcZZaR4VZE6Q-159">
          <mxGeometry x="282" y="11" width="17" height="17" as="geometry" />
        </mxCell>
        <mxCell id="B4N4aQDUJcZZaR4VZE6Q-162" value="Удалить товар пользователя" style="text;html=1;align=center;verticalAlign=middle;whiteSpace=wrap;rounded=1;fontSize=13;fontColor=#FFFFFF;strokeColor=none;" vertex="1" parent="B4N4aQDUJcZZaR4VZE6Q-159">
          <mxGeometry x="2" y="4.5" width="188" height="30" as="geometry" />
        </mxCell>
        <mxCell id="B4N4aQDUJcZZaR4VZE6Q-163" value="" style="group" vertex="1" connectable="0" parent="1">
          <mxGeometry x="1593" y="-200" width="309" height="39" as="geometry" />
        </mxCell>
        <mxCell id="B4N4aQDUJcZZaR4VZE6Q-164" value="" style="rounded=1;whiteSpace=wrap;html=1;fillColor=#1C57CD;strokeColor=none;" vertex="1" parent="B4N4aQDUJcZZaR4VZE6Q-163">
          <mxGeometry width="309" height="39" as="geometry" />
        </mxCell>
        <mxCell id="B4N4aQDUJcZZaR4VZE6Q-165" value="" style="sketch=0;outlineConnect=0;fontColor=#232F3E;gradientColor=none;fillColor=#FFFFFF;strokeColor=none;dashed=0;verticalLabelPosition=bottom;verticalAlign=top;align=center;html=1;fontSize=12;fontStyle=0;aspect=fixed;pointerEvents=1;shape=mxgraph.aws4.gear;rounded=1;" vertex="1" parent="B4N4aQDUJcZZaR4VZE6Q-163">
          <mxGeometry x="286" y="11" width="17" height="17" as="geometry" />
        </mxCell>
        <mxCell id="B4N4aQDUJcZZaR4VZE6Q-166" value="Определить способ оплаты" style="text;html=1;align=center;verticalAlign=middle;whiteSpace=wrap;rounded=1;fontSize=13;fontColor=#FFFFFF;strokeColor=none;" vertex="1" parent="B4N4aQDUJcZZaR4VZE6Q-163">
          <mxGeometry x="7" y="4.5" width="173" height="30" as="geometry" />
        </mxCell>
        <mxCell id="B4N4aQDUJcZZaR4VZE6Q-167" value="" style="group" vertex="1" connectable="0" parent="1">
          <mxGeometry x="-183.75" y="-1013" width="309" height="39" as="geometry" />
        </mxCell>
        <mxCell id="B4N4aQDUJcZZaR4VZE6Q-168" value="" style="rounded=1;whiteSpace=wrap;html=1;fillColor=#1C57CD;strokeColor=none;" vertex="1" parent="B4N4aQDUJcZZaR4VZE6Q-167">
          <mxGeometry width="309" height="39" as="geometry" />
        </mxCell>
        <mxCell id="B4N4aQDUJcZZaR4VZE6Q-169" value="" style="sketch=0;outlineConnect=0;fontColor=#232F3E;gradientColor=none;fillColor=#FFFFFF;strokeColor=none;dashed=0;verticalLabelPosition=bottom;verticalAlign=top;align=center;html=1;fontSize=12;fontStyle=0;aspect=fixed;pointerEvents=1;shape=mxgraph.aws4.gear;rounded=1;" vertex="1" parent="B4N4aQDUJcZZaR4VZE6Q-167">
          <mxGeometry x="286" y="11" width="17" height="17" as="geometry" />
        </mxCell>
        <mxCell id="B4N4aQDUJcZZaR4VZE6Q-170" value="Добавить товар в профиль пользователя" style="text;html=1;align=center;verticalAlign=middle;whiteSpace=wrap;rounded=1;fontSize=13;fontColor=#FFFFFF;strokeColor=none;" vertex="1" parent="B4N4aQDUJcZZaR4VZE6Q-167">
          <mxGeometry x="8" y="4" width="262" height="30" as="geometry" />
        </mxCell>
        <mxCell id="B4N4aQDUJcZZaR4VZE6Q-171" value="" style="group" vertex="1" connectable="0" parent="1">
          <mxGeometry x="-177.25" y="-1467" width="309" height="39" as="geometry" />
        </mxCell>
        <mxCell id="B4N4aQDUJcZZaR4VZE6Q-172" value="" style="rounded=1;whiteSpace=wrap;html=1;fillColor=#1C57CD;strokeColor=none;" vertex="1" parent="B4N4aQDUJcZZaR4VZE6Q-171">
          <mxGeometry width="309" height="39" as="geometry" />
        </mxCell>
        <mxCell id="B4N4aQDUJcZZaR4VZE6Q-173" value="" style="sketch=0;outlineConnect=0;fontColor=#232F3E;gradientColor=none;fillColor=#FFFFFF;strokeColor=none;dashed=0;verticalLabelPosition=bottom;verticalAlign=top;align=center;html=1;fontSize=12;fontStyle=0;aspect=fixed;pointerEvents=1;shape=mxgraph.aws4.gear;rounded=1;" vertex="1" parent="B4N4aQDUJcZZaR4VZE6Q-171">
          <mxGeometry x="286" y="10" width="17" height="17" as="geometry" />
        </mxCell>
        <mxCell id="B4N4aQDUJcZZaR4VZE6Q-174" value="Добавить услугу в профиль пользователя" style="text;html=1;align=center;verticalAlign=middle;whiteSpace=wrap;rounded=1;fontSize=13;fontColor=#FFFFFF;strokeColor=none;" vertex="1" parent="B4N4aQDUJcZZaR4VZE6Q-171">
          <mxGeometry x="2" y="5" width="273" height="30" as="geometry" />
        </mxCell>
        <mxCell id="B4N4aQDUJcZZaR4VZE6Q-175" value="" style="group" vertex="1" connectable="0" parent="1">
          <mxGeometry x="-179.25" y="-1071" width="309" height="39" as="geometry" />
        </mxCell>
        <mxCell id="B4N4aQDUJcZZaR4VZE6Q-176" value="" style="rounded=1;whiteSpace=wrap;html=1;fillColor=#1C57CD;strokeColor=none;" vertex="1" parent="B4N4aQDUJcZZaR4VZE6Q-175">
          <mxGeometry width="309" height="39" as="geometry" />
        </mxCell>
        <mxCell id="B4N4aQDUJcZZaR4VZE6Q-177" value="" style="sketch=0;outlineConnect=0;fontColor=#232F3E;gradientColor=none;fillColor=#FFFFFF;strokeColor=none;dashed=0;verticalLabelPosition=bottom;verticalAlign=top;align=center;html=1;fontSize=12;fontStyle=0;aspect=fixed;pointerEvents=1;shape=mxgraph.aws4.gear;rounded=1;" vertex="1" parent="B4N4aQDUJcZZaR4VZE6Q-175">
          <mxGeometry x="286" y="11" width="17" height="17" as="geometry" />
        </mxCell>
        <mxCell id="B4N4aQDUJcZZaR4VZE6Q-178" value="Изменить товар пользователя" style="text;html=1;align=center;verticalAlign=middle;whiteSpace=wrap;rounded=1;fontSize=13;fontColor=#FFFFFF;strokeColor=none;" vertex="1" parent="B4N4aQDUJcZZaR4VZE6Q-175">
          <mxGeometry x="7" y="3" width="195" height="30" as="geometry" />
        </mxCell>
        <mxCell id="B4N4aQDUJcZZaR4VZE6Q-179" value="" style="group" vertex="1" connectable="0" parent="1">
          <mxGeometry x="-177.25" y="-1414" width="309" height="39" as="geometry" />
        </mxCell>
        <mxCell id="B4N4aQDUJcZZaR4VZE6Q-180" value="" style="rounded=1;whiteSpace=wrap;html=1;fillColor=#1C57CD;strokeColor=none;" vertex="1" parent="B4N4aQDUJcZZaR4VZE6Q-179">
          <mxGeometry width="309" height="39" as="geometry" />
        </mxCell>
        <mxCell id="B4N4aQDUJcZZaR4VZE6Q-181" value="" style="sketch=0;outlineConnect=0;fontColor=#232F3E;gradientColor=none;fillColor=#FFFFFF;strokeColor=none;dashed=0;verticalLabelPosition=bottom;verticalAlign=top;align=center;html=1;fontSize=12;fontStyle=0;aspect=fixed;pointerEvents=1;shape=mxgraph.aws4.gear;rounded=1;" vertex="1" parent="B4N4aQDUJcZZaR4VZE6Q-179">
          <mxGeometry x="286" y="11" width="17" height="17" as="geometry" />
        </mxCell>
        <mxCell id="B4N4aQDUJcZZaR4VZE6Q-182" value="Изменить услугу пользователя" style="text;html=1;align=center;verticalAlign=middle;whiteSpace=wrap;rounded=1;fontSize=13;fontColor=#FFFFFF;strokeColor=none;" vertex="1" parent="B4N4aQDUJcZZaR4VZE6Q-179">
          <mxGeometry x="4" y="4.5" width="195" height="30" as="geometry" />
        </mxCell>
        <mxCell id="B4N4aQDUJcZZaR4VZE6Q-183" value="" style="group" vertex="1" connectable="0" parent="1">
          <mxGeometry x="-170" y="59.5" width="309" height="39" as="geometry" />
        </mxCell>
        <mxCell id="B4N4aQDUJcZZaR4VZE6Q-184" value="" style="rounded=1;whiteSpace=wrap;html=1;fillColor=#1C57CD;strokeColor=none;" vertex="1" parent="B4N4aQDUJcZZaR4VZE6Q-183">
          <mxGeometry width="309" height="39" as="geometry" />
        </mxCell>
        <mxCell id="B4N4aQDUJcZZaR4VZE6Q-185" value="" style="sketch=0;outlineConnect=0;fontColor=#232F3E;gradientColor=none;fillColor=#FFFFFF;strokeColor=none;dashed=0;verticalLabelPosition=bottom;verticalAlign=top;align=center;html=1;fontSize=12;fontStyle=0;aspect=fixed;pointerEvents=1;shape=mxgraph.aws4.gear;rounded=1;" vertex="1" parent="B4N4aQDUJcZZaR4VZE6Q-183">
          <mxGeometry x="286" y="11" width="17" height="17" as="geometry" />
        </mxCell>
        <mxCell id="B4N4aQDUJcZZaR4VZE6Q-186" value="Создать аукцион" style="text;html=1;align=center;verticalAlign=middle;whiteSpace=wrap;rounded=1;fontSize=13;fontColor=#FFFFFF;strokeColor=none;" vertex="1" parent="B4N4aQDUJcZZaR4VZE6Q-183">
          <mxGeometry x="3" y="4.5" width="113" height="30" as="geometry" />
        </mxCell>
        <mxCell id="B4N4aQDUJcZZaR4VZE6Q-187" value="" style="group" vertex="1" connectable="0" parent="1">
          <mxGeometry x="-170" y="107" width="309" height="39" as="geometry" />
        </mxCell>
        <mxCell id="B4N4aQDUJcZZaR4VZE6Q-188" value="" style="rounded=1;whiteSpace=wrap;html=1;fillColor=#1C57CD;strokeColor=none;" vertex="1" parent="B4N4aQDUJcZZaR4VZE6Q-187">
          <mxGeometry width="309" height="39" as="geometry" />
        </mxCell>
        <mxCell id="B4N4aQDUJcZZaR4VZE6Q-189" value="" style="sketch=0;outlineConnect=0;fontColor=#232F3E;gradientColor=none;fillColor=#FFFFFF;strokeColor=none;dashed=0;verticalLabelPosition=bottom;verticalAlign=top;align=center;html=1;fontSize=12;fontStyle=0;aspect=fixed;pointerEvents=1;shape=mxgraph.aws4.gear;rounded=1;" vertex="1" parent="B4N4aQDUJcZZaR4VZE6Q-187">
          <mxGeometry x="286" y="11" width="17" height="17" as="geometry" />
        </mxCell>
        <mxCell id="B4N4aQDUJcZZaR4VZE6Q-190" value="Редактировать аукцион" style="text;html=1;align=center;verticalAlign=middle;whiteSpace=wrap;rounded=1;fontSize=13;fontColor=#FFFFFF;strokeColor=none;" vertex="1" parent="B4N4aQDUJcZZaR4VZE6Q-187">
          <mxGeometry x="3" y="4.5" width="160" height="30" as="geometry" />
        </mxCell>
        <mxCell id="B4N4aQDUJcZZaR4VZE6Q-191" value="" style="group" vertex="1" connectable="0" parent="1">
          <mxGeometry x="-170" y="154.5" width="309" height="39" as="geometry" />
        </mxCell>
        <mxCell id="B4N4aQDUJcZZaR4VZE6Q-192" value="" style="rounded=1;whiteSpace=wrap;html=1;fillColor=#1C57CD;strokeColor=none;" vertex="1" parent="B4N4aQDUJcZZaR4VZE6Q-191">
          <mxGeometry width="309" height="39" as="geometry" />
        </mxCell>
        <mxCell id="B4N4aQDUJcZZaR4VZE6Q-193" value="" style="sketch=0;outlineConnect=0;fontColor=#232F3E;gradientColor=none;fillColor=#FFFFFF;strokeColor=none;dashed=0;verticalLabelPosition=bottom;verticalAlign=top;align=center;html=1;fontSize=12;fontStyle=0;aspect=fixed;pointerEvents=1;shape=mxgraph.aws4.gear;rounded=1;" vertex="1" parent="B4N4aQDUJcZZaR4VZE6Q-191">
          <mxGeometry x="286" y="11" width="17" height="17" as="geometry" />
        </mxCell>
        <mxCell id="B4N4aQDUJcZZaR4VZE6Q-194" value="Обработать новую заявку на аукцион" style="text;html=1;align=center;verticalAlign=middle;whiteSpace=wrap;rounded=1;fontSize=13;fontColor=#FFFFFF;strokeColor=none;" vertex="1" parent="B4N4aQDUJcZZaR4VZE6Q-191">
          <mxGeometry x="3" y="4.5" width="241" height="30" as="geometry" />
        </mxCell>
        <mxCell id="B4N4aQDUJcZZaR4VZE6Q-195" value="" style="group" vertex="1" connectable="0" parent="1">
          <mxGeometry x="-170" y="202.5" width="309" height="39" as="geometry" />
        </mxCell>
        <mxCell id="B4N4aQDUJcZZaR4VZE6Q-196" value="" style="rounded=1;whiteSpace=wrap;html=1;fillColor=#1C57CD;strokeColor=none;" vertex="1" parent="B4N4aQDUJcZZaR4VZE6Q-195">
          <mxGeometry width="309" height="39" as="geometry" />
        </mxCell>
        <mxCell id="B4N4aQDUJcZZaR4VZE6Q-197" value="" style="sketch=0;outlineConnect=0;fontColor=#232F3E;gradientColor=none;fillColor=#FFFFFF;strokeColor=none;dashed=0;verticalLabelPosition=bottom;verticalAlign=top;align=center;html=1;fontSize=12;fontStyle=0;aspect=fixed;pointerEvents=1;shape=mxgraph.aws4.gear;rounded=1;" vertex="1" parent="B4N4aQDUJcZZaR4VZE6Q-195">
          <mxGeometry x="286" y="11" width="17" height="17" as="geometry" />
        </mxCell>
        <mxCell id="B4N4aQDUJcZZaR4VZE6Q-198" value="Обновление ставок аукциона" style="text;html=1;align=center;verticalAlign=middle;whiteSpace=wrap;rounded=1;fontSize=13;fontColor=#FFFFFF;strokeColor=none;" vertex="1" parent="B4N4aQDUJcZZaR4VZE6Q-195">
          <mxGeometry x="4" y="4.5" width="189" height="30" as="geometry" />
        </mxCell>
        <mxCell id="B4N4aQDUJcZZaR4VZE6Q-203" value="" style="group" vertex="1" connectable="0" parent="1">
          <mxGeometry x="-179.25" y="-951" width="309" height="39" as="geometry" />
        </mxCell>
        <mxCell id="B4N4aQDUJcZZaR4VZE6Q-204" value="" style="rounded=1;whiteSpace=wrap;html=1;fillColor=#1C57CD;strokeColor=none;" vertex="1" parent="B4N4aQDUJcZZaR4VZE6Q-203">
          <mxGeometry width="309" height="39" as="geometry" />
        </mxCell>
        <mxCell id="B4N4aQDUJcZZaR4VZE6Q-205" value="" style="sketch=0;outlineConnect=0;fontColor=#232F3E;gradientColor=none;fillColor=#FFFFFF;strokeColor=none;dashed=0;verticalLabelPosition=bottom;verticalAlign=top;align=center;html=1;fontSize=12;fontStyle=0;aspect=fixed;pointerEvents=1;shape=mxgraph.aws4.gear;rounded=1;" vertex="1" parent="B4N4aQDUJcZZaR4VZE6Q-203">
          <mxGeometry x="286" y="11" width="17" height="17" as="geometry" />
        </mxCell>
        <mxCell id="B4N4aQDUJcZZaR4VZE6Q-206" value="Поиск товаров" style="text;html=1;align=center;verticalAlign=middle;whiteSpace=wrap;rounded=1;fontSize=13;fontColor=#FFFFFF;strokeColor=none;" vertex="1" parent="B4N4aQDUJcZZaR4VZE6Q-203">
          <mxGeometry x="3" y="4.5" width="99" height="30" as="geometry" />
        </mxCell>
        <mxCell id="B4N4aQDUJcZZaR4VZE6Q-207" value="" style="group" vertex="1" connectable="0" parent="1">
          <mxGeometry x="-175.25" y="-1361" width="309" height="39" as="geometry" />
        </mxCell>
        <mxCell id="B4N4aQDUJcZZaR4VZE6Q-208" value="" style="rounded=1;whiteSpace=wrap;html=1;fillColor=#1C57CD;strokeColor=none;" vertex="1" parent="B4N4aQDUJcZZaR4VZE6Q-207">
          <mxGeometry width="309" height="39" as="geometry" />
        </mxCell>
        <mxCell id="B4N4aQDUJcZZaR4VZE6Q-209" value="" style="sketch=0;outlineConnect=0;fontColor=#232F3E;gradientColor=none;fillColor=#FFFFFF;strokeColor=none;dashed=0;verticalLabelPosition=bottom;verticalAlign=top;align=center;html=1;fontSize=12;fontStyle=0;aspect=fixed;pointerEvents=1;shape=mxgraph.aws4.gear;rounded=1;" vertex="1" parent="B4N4aQDUJcZZaR4VZE6Q-207">
          <mxGeometry x="286" y="11" width="17" height="17" as="geometry" />
        </mxCell>
        <mxCell id="B4N4aQDUJcZZaR4VZE6Q-210" value="Поиск услуг" style="text;html=1;align=center;verticalAlign=middle;whiteSpace=wrap;rounded=1;fontSize=13;fontColor=#FFFFFF;strokeColor=none;" vertex="1" parent="B4N4aQDUJcZZaR4VZE6Q-207">
          <mxGeometry x="4" y="4" width="81" height="30" as="geometry" />
        </mxCell>
        <mxCell id="B4N4aQDUJcZZaR4VZE6Q-211" value="" style="group" vertex="1" connectable="0" parent="1">
          <mxGeometry x="-174.5" y="638" width="309" height="39" as="geometry" />
        </mxCell>
        <mxCell id="B4N4aQDUJcZZaR4VZE6Q-212" value="" style="rounded=1;whiteSpace=wrap;html=1;fillColor=#1C57CD;strokeColor=none;" vertex="1" parent="B4N4aQDUJcZZaR4VZE6Q-211">
          <mxGeometry width="309" height="39" as="geometry" />
        </mxCell>
        <mxCell id="B4N4aQDUJcZZaR4VZE6Q-213" value="" style="sketch=0;outlineConnect=0;fontColor=#232F3E;gradientColor=none;fillColor=#FFFFFF;strokeColor=none;dashed=0;verticalLabelPosition=bottom;verticalAlign=top;align=center;html=1;fontSize=12;fontStyle=0;aspect=fixed;pointerEvents=1;shape=mxgraph.aws4.gear;rounded=1;" vertex="1" parent="B4N4aQDUJcZZaR4VZE6Q-211">
          <mxGeometry x="286" y="11" width="17" height="17" as="geometry" />
        </mxCell>
        <mxCell id="B4N4aQDUJcZZaR4VZE6Q-214" value="Фильтрация и сортировка результатов" style="text;html=1;align=center;verticalAlign=middle;whiteSpace=wrap;rounded=1;fontSize=13;fontColor=#FFFFFF;strokeColor=none;" vertex="1" parent="B4N4aQDUJcZZaR4VZE6Q-211">
          <mxGeometry x="5" y="4.5" width="248" height="30" as="geometry" />
        </mxCell>
        <mxCell id="B4N4aQDUJcZZaR4VZE6Q-215" value="" style="group" vertex="1" connectable="0" parent="1">
          <mxGeometry x="-174.5" y="685" width="309" height="39" as="geometry" />
        </mxCell>
        <mxCell id="B4N4aQDUJcZZaR4VZE6Q-216" value="" style="rounded=1;whiteSpace=wrap;html=1;fillColor=#1C57CD;strokeColor=none;" vertex="1" parent="B4N4aQDUJcZZaR4VZE6Q-215">
          <mxGeometry width="309" height="39" as="geometry" />
        </mxCell>
        <mxCell id="B4N4aQDUJcZZaR4VZE6Q-217" value="" style="sketch=0;outlineConnect=0;fontColor=#232F3E;gradientColor=none;fillColor=#FFFFFF;strokeColor=none;dashed=0;verticalLabelPosition=bottom;verticalAlign=top;align=center;html=1;fontSize=12;fontStyle=0;aspect=fixed;pointerEvents=1;shape=mxgraph.aws4.gear;rounded=1;" vertex="1" parent="B4N4aQDUJcZZaR4VZE6Q-215">
          <mxGeometry x="286" y="11" width="17" height="17" as="geometry" />
        </mxCell>
        <mxCell id="B4N4aQDUJcZZaR4VZE6Q-218" value="Сгенерировать отчёт по продажам" style="text;html=1;align=center;verticalAlign=middle;whiteSpace=wrap;rounded=1;fontSize=13;fontColor=#FFFFFF;strokeColor=none;" vertex="1" parent="B4N4aQDUJcZZaR4VZE6Q-215">
          <mxGeometry x="6" y="4.5" width="226" height="30" as="geometry" />
        </mxCell>
        <mxCell id="B4N4aQDUJcZZaR4VZE6Q-219" value="" style="group" vertex="1" connectable="0" parent="1">
          <mxGeometry x="-174.5" y="588" width="309" height="39" as="geometry" />
        </mxCell>
        <mxCell id="B4N4aQDUJcZZaR4VZE6Q-220" value="" style="rounded=1;whiteSpace=wrap;html=1;fillColor=#1C57CD;strokeColor=none;" vertex="1" parent="B4N4aQDUJcZZaR4VZE6Q-219">
          <mxGeometry width="309" height="39" as="geometry" />
        </mxCell>
        <mxCell id="B4N4aQDUJcZZaR4VZE6Q-221" value="" style="sketch=0;outlineConnect=0;fontColor=#232F3E;gradientColor=none;fillColor=#FFFFFF;strokeColor=none;dashed=0;verticalLabelPosition=bottom;verticalAlign=top;align=center;html=1;fontSize=12;fontStyle=0;aspect=fixed;pointerEvents=1;shape=mxgraph.aws4.gear;rounded=1;" vertex="1" parent="B4N4aQDUJcZZaR4VZE6Q-219">
          <mxGeometry x="286" y="11" width="17" height="17" as="geometry" />
        </mxCell>
        <mxCell id="B4N4aQDUJcZZaR4VZE6Q-222" value="Отобразить статистику заказов" style="text;html=1;align=center;verticalAlign=middle;whiteSpace=wrap;rounded=1;fontSize=13;fontColor=#FFFFFF;strokeColor=none;" vertex="1" parent="B4N4aQDUJcZZaR4VZE6Q-219">
          <mxGeometry x="6.5" y="4.5" width="202" height="30" as="geometry" />
        </mxCell>
        <mxCell id="B4N4aQDUJcZZaR4VZE6Q-227" value="" style="group" vertex="1" connectable="0" parent="1">
          <mxGeometry x="-170" y="253" width="309" height="39" as="geometry" />
        </mxCell>
        <mxCell id="B4N4aQDUJcZZaR4VZE6Q-228" value="" style="rounded=1;whiteSpace=wrap;html=1;fillColor=#1C57CD;strokeColor=none;" vertex="1" parent="B4N4aQDUJcZZaR4VZE6Q-227">
          <mxGeometry width="309" height="39" as="geometry" />
        </mxCell>
        <mxCell id="B4N4aQDUJcZZaR4VZE6Q-229" value="" style="sketch=0;outlineConnect=0;fontColor=#232F3E;gradientColor=none;fillColor=#FFFFFF;strokeColor=none;dashed=0;verticalLabelPosition=bottom;verticalAlign=top;align=center;html=1;fontSize=12;fontStyle=0;aspect=fixed;pointerEvents=1;shape=mxgraph.aws4.gear;rounded=1;" vertex="1" parent="B4N4aQDUJcZZaR4VZE6Q-227">
          <mxGeometry x="280" y="11" width="17" height="17" as="geometry" />
        </mxCell>
        <mxCell id="B4N4aQDUJcZZaR4VZE6Q-230" value="Обновление ставок аукциона" style="text;html=1;align=center;verticalAlign=middle;whiteSpace=wrap;rounded=1;fontSize=13;fontColor=#FFFFFF;strokeColor=none;" vertex="1" parent="B4N4aQDUJcZZaR4VZE6Q-227">
          <mxGeometry y="4.5" width="202" height="30" as="geometry" />
        </mxCell>
        <mxCell id="B4N4aQDUJcZZaR4VZE6Q-231" value="" style="group" vertex="1" connectable="0" parent="1">
          <mxGeometry x="-174.5" y="738" width="309" height="39" as="geometry" />
        </mxCell>
        <mxCell id="B4N4aQDUJcZZaR4VZE6Q-232" value="" style="rounded=1;whiteSpace=wrap;html=1;fillColor=#1C57CD;strokeColor=none;" vertex="1" parent="B4N4aQDUJcZZaR4VZE6Q-231">
          <mxGeometry width="309" height="39" as="geometry" />
        </mxCell>
        <mxCell id="B4N4aQDUJcZZaR4VZE6Q-233" value="" style="sketch=0;outlineConnect=0;fontColor=#232F3E;gradientColor=none;fillColor=#FFFFFF;strokeColor=none;dashed=0;verticalLabelPosition=bottom;verticalAlign=top;align=center;html=1;fontSize=12;fontStyle=0;aspect=fixed;pointerEvents=1;shape=mxgraph.aws4.gear;rounded=1;" vertex="1" parent="B4N4aQDUJcZZaR4VZE6Q-231">
          <mxGeometry x="280" y="11" width="17" height="17" as="geometry" />
        </mxCell>
        <mxCell id="B4N4aQDUJcZZaR4VZE6Q-234" value="Сгенерировать отчёт активности пользователей" style="text;html=1;align=center;verticalAlign=middle;whiteSpace=wrap;rounded=1;fontSize=13;fontColor=#FFFFFF;strokeColor=none;" vertex="1" parent="B4N4aQDUJcZZaR4VZE6Q-231">
          <mxGeometry x="5" y="6" width="215" height="30" as="geometry" />
        </mxCell>
        <mxCell id="B4N4aQDUJcZZaR4VZE6Q-235" value="" style="group" vertex="1" connectable="0" parent="1">
          <mxGeometry x="-149" y="1197" width="309" height="39" as="geometry" />
        </mxCell>
        <mxCell id="B4N4aQDUJcZZaR4VZE6Q-236" value="" style="rounded=1;whiteSpace=wrap;html=1;fillColor=#1C57CD;strokeColor=none;" vertex="1" parent="B4N4aQDUJcZZaR4VZE6Q-235">
          <mxGeometry width="309" height="39" as="geometry" />
        </mxCell>
        <mxCell id="B4N4aQDUJcZZaR4VZE6Q-237" value="" style="sketch=0;outlineConnect=0;fontColor=#232F3E;gradientColor=none;fillColor=#FFFFFF;strokeColor=none;dashed=0;verticalLabelPosition=bottom;verticalAlign=top;align=center;html=1;fontSize=12;fontStyle=0;aspect=fixed;pointerEvents=1;shape=mxgraph.aws4.gear;rounded=1;" vertex="1" parent="B4N4aQDUJcZZaR4VZE6Q-235">
          <mxGeometry x="280" y="11" width="17" height="17" as="geometry" />
        </mxCell>
        <mxCell id="B4N4aQDUJcZZaR4VZE6Q-238" value="Обновление статуса заявки" style="text;html=1;align=center;verticalAlign=middle;whiteSpace=wrap;rounded=1;fontSize=13;fontColor=#FFFFFF;strokeColor=none;" vertex="1" parent="B4N4aQDUJcZZaR4VZE6Q-235">
          <mxGeometry x="8" y="4" width="176" height="30" as="geometry" />
        </mxCell>
        <mxCell id="B4N4aQDUJcZZaR4VZE6Q-239" value="" style="group" vertex="1" connectable="0" parent="1">
          <mxGeometry x="-149" y="1152" width="309" height="39" as="geometry" />
        </mxCell>
        <mxCell id="B4N4aQDUJcZZaR4VZE6Q-240" value="" style="rounded=1;whiteSpace=wrap;html=1;fillColor=#1C57CD;strokeColor=none;" vertex="1" parent="B4N4aQDUJcZZaR4VZE6Q-239">
          <mxGeometry width="309" height="39" as="geometry" />
        </mxCell>
        <mxCell id="B4N4aQDUJcZZaR4VZE6Q-241" value="" style="sketch=0;outlineConnect=0;fontColor=#232F3E;gradientColor=none;fillColor=#FFFFFF;strokeColor=none;dashed=0;verticalLabelPosition=bottom;verticalAlign=top;align=center;html=1;fontSize=12;fontStyle=0;aspect=fixed;pointerEvents=1;shape=mxgraph.aws4.gear;rounded=1;" vertex="1" parent="B4N4aQDUJcZZaR4VZE6Q-239">
          <mxGeometry x="280" y="11" width="17" height="17" as="geometry" />
        </mxCell>
        <mxCell id="B4N4aQDUJcZZaR4VZE6Q-242" value="Регистрация заявки на техподдержку" style="text;html=1;align=center;verticalAlign=middle;whiteSpace=wrap;rounded=1;fontSize=13;fontColor=#FFFFFF;strokeColor=none;" vertex="1" parent="B4N4aQDUJcZZaR4VZE6Q-239">
          <mxGeometry x="4" y="4.5" width="249" height="30" as="geometry" />
        </mxCell>
        <mxCell id="B4N4aQDUJcZZaR4VZE6Q-243" value="" style="group" vertex="1" connectable="0" parent="1">
          <mxGeometry x="-149" y="1106" width="309" height="39" as="geometry" />
        </mxCell>
        <mxCell id="B4N4aQDUJcZZaR4VZE6Q-244" value="" style="rounded=1;whiteSpace=wrap;html=1;fillColor=#1C57CD;strokeColor=none;" vertex="1" parent="B4N4aQDUJcZZaR4VZE6Q-243">
          <mxGeometry width="309" height="39" as="geometry" />
        </mxCell>
        <mxCell id="B4N4aQDUJcZZaR4VZE6Q-245" value="" style="sketch=0;outlineConnect=0;fontColor=#232F3E;gradientColor=none;fillColor=#FFFFFF;strokeColor=none;dashed=0;verticalLabelPosition=bottom;verticalAlign=top;align=center;html=1;fontSize=12;fontStyle=0;aspect=fixed;pointerEvents=1;shape=mxgraph.aws4.gear;rounded=1;" vertex="1" parent="B4N4aQDUJcZZaR4VZE6Q-243">
          <mxGeometry x="280" y="11" width="17" height="17" as="geometry" />
        </mxCell>
        <mxCell id="B4N4aQDUJcZZaR4VZE6Q-246" value="Создать заявку на техподдержку" style="text;html=1;align=center;verticalAlign=middle;whiteSpace=wrap;rounded=1;fontSize=13;fontColor=#FFFFFF;strokeColor=none;" vertex="1" parent="B4N4aQDUJcZZaR4VZE6Q-243">
          <mxGeometry y="4.5" width="230" height="30" as="geometry" />
        </mxCell>
        <mxCell id="B4N4aQDUJcZZaR4VZE6Q-247" value="" style="group" vertex="1" connectable="0" parent="1">
          <mxGeometry x="-149" y="1062" width="309" height="39" as="geometry" />
        </mxCell>
        <mxCell id="B4N4aQDUJcZZaR4VZE6Q-248" value="" style="rounded=1;whiteSpace=wrap;html=1;fillColor=#1C57CD;strokeColor=none;" vertex="1" parent="B4N4aQDUJcZZaR4VZE6Q-247">
          <mxGeometry width="309" height="39" as="geometry" />
        </mxCell>
        <mxCell id="B4N4aQDUJcZZaR4VZE6Q-249" value="" style="sketch=0;outlineConnect=0;fontColor=#232F3E;gradientColor=none;fillColor=#FFFFFF;strokeColor=none;dashed=0;verticalLabelPosition=bottom;verticalAlign=top;align=center;html=1;fontSize=12;fontStyle=0;aspect=fixed;pointerEvents=1;shape=mxgraph.aws4.gear;rounded=1;" vertex="1" parent="B4N4aQDUJcZZaR4VZE6Q-247">
          <mxGeometry x="280" y="11" width="17" height="17" as="geometry" />
        </mxCell>
        <mxCell id="B4N4aQDUJcZZaR4VZE6Q-250" value="Обновить статус заявки на апелляцию" style="text;html=1;align=center;verticalAlign=middle;whiteSpace=wrap;rounded=1;fontSize=13;fontColor=#FFFFFF;strokeColor=none;" vertex="1" parent="B4N4aQDUJcZZaR4VZE6Q-247">
          <mxGeometry x="3" y="4.5" width="250" height="30" as="geometry" />
        </mxCell>
        <mxCell id="B4N4aQDUJcZZaR4VZE6Q-251" value="" style="group" vertex="1" connectable="0" parent="1">
          <mxGeometry x="-149" y="1017" width="309" height="39" as="geometry" />
        </mxCell>
        <mxCell id="B4N4aQDUJcZZaR4VZE6Q-252" value="" style="rounded=1;whiteSpace=wrap;html=1;fillColor=#1C57CD;strokeColor=none;" vertex="1" parent="B4N4aQDUJcZZaR4VZE6Q-251">
          <mxGeometry width="309" height="39" as="geometry" />
        </mxCell>
        <mxCell id="B4N4aQDUJcZZaR4VZE6Q-253" value="" style="sketch=0;outlineConnect=0;fontColor=#232F3E;gradientColor=none;fillColor=#FFFFFF;strokeColor=none;dashed=0;verticalLabelPosition=bottom;verticalAlign=top;align=center;html=1;fontSize=12;fontStyle=0;aspect=fixed;pointerEvents=1;shape=mxgraph.aws4.gear;rounded=1;" vertex="1" parent="B4N4aQDUJcZZaR4VZE6Q-251">
          <mxGeometry x="280" y="11" width="17" height="17" as="geometry" />
        </mxCell>
        <mxCell id="B4N4aQDUJcZZaR4VZE6Q-254" value="Регистрация заявки на апелляцию" style="text;html=1;align=center;verticalAlign=middle;whiteSpace=wrap;rounded=1;fontSize=13;fontColor=#FFFFFF;strokeColor=none;" vertex="1" parent="B4N4aQDUJcZZaR4VZE6Q-251">
          <mxGeometry x="1" y="4.5" width="227" height="30" as="geometry" />
        </mxCell>
        <mxCell id="B4N4aQDUJcZZaR4VZE6Q-255" value="" style="group" vertex="1" connectable="0" parent="1">
          <mxGeometry x="-149" y="970" width="309" height="39" as="geometry" />
        </mxCell>
        <mxCell id="B4N4aQDUJcZZaR4VZE6Q-256" value="" style="rounded=1;whiteSpace=wrap;html=1;fillColor=#1C57CD;strokeColor=none;" vertex="1" parent="B4N4aQDUJcZZaR4VZE6Q-255">
          <mxGeometry width="309" height="39" as="geometry" />
        </mxCell>
        <mxCell id="B4N4aQDUJcZZaR4VZE6Q-257" value="" style="sketch=0;outlineConnect=0;fontColor=#232F3E;gradientColor=none;fillColor=#FFFFFF;strokeColor=none;dashed=0;verticalLabelPosition=bottom;verticalAlign=top;align=center;html=1;fontSize=12;fontStyle=0;aspect=fixed;pointerEvents=1;shape=mxgraph.aws4.gear;rounded=1;" vertex="1" parent="B4N4aQDUJcZZaR4VZE6Q-255">
          <mxGeometry x="280" y="11" width="17" height="17" as="geometry" />
        </mxCell>
        <mxCell id="B4N4aQDUJcZZaR4VZE6Q-258" value="Создать заявку на апелляцию&amp;nbsp;" style="text;html=1;align=center;verticalAlign=middle;whiteSpace=wrap;rounded=1;fontSize=13;fontColor=#FFFFFF;strokeColor=none;" vertex="1" parent="B4N4aQDUJcZZaR4VZE6Q-255">
          <mxGeometry x="4" y="4.5" width="202" height="30" as="geometry" />
        </mxCell>
        <mxCell id="B4N4aQDUJcZZaR4VZE6Q-259" value="" style="group" vertex="1" connectable="0" parent="1">
          <mxGeometry x="1590" y="128" width="309" height="39" as="geometry" />
        </mxCell>
        <mxCell id="B4N4aQDUJcZZaR4VZE6Q-260" value="" style="rounded=1;whiteSpace=wrap;html=1;fillColor=#1C57CD;strokeColor=none;" vertex="1" parent="B4N4aQDUJcZZaR4VZE6Q-259">
          <mxGeometry width="309" height="39" as="geometry" />
        </mxCell>
        <mxCell id="B4N4aQDUJcZZaR4VZE6Q-261" value="" style="sketch=0;outlineConnect=0;fontColor=#232F3E;gradientColor=none;fillColor=#FFFFFF;strokeColor=none;dashed=0;verticalLabelPosition=bottom;verticalAlign=top;align=center;html=1;fontSize=12;fontStyle=0;aspect=fixed;pointerEvents=1;shape=mxgraph.aws4.gear;rounded=1;" vertex="1" parent="B4N4aQDUJcZZaR4VZE6Q-259">
          <mxGeometry x="280" y="11" width="17" height="17" as="geometry" />
        </mxCell>
        <mxCell id="B4N4aQDUJcZZaR4VZE6Q-262" value="Предоставить статус операции" style="text;html=1;align=center;verticalAlign=middle;whiteSpace=wrap;rounded=1;fontSize=13;fontColor=#FFFFFF;strokeColor=none;" vertex="1" parent="B4N4aQDUJcZZaR4VZE6Q-259">
          <mxGeometry y="4.5" width="207" height="30" as="geometry" />
        </mxCell>
        <mxCell id="B4N4aQDUJcZZaR4VZE6Q-263" value="" style="group" vertex="1" connectable="0" parent="1">
          <mxGeometry x="1590" y="78" width="309" height="39" as="geometry" />
        </mxCell>
        <mxCell id="B4N4aQDUJcZZaR4VZE6Q-264" value="" style="rounded=1;whiteSpace=wrap;html=1;fillColor=#1C57CD;strokeColor=none;" vertex="1" parent="B4N4aQDUJcZZaR4VZE6Q-263">
          <mxGeometry width="309" height="39" as="geometry" />
        </mxCell>
        <mxCell id="B4N4aQDUJcZZaR4VZE6Q-265" value="" style="sketch=0;outlineConnect=0;fontColor=#232F3E;gradientColor=none;fillColor=#FFFFFF;strokeColor=none;dashed=0;verticalLabelPosition=bottom;verticalAlign=top;align=center;html=1;fontSize=12;fontStyle=0;aspect=fixed;pointerEvents=1;shape=mxgraph.aws4.gear;rounded=1;" vertex="1" parent="B4N4aQDUJcZZaR4VZE6Q-263">
          <mxGeometry x="280" y="11" width="17" height="17" as="geometry" />
        </mxCell>
        <mxCell id="B4N4aQDUJcZZaR4VZE6Q-266" value="Запросить статус операции" style="text;html=1;align=center;verticalAlign=middle;whiteSpace=wrap;rounded=1;fontSize=13;fontColor=#FFFFFF;strokeColor=none;" vertex="1" parent="B4N4aQDUJcZZaR4VZE6Q-263">
          <mxGeometry x="3" y="6" width="179" height="30" as="geometry" />
        </mxCell>
        <mxCell id="B4N4aQDUJcZZaR4VZE6Q-267" value="" style="group" vertex="1" connectable="0" parent="1">
          <mxGeometry x="1590" y="32" width="309" height="39" as="geometry" />
        </mxCell>
        <mxCell id="B4N4aQDUJcZZaR4VZE6Q-268" value="" style="rounded=1;whiteSpace=wrap;html=1;fillColor=#1C57CD;strokeColor=none;" vertex="1" parent="B4N4aQDUJcZZaR4VZE6Q-267">
          <mxGeometry width="309" height="39" as="geometry" />
        </mxCell>
        <mxCell id="B4N4aQDUJcZZaR4VZE6Q-269" value="" style="sketch=0;outlineConnect=0;fontColor=#232F3E;gradientColor=none;fillColor=#FFFFFF;strokeColor=none;dashed=0;verticalLabelPosition=bottom;verticalAlign=top;align=center;html=1;fontSize=12;fontStyle=0;aspect=fixed;pointerEvents=1;shape=mxgraph.aws4.gear;rounded=1;" vertex="1" parent="B4N4aQDUJcZZaR4VZE6Q-267">
          <mxGeometry x="280" y="11" width="17" height="17" as="geometry" />
        </mxCell>
        <mxCell id="B4N4aQDUJcZZaR4VZE6Q-270" value="Инициировать отмену транзакции" style="text;html=1;align=center;verticalAlign=middle;whiteSpace=wrap;rounded=1;fontSize=13;fontColor=#FFFFFF;strokeColor=none;" vertex="1" parent="B4N4aQDUJcZZaR4VZE6Q-267">
          <mxGeometry x="2" y="4" width="223" height="30" as="geometry" />
        </mxCell>
        <mxCell id="B4N4aQDUJcZZaR4VZE6Q-271" value="" style="group" vertex="1" connectable="0" parent="1">
          <mxGeometry x="1590" y="-15" width="309" height="39" as="geometry" />
        </mxCell>
        <mxCell id="B4N4aQDUJcZZaR4VZE6Q-272" value="" style="rounded=1;whiteSpace=wrap;html=1;fillColor=#1C57CD;strokeColor=none;" vertex="1" parent="B4N4aQDUJcZZaR4VZE6Q-271">
          <mxGeometry width="309" height="39" as="geometry" />
        </mxCell>
        <mxCell id="B4N4aQDUJcZZaR4VZE6Q-273" value="" style="sketch=0;outlineConnect=0;fontColor=#232F3E;gradientColor=none;fillColor=#FFFFFF;strokeColor=none;dashed=0;verticalLabelPosition=bottom;verticalAlign=top;align=center;html=1;fontSize=12;fontStyle=0;aspect=fixed;pointerEvents=1;shape=mxgraph.aws4.gear;rounded=1;" vertex="1" parent="B4N4aQDUJcZZaR4VZE6Q-271">
          <mxGeometry x="280" y="11" width="17" height="17" as="geometry" />
        </mxCell>
        <mxCell id="B4N4aQDUJcZZaR4VZE6Q-274" value="Предоставить список и статус операций" style="text;html=1;align=center;verticalAlign=middle;whiteSpace=wrap;rounded=1;fontSize=13;fontColor=#FFFFFF;strokeColor=none;" vertex="1" parent="B4N4aQDUJcZZaR4VZE6Q-271">
          <mxGeometry y="4.5" width="263" height="30" as="geometry" />
        </mxCell>
        <mxCell id="B4N4aQDUJcZZaR4VZE6Q-275" value="" style="group" vertex="1" connectable="0" parent="1">
          <mxGeometry x="1583" y="-61" width="316" height="39" as="geometry" />
        </mxCell>
        <mxCell id="B4N4aQDUJcZZaR4VZE6Q-276" value="" style="rounded=1;whiteSpace=wrap;html=1;fillColor=#1C57CD;strokeColor=none;" vertex="1" parent="B4N4aQDUJcZZaR4VZE6Q-275">
          <mxGeometry x="7" width="309" height="39" as="geometry" />
        </mxCell>
        <mxCell id="B4N4aQDUJcZZaR4VZE6Q-277" value="" style="sketch=0;outlineConnect=0;fontColor=#232F3E;gradientColor=none;fillColor=#FFFFFF;strokeColor=none;dashed=0;verticalLabelPosition=bottom;verticalAlign=top;align=center;html=1;fontSize=12;fontStyle=0;aspect=fixed;pointerEvents=1;shape=mxgraph.aws4.gear;rounded=1;" vertex="1" parent="B4N4aQDUJcZZaR4VZE6Q-275">
          <mxGeometry x="287" y="11" width="17" height="17" as="geometry" />
        </mxCell>
        <mxCell id="B4N4aQDUJcZZaR4VZE6Q-278" value="Авторизация платёжной операции" style="text;html=1;align=center;verticalAlign=middle;whiteSpace=wrap;rounded=1;fontSize=13;fontColor=#FFFFFF;strokeColor=none;" vertex="1" parent="B4N4aQDUJcZZaR4VZE6Q-275">
          <mxGeometry y="4.5" width="243" height="30" as="geometry" />
        </mxCell>
        <mxCell id="B4N4aQDUJcZZaR4VZE6Q-279" value="" style="group" vertex="1" connectable="0" parent="1">
          <mxGeometry x="1590" y="-105" width="309" height="39" as="geometry" />
        </mxCell>
        <mxCell id="B4N4aQDUJcZZaR4VZE6Q-280" value="" style="rounded=1;whiteSpace=wrap;html=1;fillColor=#1C57CD;strokeColor=none;" vertex="1" parent="B4N4aQDUJcZZaR4VZE6Q-279">
          <mxGeometry width="309" height="39" as="geometry" />
        </mxCell>
        <mxCell id="B4N4aQDUJcZZaR4VZE6Q-281" value="" style="sketch=0;outlineConnect=0;fontColor=#232F3E;gradientColor=none;fillColor=#FFFFFF;strokeColor=none;dashed=0;verticalLabelPosition=bottom;verticalAlign=top;align=center;html=1;fontSize=12;fontStyle=0;aspect=fixed;pointerEvents=1;shape=mxgraph.aws4.gear;rounded=1;" vertex="1" parent="B4N4aQDUJcZZaR4VZE6Q-279">
          <mxGeometry x="280" y="11" width="17" height="17" as="geometry" />
        </mxCell>
        <mxCell id="B4N4aQDUJcZZaR4VZE6Q-282" value="Учёт платёжной операции" style="text;html=1;align=center;verticalAlign=middle;whiteSpace=wrap;rounded=1;fontSize=13;fontColor=#FFFFFF;strokeColor=none;" vertex="1" parent="B4N4aQDUJcZZaR4VZE6Q-279">
          <mxGeometry x="5" y="4.5" width="173" height="30" as="geometry" />
        </mxCell>
        <mxCell id="B4N4aQDUJcZZaR4VZE6Q-283" value="" style="group" vertex="1" connectable="0" parent="1">
          <mxGeometry x="1593.5" y="-150" width="309" height="39" as="geometry" />
        </mxCell>
        <mxCell id="B4N4aQDUJcZZaR4VZE6Q-284" value="" style="rounded=1;whiteSpace=wrap;html=1;fillColor=#1C57CD;strokeColor=none;" vertex="1" parent="B4N4aQDUJcZZaR4VZE6Q-283">
          <mxGeometry x="-3.5" width="309" height="39" as="geometry" />
        </mxCell>
        <mxCell id="B4N4aQDUJcZZaR4VZE6Q-285" value="" style="sketch=0;outlineConnect=0;fontColor=#232F3E;gradientColor=none;fillColor=#FFFFFF;strokeColor=none;dashed=0;verticalLabelPosition=bottom;verticalAlign=top;align=center;html=1;fontSize=12;fontStyle=0;aspect=fixed;pointerEvents=1;shape=mxgraph.aws4.gear;rounded=1;" vertex="1" parent="B4N4aQDUJcZZaR4VZE6Q-283">
          <mxGeometry x="280" y="11" width="17" height="17" as="geometry" />
        </mxCell>
        <mxCell id="B4N4aQDUJcZZaR4VZE6Q-286" value="Инициировать платёжную операцию" style="text;html=1;align=center;verticalAlign=middle;whiteSpace=wrap;rounded=1;fontSize=13;fontColor=#FFFFFF;strokeColor=none;" vertex="1" parent="B4N4aQDUJcZZaR4VZE6Q-283">
          <mxGeometry y="4.5" width="243" height="30" as="geometry" />
        </mxCell>
        <mxCell id="B4N4aQDUJcZZaR4VZE6Q-483" value="Профиль и авторизация" style="text;html=1;align=center;verticalAlign=middle;whiteSpace=wrap;rounded=1;shadow=0;fontSize=23;fontStyle=1" vertex="1" parent="1">
          <mxGeometry x="-205" y="-820" width="380" height="49" as="geometry" />
        </mxCell>
        <mxCell id="B4N4aQDUJcZZaR4VZE6Q-521" value="" style="rounded=1;whiteSpace=wrap;html=1;fillColor=#1C57CD;strokeColor=none;" vertex="1" parent="1">
          <mxGeometry x="1570" y="-787" width="309" height="39" as="geometry" />
        </mxCell>
        <mxCell id="B4N4aQDUJcZZaR4VZE6Q-522" value="" style="sketch=0;outlineConnect=0;fontColor=#232F3E;gradientColor=none;fillColor=default;strokeColor=none;dashed=0;verticalLabelPosition=bottom;verticalAlign=top;align=center;html=1;fontSize=12;fontStyle=0;aspect=fixed;pointerEvents=1;shape=mxgraph.aws4.gear;rounded=1;" vertex="1" parent="1">
          <mxGeometry x="1850" y="-776" width="17" height="17" as="geometry" />
        </mxCell>
        <mxCell id="B4N4aQDUJcZZaR4VZE6Q-523" value="Нотификация нового пользователя" style="text;html=1;align=center;verticalAlign=middle;whiteSpace=wrap;rounded=1;fontSize=13;fontColor=#FFFFFF;strokeColor=none;" vertex="1" parent="1">
          <mxGeometry x="1573" y="-782.5" width="227" height="30" as="geometry" />
        </mxCell>
        <mxCell id="B4N4aQDUJcZZaR4VZE6Q-526" value="Услуги" style="text;html=1;align=center;verticalAlign=middle;whiteSpace=wrap;rounded=1;shadow=0;fontSize=23;fontStyle=1" vertex="1" parent="1">
          <mxGeometry x="-215" y="-1571" width="380" height="49" as="geometry" />
        </mxCell>
        <mxCell id="B4N4aQDUJcZZaR4VZE6Q-530" value="Товары" style="text;html=1;align=center;verticalAlign=middle;whiteSpace=wrap;rounded=1;shadow=0;fontSize=23;fontStyle=1" vertex="1" parent="1">
          <mxGeometry x="-204.25" y="-1193" width="380" height="49" as="geometry" />
        </mxCell>
        <mxCell id="B4N4aQDUJcZZaR4VZE6Q-532" value="Аукцион" style="text;html=1;align=center;verticalAlign=middle;whiteSpace=wrap;rounded=1;shadow=0;fontSize=23;fontStyle=1" vertex="1" parent="1">
          <mxGeometry x="-200" y="10.5" width="380" height="49" as="geometry" />
        </mxCell>
        <mxCell id="B4N4aQDUJcZZaR4VZE6Q-534" value="Платеж" style="text;html=1;align=center;verticalAlign=middle;whiteSpace=wrap;rounded=1;shadow=0;fontSize=23;fontStyle=1" vertex="1" parent="1">
          <mxGeometry x="1553" y="-250" width="380" height="49" as="geometry" />
        </mxCell>
        <mxCell id="B4N4aQDUJcZZaR4VZE6Q-536" value="Статистика и отчеты" style="text;html=1;align=center;verticalAlign=middle;whiteSpace=wrap;rounded=1;shadow=0;fontSize=23;fontStyle=1" vertex="1" parent="1">
          <mxGeometry x="-200" y="528" width="380" height="49" as="geometry" />
        </mxCell>
        <mxCell id="B4N4aQDUJcZZaR4VZE6Q-538" value="Саппорт" style="text;html=1;align=center;verticalAlign=middle;whiteSpace=wrap;rounded=1;shadow=0;fontSize=23;fontStyle=1" vertex="1" parent="1">
          <mxGeometry x="-185" y="919" width="380" height="49" as="geometry" />
        </mxCell>
        <mxCell id="B4N4aQDUJcZZaR4VZE6Q-539" value="" style="strokeWidth=2;html=1;shape=mxgraph.flowchart.database;whiteSpace=wrap;rounded=1;movable=1;resizable=1;rotatable=1;deletable=1;editable=1;locked=0;connectable=1;" vertex="1" parent="1">
          <mxGeometry x="203" y="-800" width="337" height="287.5" as="geometry" />
        </mxCell>
        <mxCell id="B4N4aQDUJcZZaR4VZE6Q-542" value="&lt;p style=&quot;margin: 0px 0px 0px 13px; text-indent: -13px; font-variant-numeric: normal; font-variant-east-asian: normal; font-variant-alternates: normal; font-kerning: auto; font-optical-sizing: auto; font-feature-settings: normal; font-variation-settings: normal; font-variant-position: normal; font-stretch: normal; line-height: normal; color: rgb(14, 14, 14); text-align: start;&quot; class=&quot;p1&quot;&gt;&lt;font face=&quot;Times New Roman&quot;&gt;&lt;span style=&quot;font-size: 14px;&quot;&gt;JWT&lt;/span&gt;&lt;/font&gt;&lt;/p&gt;" style="rounded=1;whiteSpace=wrap;html=1;fillColor=#b1ddf0;strokeColor=#10739e;" vertex="1" parent="1">
          <mxGeometry x="248" y="-637.0999999999999" width="49" height="21" as="geometry" />
        </mxCell>
        <mxCell id="B4N4aQDUJcZZaR4VZE6Q-543" value="&lt;p style=&quot;margin: 0px 0px 0px 13px; text-indent: -13px; font-variant-numeric: normal; font-variant-east-asian: normal; font-variant-alternates: normal; font-kerning: auto; font-optical-sizing: auto; font-feature-settings: normal; font-variation-settings: normal; font-variant-position: normal; font-stretch: normal; font-size: 14px; line-height: normal; color: rgb(14, 14, 14); text-align: start;&quot; class=&quot;p1&quot;&gt;&lt;font face=&quot;Times New Roman&quot;&gt;Пользователь.Роль&lt;/font&gt;&lt;/p&gt;" style="rounded=1;whiteSpace=wrap;html=1;fillColor=#b1ddf0;strokeColor=#10739e;" vertex="1" parent="1">
          <mxGeometry x="248" y="-607.5999999999999" width="151" height="21" as="geometry" />
        </mxCell>
        <mxCell id="B4N4aQDUJcZZaR4VZE6Q-544" value="&lt;p style=&quot;margin: 0px 0px 0px 13px; text-indent: -13px; font-variant-numeric: normal; font-variant-east-asian: normal; font-variant-alternates: normal; font-kerning: auto; font-optical-sizing: auto; font-feature-settings: normal; font-variation-settings: normal; font-variant-position: normal; font-stretch: normal; font-size: 14px; line-height: normal; color: rgb(14, 14, 14); text-align: start;&quot; class=&quot;p1&quot;&gt;&lt;font face=&quot;Times New Roman&quot;&gt;Пользователь.ID&lt;/font&gt;&lt;/p&gt;" style="rounded=1;whiteSpace=wrap;html=1;fillColor=#b1ddf0;strokeColor=#10739e;" vertex="1" parent="1">
          <mxGeometry x="248" y="-579.6" width="151" height="21" as="geometry" />
        </mxCell>
        <mxCell id="B4N4aQDUJcZZaR4VZE6Q-545" value="&lt;p style=&quot;margin: 0px 0px 0px 13px; text-indent: -13px; font-variant-numeric: normal; font-variant-east-asian: normal; font-variant-alternates: normal; font-kerning: auto; font-optical-sizing: auto; font-feature-settings: normal; font-variation-settings: normal; font-variant-position: normal; font-stretch: normal; font-size: 14px; line-height: normal; color: rgb(14, 14, 14); text-align: start;&quot; class=&quot;p1&quot;&gt;&lt;font face=&quot;Times New Roman&quot;&gt;Пользователь.Имя&lt;/font&gt;&lt;/p&gt;" style="rounded=1;whiteSpace=wrap;html=1;fillColor=#b1ddf0;strokeColor=#10739e;" vertex="1" parent="1">
          <mxGeometry x="190" y="-658.0999999999999" width="119" height="21" as="geometry" />
        </mxCell>
        <mxCell id="B4N4aQDUJcZZaR4VZE6Q-546" value="&lt;p style=&quot;margin: 0px 0px 0px 13px; text-indent: -13px; font-variant-numeric: normal; font-variant-east-asian: normal; font-variant-alternates: normal; font-kerning: auto; font-optical-sizing: auto; font-feature-settings: normal; font-variation-settings: normal; font-variant-position: normal; font-stretch: normal; font-size: 14px; line-height: normal; color: rgb(14, 14, 14); text-align: start;&quot; class=&quot;p1&quot;&gt;&lt;font face=&quot;Times New Roman&quot;&gt;Пользователь.Фамилия&lt;/font&gt;&lt;/p&gt;" style="rounded=1;whiteSpace=wrap;html=1;fillColor=#b1ddf0;strokeColor=#10739e;" vertex="1" parent="1">
          <mxGeometry x="248" y="-552.6" width="151" height="21" as="geometry" />
        </mxCell>
        <mxCell id="B4N4aQDUJcZZaR4VZE6Q-547" value="&lt;p style=&quot;margin: 0px 0px 0px 13px; text-indent: -13px; font-variant-numeric: normal; font-variant-east-asian: normal; font-variant-alternates: normal; font-kerning: auto; font-optical-sizing: auto; font-feature-settings: normal; font-variation-settings: normal; font-variant-position: normal; font-stretch: normal; font-size: 14px; line-height: normal; color: rgb(14, 14, 14); text-align: start;&quot; class=&quot;p1&quot;&gt;&lt;font face=&quot;Times New Roman&quot;&gt;Пользователь.Адрес&lt;/font&gt;&lt;/p&gt;" style="rounded=1;whiteSpace=wrap;html=1;fillColor=#b1ddf0;strokeColor=#10739e;" vertex="1" parent="1">
          <mxGeometry x="408" y="-698.0999999999999" width="130" height="21" as="geometry" />
        </mxCell>
        <mxCell id="B4N4aQDUJcZZaR4VZE6Q-548" value="&lt;p style=&quot;margin: 0px 0px 0px 13px; text-indent: -13px; font-variant-numeric: normal; font-variant-east-asian: normal; font-variant-alternates: normal; font-kerning: auto; font-optical-sizing: auto; font-feature-settings: normal; font-variation-settings: normal; font-variant-position: normal; font-stretch: normal; font-size: 14px; line-height: normal; color: rgb(14, 14, 14); text-align: start;&quot; class=&quot;p1&quot;&gt;&lt;font face=&quot;Times New Roman&quot;&gt;Пользователь.Дата регистрации&lt;/font&gt;&lt;/p&gt;" style="rounded=1;whiteSpace=wrap;html=1;fillColor=#b1ddf0;strokeColor=#10739e;" vertex="1" parent="1">
          <mxGeometry x="399" y="-663.5999999999999" width="199" height="21" as="geometry" />
        </mxCell>
        <mxCell id="B4N4aQDUJcZZaR4VZE6Q-549" value="&lt;p style=&quot;margin: 0px 0px 0px 13px; text-indent: -13px; font-variant-numeric: normal; font-variant-east-asian: normal; font-variant-alternates: normal; font-kerning: auto; font-optical-sizing: auto; font-feature-settings: normal; font-variation-settings: normal; font-variant-position: normal; font-stretch: normal; font-size: 14px; line-height: normal; color: rgb(14, 14, 14); text-align: start;&quot; class=&quot;p1&quot;&gt;&lt;font face=&quot;Times New Roman&quot;&gt;Пользователь.Статус&lt;/font&gt;&lt;/p&gt;" style="rounded=1;whiteSpace=wrap;html=1;fillColor=#b1ddf0;strokeColor=#10739e;" vertex="1" parent="1">
          <mxGeometry x="405" y="-608.3499999999999" width="136" height="21" as="geometry" />
        </mxCell>
        <mxCell id="B4N4aQDUJcZZaR4VZE6Q-550" value="&lt;p style=&quot;margin: 0px 0px 0px 13px; text-indent: -13px; font-variant-numeric: normal; font-variant-east-asian: normal; font-variant-alternates: normal; font-kerning: auto; font-optical-sizing: auto; font-feature-settings: normal; font-variation-settings: normal; font-variant-position: normal; font-stretch: normal; font-size: 14px; line-height: normal; color: rgb(14, 14, 14); text-align: start;&quot; class=&quot;p1&quot;&gt;&lt;font face=&quot;Times New Roman&quot;&gt;Пользователь.Электронная почта&lt;/font&gt;&lt;/p&gt;" style="rounded=1;whiteSpace=wrap;html=1;fillColor=#b1ddf0;strokeColor=#10739e;" vertex="1" parent="1">
          <mxGeometry x="202" y="-731.0999999999999" width="209" height="21" as="geometry" />
        </mxCell>
        <mxCell id="B4N4aQDUJcZZaR4VZE6Q-551" value="&lt;p style=&quot;margin: 0px 0px 0px 13px; text-indent: -13px; font-variant-numeric: normal; font-variant-east-asian: normal; font-variant-alternates: normal; font-kerning: auto; font-optical-sizing: auto; font-feature-settings: normal; font-variation-settings: normal; font-variant-position: normal; font-stretch: normal; font-size: 14px; line-height: normal; color: rgb(14, 14, 14); text-align: start;&quot; class=&quot;p1&quot;&gt;&lt;font face=&quot;Times New Roman&quot;&gt;Пользователь.Номер телефона&lt;/font&gt;&lt;/p&gt;" style="rounded=1;whiteSpace=wrap;html=1;fillColor=#b1ddf0;strokeColor=#10739e;" vertex="1" parent="1">
          <mxGeometry x="405" y="-580.35" width="190" height="21" as="geometry" />
        </mxCell>
        <mxCell id="B4N4aQDUJcZZaR4VZE6Q-554" value="&lt;p style=&quot;margin: 0px 0px 0px 13px; text-indent: -13px; font-variant-numeric: normal; font-variant-east-asian: normal; font-variant-alternates: normal; font-kerning: auto; font-optical-sizing: auto; font-feature-settings: normal; font-variation-settings: normal; font-variant-position: normal; font-stretch: normal; font-size: 14px; line-height: normal; color: rgb(14, 14, 14); text-align: start;&quot; class=&quot;p1&quot;&gt;&lt;font face=&quot;Times New Roman&quot;&gt;Пользователь.Активен&lt;/font&gt;&lt;/p&gt;" style="rounded=1;whiteSpace=wrap;html=1;fillColor=#b1ddf0;strokeColor=#10739e;" vertex="1" parent="1">
          <mxGeometry x="301" y="-637.0999999999999" width="147" height="21" as="geometry" />
        </mxCell>
        <mxCell id="B4N4aQDUJcZZaR4VZE6Q-563" value="" style="group" vertex="1" connectable="0" parent="1">
          <mxGeometry x="254" y="-790" width="151" height="49" as="geometry" />
        </mxCell>
        <mxCell id="B4N4aQDUJcZZaR4VZE6Q-564" value="&lt;p style=&quot;margin: 0px 0px 0px 13px; text-indent: -13px; font-variant-numeric: normal; font-variant-east-asian: normal; font-variant-alternates: normal; font-kerning: auto; font-optical-sizing: auto; font-feature-settings: normal; font-variation-settings: normal; font-variant-position: normal; font-stretch: normal; font-size: 14px; line-height: normal; color: rgb(14, 14, 14); text-align: start;&quot; class=&quot;p1&quot;&gt;&lt;br&gt;&lt;/p&gt;" style="rounded=1;whiteSpace=wrap;html=1;fillColor=#FF77BF;strokeColor=none;arcSize=50;" vertex="1" parent="B4N4aQDUJcZZaR4VZE6Q-563">
          <mxGeometry y="9" width="151" height="33" as="geometry" />
        </mxCell>
        <mxCell id="B4N4aQDUJcZZaR4VZE6Q-565" value="&lt;font style=&quot;font-size: 18px;&quot;&gt;&lt;i&gt;PostgreSQL&lt;/i&gt;&lt;/font&gt;" style="text;html=1;align=center;verticalAlign=middle;whiteSpace=wrap;rounded=1;shadow=0;fontSize=23;fontStyle=1" vertex="1" parent="B4N4aQDUJcZZaR4VZE6Q-563">
          <mxGeometry x="30" width="91" height="49" as="geometry" />
        </mxCell>
        <mxCell id="B4N4aQDUJcZZaR4VZE6Q-567" value="&lt;span style=&quot;font-size: 12px;&quot;&gt;Поток 3. Регистрация пользователя&lt;/span&gt;" style="edgeLabel;html=1;align=center;verticalAlign=middle;resizable=0;points=[];rounded=1;" vertex="1" connectable="0" parent="1">
          <mxGeometry x="-350.00230861230654" y="-811.1038929969027" as="geometry" />
        </mxCell>
        <mxCell id="B4N4aQDUJcZZaR4VZE6Q-568" value="&lt;font style=&quot;font-size: 12px;&quot;&gt;[Персональные данные]&lt;/font&gt;" style="text;html=1;align=center;verticalAlign=middle;whiteSpace=wrap;rounded=1;fontSize=13;labelBackgroundColor=none;fontColor=#B8B8B8;" vertex="1" parent="1">
          <mxGeometry x="-425.21000000000004" y="-800" width="160" height="30" as="geometry" />
        </mxCell>
        <mxCell id="B4N4aQDUJcZZaR4VZE6Q-572" value="&lt;span style=&quot;font-size: 12px;&quot;&gt;Поток 4. Валидация токена&lt;/span&gt;" style="edgeLabel;html=1;align=center;verticalAlign=middle;resizable=0;points=[];rounded=1;" vertex="1" connectable="0" parent="1">
          <mxGeometry x="-323.00230861230654" y="-720.6038929969027" as="geometry" />
        </mxCell>
        <mxCell id="B4N4aQDUJcZZaR4VZE6Q-573" value="&lt;span style=&quot;font-size: 12px;&quot;&gt;[JWT]&lt;/span&gt;" style="text;html=1;align=center;verticalAlign=middle;whiteSpace=wrap;rounded=1;fontSize=13;labelBackgroundColor=none;fontColor=#B8B8B8;" vertex="1" parent="1">
          <mxGeometry x="-403" y="-702" width="160" height="30" as="geometry" />
        </mxCell>
        <mxCell id="B4N4aQDUJcZZaR4VZE6Q-576" value="&lt;span style=&quot;font-size: 12px;&quot;&gt;Поток 5. Аутентификация&lt;/span&gt;" style="edgeLabel;html=1;align=center;verticalAlign=middle;resizable=0;points=[];rounded=1;" vertex="1" connectable="0" parent="1">
          <mxGeometry x="-329.00230861230654" y="-626.6038929969027" as="geometry" />
        </mxCell>
        <mxCell id="B4N4aQDUJcZZaR4VZE6Q-577" value="&lt;span style=&quot;font-size: 12px;&quot;&gt;[Логин, пароль]&lt;/span&gt;" style="text;html=1;align=center;verticalAlign=middle;whiteSpace=wrap;rounded=1;fontSize=13;labelBackgroundColor=none;fontColor=#B8B8B8;" vertex="1" parent="1">
          <mxGeometry x="-403" y="-614" width="160" height="30" as="geometry" />
        </mxCell>
        <mxCell id="B4N4aQDUJcZZaR4VZE6Q-578" value="&lt;p style=&quot;margin: 0px 0px 0px 13px; text-indent: -13px; font-variant-numeric: normal; font-variant-east-asian: normal; font-variant-alternates: normal; font-kerning: auto; font-optical-sizing: auto; font-feature-settings: normal; font-variation-settings: normal; font-variant-position: normal; font-stretch: normal; font-size: 14px; line-height: normal; color: rgb(14, 14, 14); text-align: start;&quot; class=&quot;p1&quot;&gt;&lt;font face=&quot;Times New Roman&quot;&gt;Пользователь.логин&lt;/font&gt;&lt;/p&gt;" style="rounded=1;whiteSpace=wrap;html=1;fillColor=#b1ddf0;strokeColor=#10739e;" vertex="1" parent="1">
          <mxGeometry x="190" y="-704.0999999999999" width="209" height="21" as="geometry" />
        </mxCell>
        <mxCell id="B4N4aQDUJcZZaR4VZE6Q-579" value="&lt;p style=&quot;margin: 0px 0px 0px 13px; text-indent: -13px; font-variant-numeric: normal; font-variant-east-asian: normal; font-variant-alternates: normal; font-kerning: auto; font-optical-sizing: auto; font-feature-settings: normal; font-variation-settings: normal; font-variant-position: normal; font-stretch: normal; font-size: 14px; line-height: normal; color: rgb(14, 14, 14); text-align: start;&quot; class=&quot;p1&quot;&gt;&lt;font face=&quot;Times New Roman&quot;&gt;Пользователь.пароль&lt;/font&gt;&lt;/p&gt;" style="rounded=1;whiteSpace=wrap;html=1;fillColor=#b1ddf0;strokeColor=#10739e;" vertex="1" parent="1">
          <mxGeometry x="190" y="-677.0999999999999" width="209" height="21" as="geometry" />
        </mxCell>
        <mxCell id="B4N4aQDUJcZZaR4VZE6Q-581" value="" style="group" vertex="1" connectable="0" parent="1">
          <mxGeometry x="-1500" y="-1630" width="155" height="49.5" as="geometry" />
        </mxCell>
        <mxCell id="B4N4aQDUJcZZaR4VZE6Q-582" value="&lt;p style=&quot;margin: 0px 0px 0px 13px; text-indent: -13px; font-variant-numeric: normal; font-variant-east-asian: normal; font-variant-alternates: normal; font-kerning: auto; font-optical-sizing: auto; font-feature-settings: normal; font-variation-settings: normal; font-variant-position: normal; font-stretch: normal; font-size: 14px; line-height: normal; color: rgb(14, 14, 14); text-align: start;&quot; class=&quot;p1&quot;&gt;&lt;br&gt;&lt;/p&gt;" style="rounded=1;whiteSpace=wrap;html=1;fillColor=#FF77BF;strokeColor=none;arcSize=33;" vertex="1" parent="B4N4aQDUJcZZaR4VZE6Q-581">
          <mxGeometry y="13.132653061224488" width="155" height="34.3469387755102" as="geometry" />
        </mxCell>
        <mxCell id="B4N4aQDUJcZZaR4VZE6Q-583" value="&lt;font style=&quot;font-size: 18px;&quot;&gt;&lt;i&gt;React/HTML/CSS&lt;/i&gt;&lt;/font&gt;" style="text;html=1;align=center;verticalAlign=middle;whiteSpace=wrap;rounded=1;shadow=0;fontSize=23;fontStyle=1" vertex="1" parent="B4N4aQDUJcZZaR4VZE6Q-581">
          <mxGeometry x="29" width="89" height="49.49999999999999" as="geometry" />
        </mxCell>
        <mxCell id="B4N4aQDUJcZZaR4VZE6Q-585" value="&lt;p style=&quot;margin: 0px 0px 0px 13px; text-indent: -13px; font-variant-numeric: normal; font-variant-east-asian: normal; font-variant-alternates: normal; font-kerning: auto; font-optical-sizing: auto; font-feature-settings: normal; font-variation-settings: normal; font-variant-position: normal; font-stretch: normal; font-size: 14px; line-height: normal; color: rgb(14, 14, 14); text-align: start;&quot; class=&quot;p1&quot;&gt;&lt;br&gt;&lt;/p&gt;" style="rounded=1;whiteSpace=wrap;html=1;fillColor=#FF77BF;strokeColor=none;arcSize=33;" vertex="1" parent="1">
          <mxGeometry x="-230" y="-842.1" width="151" height="31" as="geometry" />
        </mxCell>
        <mxCell id="B4N4aQDUJcZZaR4VZE6Q-586" value="&lt;font style=&quot;font-size: 18px;&quot;&gt;&lt;i&gt;Django/Python&lt;/i&gt;&lt;/font&gt;" style="text;html=1;align=center;verticalAlign=middle;whiteSpace=wrap;rounded=1;shadow=0;fontSize=23;fontStyle=1" vertex="1" parent="1">
          <mxGeometry x="-200" y="-847.1" width="89" height="36" as="geometry" />
        </mxCell>
        <mxCell id="B4N4aQDUJcZZaR4VZE6Q-589" value="&lt;span style=&quot;font-size: 12px;&quot;&gt;Поток 6. Работа с заказом&lt;/span&gt;" style="edgeLabel;html=1;align=center;verticalAlign=middle;resizable=0;points=[];rounded=1;" vertex="1" connectable="0" parent="1">
          <mxGeometry x="-313.00230861230654" y="-272.50389299690266" as="geometry" />
        </mxCell>
        <mxCell id="B4N4aQDUJcZZaR4VZE6Q-590" value="&lt;span style=&quot;font-size: 12px;&quot;&gt;[CRUD заказа]&lt;/span&gt;" style="text;html=1;align=center;verticalAlign=middle;whiteSpace=wrap;rounded=1;fontSize=13;labelBackgroundColor=none;fontColor=#B8B8B8;" vertex="1" parent="1">
          <mxGeometry x="-393" y="-258" width="160" height="30" as="geometry" />
        </mxCell>
        <mxCell id="B4N4aQDUJcZZaR4VZE6Q-592" value="&lt;span style=&quot;font-size: 12px;&quot;&gt;Поток 7. Работа с аукционом&lt;/span&gt;" style="edgeLabel;html=1;align=center;verticalAlign=middle;resizable=0;points=[];rounded=1;" vertex="1" connectable="0" parent="1">
          <mxGeometry x="-323.00230861230654" y="256.49610700309734" as="geometry" />
        </mxCell>
        <mxCell id="B4N4aQDUJcZZaR4VZE6Q-593" value="&lt;span style=&quot;font-size: 12px;&quot;&gt;[CRUD аукциона]&lt;/span&gt;" style="text;html=1;align=center;verticalAlign=middle;whiteSpace=wrap;rounded=1;fontSize=13;labelBackgroundColor=none;fontColor=#B8B8B8;" vertex="1" parent="1">
          <mxGeometry x="-393" y="276.5" width="160" height="30" as="geometry" />
        </mxCell>
        <mxCell id="B4N4aQDUJcZZaR4VZE6Q-594" value="" style="strokeWidth=2;html=1;shape=mxgraph.flowchart.database;whiteSpace=wrap;rounded=1;movable=1;resizable=1;rotatable=1;deletable=1;editable=1;locked=0;connectable=1;" vertex="1" parent="1">
          <mxGeometry x="176" y="-327.5" width="220" height="179" as="geometry" />
        </mxCell>
        <mxCell id="B4N4aQDUJcZZaR4VZE6Q-621" value="" style="strokeWidth=2;html=1;shape=mxgraph.flowchart.database;whiteSpace=wrap;rounded=1;movable=1;resizable=1;rotatable=1;deletable=1;editable=1;locked=0;connectable=1;" vertex="1" parent="1">
          <mxGeometry x="163" y="85.25" width="236" height="273.5" as="geometry" />
        </mxCell>
        <mxCell id="B4N4aQDUJcZZaR4VZE6Q-622" value="&lt;p style=&quot;margin: 0px 0px 0px 13px; text-indent: -13px; font-variant-numeric: normal; font-variant-east-asian: normal; font-variant-alternates: normal; font-kerning: auto; font-optical-sizing: auto; font-feature-settings: normal; font-variation-settings: normal; font-variant-position: normal; font-stretch: normal; font-size: 14px; line-height: normal; color: rgb(14, 14, 14); text-align: start;&quot; class=&quot;p1&quot;&gt;&lt;font face=&quot;Times New Roman&quot;&gt;Заявка на аукцион.ID&lt;/font&gt;&lt;/p&gt;" style="rounded=1;whiteSpace=wrap;html=1;fillColor=#b1ddf0;strokeColor=#10739e;" vertex="1" parent="1">
          <mxGeometry x="219" y="235.5" width="151" height="21" as="geometry" />
        </mxCell>
        <mxCell id="B4N4aQDUJcZZaR4VZE6Q-645" value="" style="group" vertex="1" connectable="0" parent="1">
          <mxGeometry x="219" y="108.75" width="151" height="49" as="geometry" />
        </mxCell>
        <mxCell id="B4N4aQDUJcZZaR4VZE6Q-646" value="&lt;p style=&quot;margin: 0px 0px 0px 13px; text-indent: -13px; font-variant-numeric: normal; font-variant-east-asian: normal; font-variant-alternates: normal; font-kerning: auto; font-optical-sizing: auto; font-feature-settings: normal; font-variation-settings: normal; font-variant-position: normal; font-stretch: normal; font-size: 14px; line-height: normal; color: rgb(14, 14, 14); text-align: start;&quot; class=&quot;p1&quot;&gt;&lt;br&gt;&lt;/p&gt;" style="rounded=1;whiteSpace=wrap;html=1;fillColor=#FF77BF;strokeColor=none;arcSize=50;" vertex="1" parent="B4N4aQDUJcZZaR4VZE6Q-645">
          <mxGeometry y="9" width="151" height="33" as="geometry" />
        </mxCell>
        <mxCell id="B4N4aQDUJcZZaR4VZE6Q-647" value="&lt;font style=&quot;font-size: 18px;&quot;&gt;&lt;i&gt;PostgreSQL&lt;/i&gt;&lt;/font&gt;" style="text;html=1;align=center;verticalAlign=middle;whiteSpace=wrap;rounded=1;shadow=0;fontSize=23;fontStyle=1" vertex="1" parent="B4N4aQDUJcZZaR4VZE6Q-645">
          <mxGeometry x="31" width="89" height="49" as="geometry" />
        </mxCell>
        <mxCell id="B4N4aQDUJcZZaR4VZE6Q-648" value="&lt;p style=&quot;margin: 0px 0px 0px 13px; text-indent: -13px; font-variant-numeric: normal; font-variant-east-asian: normal; font-variant-alternates: normal; font-kerning: auto; font-optical-sizing: auto; font-feature-settings: normal; font-variation-settings: normal; font-variant-position: normal; font-stretch: normal; line-height: normal; color: rgb(14, 14, 14); text-align: start;&quot; class=&quot;p1&quot;&gt;&lt;font style=&quot;font-size: 14px;&quot; face=&quot;Times New Roman&quot;&gt;Заявка на регистрацию&lt;/font&gt;&lt;/p&gt;" style="rounded=1;whiteSpace=wrap;html=1;fillColor=#b1ddf0;strokeColor=#10739e;" vertex="1" parent="1">
          <mxGeometry x="401" y="-552.6" width="150" height="21" as="geometry" />
        </mxCell>
        <mxCell id="B4N4aQDUJcZZaR4VZE6Q-650" value="" style="group" vertex="1" connectable="0" parent="1">
          <mxGeometry x="216" y="-321.5" width="151" height="49" as="geometry" />
        </mxCell>
        <mxCell id="B4N4aQDUJcZZaR4VZE6Q-651" value="&lt;p style=&quot;margin: 0px 0px 0px 13px; text-indent: -13px; font-variant-numeric: normal; font-variant-east-asian: normal; font-variant-alternates: normal; font-kerning: auto; font-optical-sizing: auto; font-feature-settings: normal; font-variation-settings: normal; font-variant-position: normal; font-stretch: normal; font-size: 14px; line-height: normal; color: rgb(14, 14, 14); text-align: start;&quot; class=&quot;p1&quot;&gt;&lt;br&gt;&lt;/p&gt;" style="rounded=1;whiteSpace=wrap;html=1;fillColor=#FF77BF;strokeColor=none;arcSize=50;" vertex="1" parent="B4N4aQDUJcZZaR4VZE6Q-650">
          <mxGeometry y="9" width="151" height="33" as="geometry" />
        </mxCell>
        <mxCell id="B4N4aQDUJcZZaR4VZE6Q-652" value="&lt;font style=&quot;font-size: 18px;&quot;&gt;&lt;i&gt;PostgreSQL&lt;/i&gt;&lt;/font&gt;" style="text;html=1;align=center;verticalAlign=middle;whiteSpace=wrap;rounded=1;shadow=0;fontSize=23;fontStyle=1" vertex="1" parent="B4N4aQDUJcZZaR4VZE6Q-650">
          <mxGeometry x="31" width="89" height="49" as="geometry" />
        </mxCell>
        <mxCell id="B4N4aQDUJcZZaR4VZE6Q-654" value="" style="strokeWidth=2;html=1;shape=mxgraph.flowchart.database;whiteSpace=wrap;rounded=1;movable=1;resizable=1;rotatable=1;deletable=1;editable=1;locked=0;connectable=1;" vertex="1" parent="1">
          <mxGeometry x="175" y="598" width="220" height="179" as="geometry" />
        </mxCell>
        <mxCell id="B4N4aQDUJcZZaR4VZE6Q-655" value="" style="group" vertex="1" connectable="0" parent="1">
          <mxGeometry x="215" y="604" width="151" height="49" as="geometry" />
        </mxCell>
        <mxCell id="B4N4aQDUJcZZaR4VZE6Q-656" value="&lt;p style=&quot;margin: 0px 0px 0px 13px; text-indent: -13px; font-variant-numeric: normal; font-variant-east-asian: normal; font-variant-alternates: normal; font-kerning: auto; font-optical-sizing: auto; font-feature-settings: normal; font-variation-settings: normal; font-variant-position: normal; font-stretch: normal; font-size: 14px; line-height: normal; color: rgb(14, 14, 14); text-align: start;&quot; class=&quot;p1&quot;&gt;&lt;br&gt;&lt;/p&gt;" style="rounded=1;whiteSpace=wrap;html=1;fillColor=#FF77BF;strokeColor=none;arcSize=50;" vertex="1" parent="B4N4aQDUJcZZaR4VZE6Q-655">
          <mxGeometry y="9" width="151" height="33" as="geometry" />
        </mxCell>
        <mxCell id="B4N4aQDUJcZZaR4VZE6Q-657" value="&lt;font style=&quot;font-size: 18px;&quot;&gt;&lt;i&gt;PostgreSQL&lt;/i&gt;&lt;/font&gt;" style="text;html=1;align=center;verticalAlign=middle;whiteSpace=wrap;rounded=1;shadow=0;fontSize=23;fontStyle=1" vertex="1" parent="B4N4aQDUJcZZaR4VZE6Q-655">
          <mxGeometry x="31" width="89" height="49" as="geometry" />
        </mxCell>
        <mxCell id="B4N4aQDUJcZZaR4VZE6Q-679" style="edgeStyle=orthogonalEdgeStyle;rounded=0;orthogonalLoop=1;jettySize=auto;html=1;entryX=0;entryY=0.5;entryDx=0;entryDy=0;strokeColor=#FF6666;" edge="1" parent="1" target="B4N4aQDUJcZZaR4VZE6Q-665">
          <mxGeometry relative="1" as="geometry">
            <mxPoint x="1250" y="-640" as="sourcePoint" />
          </mxGeometry>
        </mxCell>
        <mxCell id="B4N4aQDUJcZZaR4VZE6Q-693" style="edgeStyle=orthogonalEdgeStyle;rounded=0;orthogonalLoop=1;jettySize=auto;html=1;exitX=0.017;exitY=0.612;exitDx=0;exitDy=0;exitPerimeter=0;entryX=1.002;entryY=0.85;entryDx=0;entryDy=0;entryPerimeter=0;strokeColor=#FF6666;" edge="1" parent="1" source="B4N4aQDUJcZZaR4VZE6Q-658" target="B4N4aQDUJcZZaR4VZE6Q-535">
          <mxGeometry relative="1" as="geometry">
            <mxPoint x="460" y="770" as="targetPoint" />
          </mxGeometry>
        </mxCell>
        <mxCell id="B4N4aQDUJcZZaR4VZE6Q-658" value="" style="rounded=1;whiteSpace=wrap;html=1;arcSize=50;fillColor=#f5f5f5;strokeColor=#FF6666;strokeWidth=3;align=center;verticalAlign=middle;fontFamily=Helvetica;fontSize=12;fontColor=#333333;resizable=1;" vertex="1" parent="1">
          <mxGeometry x="1060" y="-891" width="180" height="2721" as="geometry" />
        </mxCell>
        <mxCell id="B4N4aQDUJcZZaR4VZE6Q-659" style="edgeStyle=orthogonalEdgeStyle;rounded=0;orthogonalLoop=1;jettySize=auto;html=1;exitX=1;exitY=0.25;exitDx=0;exitDy=0;entryX=-0.028;entryY=0.055;entryDx=0;entryDy=0;entryPerimeter=0;strokeColor=#FF6666;" edge="1" parent="1" source="B4N4aQDUJcZZaR4VZE6Q-482" target="B4N4aQDUJcZZaR4VZE6Q-658">
          <mxGeometry relative="1" as="geometry">
            <mxPoint x="1050" y="-740" as="targetPoint" />
          </mxGeometry>
        </mxCell>
        <mxCell id="B4N4aQDUJcZZaR4VZE6Q-660" value="&lt;span style=&quot;font-size: 12px;&quot;&gt;Поток 11. Нотификация пользователя&lt;/span&gt;" style="edgeLabel;html=1;align=center;verticalAlign=middle;resizable=0;points=[];rounded=1;" vertex="1" connectable="0" parent="1">
          <mxGeometry x="819.9976913876935" y="-780.0038929969027" as="geometry" />
        </mxCell>
        <mxCell id="B4N4aQDUJcZZaR4VZE6Q-661" value="&lt;span style=&quot;font-size: 12px;&quot;&gt;&amp;nbsp; [Данные для нотификации]&lt;/span&gt;" style="text;html=1;align=center;verticalAlign=middle;whiteSpace=wrap;rounded=1;fontSize=13;labelBackgroundColor=none;fontColor=#B8B8B8;" vertex="1" parent="1">
          <mxGeometry x="730" y="-768" width="180" height="30" as="geometry" />
        </mxCell>
        <mxCell id="B4N4aQDUJcZZaR4VZE6Q-663" value="&lt;p style=&quot;margin: 0px 0px 0px 13px; text-indent: -13px; font-variant-numeric: normal; font-variant-east-asian: normal; font-variant-alternates: normal; font-kerning: auto; font-optical-sizing: auto; font-feature-settings: normal; font-variation-settings: normal; font-variant-position: normal; font-stretch: normal; font-size: 14px; line-height: normal; color: rgb(14, 14, 14); text-align: start;&quot; class=&quot;p1&quot;&gt;&lt;br&gt;&lt;/p&gt;" style="rounded=1;whiteSpace=wrap;html=1;fillColor=#FF77BF;strokeColor=none;arcSize=50;" vertex="1" parent="1">
          <mxGeometry x="1074.5" y="-911" width="151" height="33" as="geometry" />
        </mxCell>
        <mxCell id="B4N4aQDUJcZZaR4VZE6Q-664" value="&lt;span style=&quot;font-size: 18px;&quot;&gt;&lt;i&gt;Kafka&lt;/i&gt;&lt;/span&gt;" style="text;html=1;align=center;verticalAlign=middle;whiteSpace=wrap;rounded=1;shadow=0;fontSize=23;fontStyle=1" vertex="1" parent="1">
          <mxGeometry x="1104.5" y="-920" width="91" height="49" as="geometry" />
        </mxCell>
        <mxCell id="B4N4aQDUJcZZaR4VZE6Q-666" value="Сервис нотификации" style="text;html=1;align=center;verticalAlign=middle;whiteSpace=wrap;rounded=1;shadow=0;fontSize=23;fontStyle=1" vertex="1" parent="1">
          <mxGeometry x="1580" y="-847.1" width="380" height="49" as="geometry" />
        </mxCell>
        <mxCell id="B4N4aQDUJcZZaR4VZE6Q-672" value="" style="strokeWidth=2;html=1;shape=mxgraph.flowchart.database;whiteSpace=wrap;rounded=1;movable=1;resizable=1;rotatable=1;deletable=1;editable=1;locked=0;connectable=1;" vertex="1" parent="1">
          <mxGeometry x="1740" y="-614" width="220" height="179" as="geometry" />
        </mxCell>
        <mxCell id="B4N4aQDUJcZZaR4VZE6Q-673" value="" style="group" vertex="1" connectable="0" parent="1">
          <mxGeometry x="1780" y="-608" width="151" height="49" as="geometry" />
        </mxCell>
        <mxCell id="B4N4aQDUJcZZaR4VZE6Q-674" value="&lt;p style=&quot;margin: 0px 0px 0px 13px; text-indent: -13px; font-variant-numeric: normal; font-variant-east-asian: normal; font-variant-alternates: normal; font-kerning: auto; font-optical-sizing: auto; font-feature-settings: normal; font-variation-settings: normal; font-variant-position: normal; font-stretch: normal; font-size: 14px; line-height: normal; color: rgb(14, 14, 14); text-align: start;&quot; class=&quot;p1&quot;&gt;&lt;br&gt;&lt;/p&gt;" style="rounded=1;whiteSpace=wrap;html=1;fillColor=#FF77BF;strokeColor=none;arcSize=50;" vertex="1" parent="B4N4aQDUJcZZaR4VZE6Q-673">
          <mxGeometry y="9" width="151" height="33" as="geometry" />
        </mxCell>
        <mxCell id="B4N4aQDUJcZZaR4VZE6Q-675" value="&lt;font style=&quot;font-size: 18px;&quot;&gt;&lt;i&gt;PostgreSQL&lt;/i&gt;&lt;/font&gt;" style="text;html=1;align=center;verticalAlign=middle;whiteSpace=wrap;rounded=1;shadow=0;fontSize=23;fontStyle=1" vertex="1" parent="B4N4aQDUJcZZaR4VZE6Q-673">
          <mxGeometry x="31" width="89" height="49" as="geometry" />
        </mxCell>
        <mxCell id="B4N4aQDUJcZZaR4VZE6Q-677" value="&lt;span style=&quot;font-size: 12px;&quot;&gt;Поток 16. Нотификация о заказе&lt;/span&gt;" style="edgeLabel;html=1;align=center;verticalAlign=middle;resizable=0;points=[];rounded=1;" vertex="1" connectable="0" parent="1">
          <mxGeometry x="736.9976913876935" y="-258.00389299690266" as="geometry" />
        </mxCell>
        <mxCell id="B4N4aQDUJcZZaR4VZE6Q-678" value="&lt;span style=&quot;font-size: 12px;&quot;&gt;&amp;nbsp; [Данные для нотификации]&lt;/span&gt;" style="text;html=1;align=center;verticalAlign=middle;whiteSpace=wrap;rounded=1;fontSize=13;labelBackgroundColor=none;fontColor=#B8B8B8;" vertex="1" parent="1">
          <mxGeometry x="647" y="-253" width="180" height="30" as="geometry" />
        </mxCell>
        <mxCell id="B4N4aQDUJcZZaR4VZE6Q-201" value="" style="sketch=0;outlineConnect=0;fontColor=#232F3E;gradientColor=none;fillColor=#FFFFFF;strokeColor=none;dashed=0;verticalLabelPosition=bottom;verticalAlign=top;align=center;html=1;fontSize=12;fontStyle=0;aspect=fixed;pointerEvents=1;shape=mxgraph.aws4.gear;rounded=1;" vertex="1" parent="1">
          <mxGeometry x="1856" y="-666" width="17" height="17" as="geometry" />
        </mxCell>
        <mxCell id="B4N4aQDUJcZZaR4VZE6Q-200" value="" style="rounded=1;whiteSpace=wrap;html=1;fillColor=#1C57CD;strokeColor=none;" vertex="1" parent="1">
          <mxGeometry x="1570" y="-677" width="309" height="39" as="geometry" />
        </mxCell>
        <mxCell id="B4N4aQDUJcZZaR4VZE6Q-202" value="Нотификация участника аукциона" style="text;html=1;align=center;verticalAlign=middle;whiteSpace=wrap;rounded=1;fontSize=13;fontColor=#FFFFFF;strokeColor=none;" vertex="1" parent="1">
          <mxGeometry x="1573" y="-672.5" width="218" height="30" as="geometry" />
        </mxCell>
        <mxCell id="B4N4aQDUJcZZaR4VZE6Q-224" value="" style="rounded=1;whiteSpace=wrap;html=1;fillColor=#1C57CD;strokeColor=none;" vertex="1" parent="1">
          <mxGeometry x="-170" y="306.5" width="309" height="39" as="geometry" />
        </mxCell>
        <mxCell id="B4N4aQDUJcZZaR4VZE6Q-226" value="Обновление статуса аукциона" style="text;html=1;align=center;verticalAlign=middle;whiteSpace=wrap;rounded=1;fontSize=13;fontColor=#FFFFFF;strokeColor=none;" vertex="1" parent="1">
          <mxGeometry x="-170" y="311" width="202" height="30" as="geometry" />
        </mxCell>
        <mxCell id="B4N4aQDUJcZZaR4VZE6Q-225" value="" style="sketch=0;outlineConnect=0;fontColor=#232F3E;gradientColor=none;fillColor=#FFFFFF;strokeColor=none;dashed=0;verticalLabelPosition=bottom;verticalAlign=top;align=center;html=1;fontSize=12;fontStyle=0;aspect=fixed;pointerEvents=1;shape=mxgraph.aws4.gear;rounded=1;" vertex="1" parent="1">
          <mxGeometry x="110" y="317.5" width="17" height="17" as="geometry" />
        </mxCell>
        <mxCell id="B4N4aQDUJcZZaR4VZE6Q-682" value="&lt;span style=&quot;font-size: 12px;&quot;&gt;Поток 22. Подписка на нотификации&lt;/span&gt;" style="edgeLabel;html=1;align=center;verticalAlign=middle;resizable=0;points=[];rounded=1;" vertex="1" connectable="0" parent="1">
          <mxGeometry x="1409.9976913876935" y="-691.5038929969027" as="geometry" />
        </mxCell>
        <mxCell id="B4N4aQDUJcZZaR4VZE6Q-683" value="&lt;span style=&quot;font-size: 12px;&quot;&gt;&amp;nbsp; [Данные для нотификации]&lt;/span&gt;" style="text;html=1;align=center;verticalAlign=middle;whiteSpace=wrap;rounded=1;fontSize=13;labelBackgroundColor=none;fontColor=#B8B8B8;" vertex="1" parent="1">
          <mxGeometry x="1310" y="-681.6" width="180" height="30" as="geometry" />
        </mxCell>
        <mxCell id="B4N4aQDUJcZZaR4VZE6Q-684" style="edgeStyle=orthogonalEdgeStyle;rounded=0;orthogonalLoop=1;jettySize=auto;html=1;strokeColor=#FF6666;" edge="1" parent="1" source="B4N4aQDUJcZZaR4VZE6Q-531">
          <mxGeometry relative="1" as="geometry">
            <mxPoint x="1050" y="185" as="targetPoint" />
          </mxGeometry>
        </mxCell>
        <mxCell id="B4N4aQDUJcZZaR4VZE6Q-685" value="&lt;span style=&quot;font-size: 12px;&quot;&gt;Поток 19. Нотификация о аукционе&lt;/span&gt;" style="edgeLabel;html=1;align=center;verticalAlign=middle;resizable=0;points=[];rounded=1;" vertex="1" connectable="0" parent="1">
          <mxGeometry x="736.9976913876935" y="145.99610700309734" as="geometry" />
        </mxCell>
        <mxCell id="B4N4aQDUJcZZaR4VZE6Q-686" value="&lt;span style=&quot;font-size: 12px;&quot;&gt;&amp;nbsp; [Данные для нотификации]&lt;/span&gt;" style="text;html=1;align=center;verticalAlign=middle;whiteSpace=wrap;rounded=1;fontSize=13;labelBackgroundColor=none;fontColor=#B8B8B8;" vertex="1" parent="1">
          <mxGeometry x="647" y="154.5" width="180" height="30" as="geometry" />
        </mxCell>
        <mxCell id="B4N4aQDUJcZZaR4VZE6Q-689" value="&lt;span style=&quot;font-size: 12px;&quot;&gt;Поток 20. Запрос на получение отчета&lt;/span&gt;" style="edgeLabel;html=1;align=center;verticalAlign=middle;resizable=0;points=[];rounded=1;" vertex="1" connectable="0" parent="1">
          <mxGeometry x="759.9976913876935" y="534.4961070030973" as="geometry" />
        </mxCell>
        <mxCell id="B4N4aQDUJcZZaR4VZE6Q-690" value="&lt;span style=&quot;font-size: 12px;&quot;&gt;Поток 21. Подписка на отчеты&lt;/span&gt;" style="edgeLabel;html=1;align=center;verticalAlign=middle;resizable=0;points=[];rounded=1;" vertex="1" connectable="0" parent="1">
          <mxGeometry x="759.9976913876935" y="726.7461070030973" as="geometry" />
        </mxCell>
        <mxCell id="B4N4aQDUJcZZaR4VZE6Q-691" value="&lt;span style=&quot;font-size: 12px;&quot;&gt;&amp;nbsp;[Тип, фильтрация, сортировка]&lt;/span&gt;" style="text;html=1;align=center;verticalAlign=middle;whiteSpace=wrap;rounded=1;fontSize=13;labelBackgroundColor=none;fontColor=#B8B8B8;" vertex="1" parent="1">
          <mxGeometry x="670" y="547" width="180" height="30" as="geometry" />
        </mxCell>
        <mxCell id="B4N4aQDUJcZZaR4VZE6Q-692" value="&lt;span style=&quot;font-size: 12px;&quot;&gt;[Готовый отчет]&lt;/span&gt;" style="text;html=1;align=center;verticalAlign=middle;whiteSpace=wrap;rounded=1;fontSize=13;labelBackgroundColor=none;fontColor=#B8B8B8;" vertex="1" parent="1">
          <mxGeometry x="670" y="738" width="180" height="30" as="geometry" />
        </mxCell>
        <mxCell id="B4N4aQDUJcZZaR4VZE6Q-695" value="&lt;span style=&quot;font-size: 12px;&quot;&gt;Поток 14. Подписка на запросы отчетов&lt;/span&gt;" style="edgeLabel;html=1;align=center;verticalAlign=middle;resizable=0;points=[];rounded=1;" vertex="1" connectable="0" parent="1">
          <mxGeometry x="749.9976913876935" y="-450.75389299690266" as="geometry" />
        </mxCell>
        <mxCell id="B4N4aQDUJcZZaR4VZE6Q-696" value="&lt;span style=&quot;font-size: 12px;&quot;&gt;&amp;nbsp;[Тип, фильтрация, сортировка]&lt;/span&gt;" style="text;html=1;align=center;verticalAlign=middle;whiteSpace=wrap;rounded=1;fontSize=13;labelBackgroundColor=none;fontColor=#B8B8B8;" vertex="1" parent="1">
          <mxGeometry x="660" y="-438.25" width="180" height="30" as="geometry" />
        </mxCell>
        <mxCell id="B4N4aQDUJcZZaR4VZE6Q-697" style="edgeStyle=orthogonalEdgeStyle;rounded=0;orthogonalLoop=1;jettySize=auto;html=1;entryX=1.012;entryY=0.161;entryDx=0;entryDy=0;entryPerimeter=0;strokeColor=#FF6666;" edge="1" parent="1" target="B4N4aQDUJcZZaR4VZE6Q-35">
          <mxGeometry relative="1" as="geometry">
            <mxPoint x="1050" y="-400" as="sourcePoint" />
          </mxGeometry>
        </mxCell>
        <mxCell id="B4N4aQDUJcZZaR4VZE6Q-698" style="edgeStyle=orthogonalEdgeStyle;rounded=0;orthogonalLoop=1;jettySize=auto;html=1;exitX=1.004;exitY=0.372;exitDx=0;exitDy=0;exitPerimeter=0;strokeColor=#FF6666;" edge="1" parent="1" source="B4N4aQDUJcZZaR4VZE6Q-35">
          <mxGeometry relative="1" as="geometry">
            <mxPoint x="1059" y="-310" as="targetPoint" />
          </mxGeometry>
        </mxCell>
        <mxCell id="B4N4aQDUJcZZaR4VZE6Q-699" value="&lt;span style=&quot;font-size: 12px;&quot;&gt;Поток 15. Предоставление отчетов&lt;/span&gt;" style="edgeLabel;html=1;align=center;verticalAlign=middle;resizable=0;points=[];rounded=1;" vertex="1" connectable="0" parent="1">
          <mxGeometry x="749.9976913876935" y="-360.50389299690266" as="geometry" />
        </mxCell>
        <mxCell id="B4N4aQDUJcZZaR4VZE6Q-700" value="&lt;span style=&quot;font-size: 12px;&quot;&gt;&amp;nbsp;[Тип, фильтрация, сортировка]&lt;/span&gt;" style="text;html=1;align=center;verticalAlign=middle;whiteSpace=wrap;rounded=1;fontSize=13;labelBackgroundColor=none;fontColor=#B8B8B8;" vertex="1" parent="1">
          <mxGeometry x="660" y="-348" width="180" height="30" as="geometry" />
        </mxCell>
        <mxCell id="B4N4aQDUJcZZaR4VZE6Q-701" value="&lt;span style=&quot;font-size: 12px;&quot;&gt;Поток 12. Подписка на запросы отчетов&lt;/span&gt;" style="edgeLabel;html=1;align=center;verticalAlign=middle;resizable=0;points=[];rounded=1;" vertex="1" connectable="0" parent="1">
          <mxGeometry x="826.9976913876935" y="-721.0038929969027" as="geometry" />
        </mxCell>
        <mxCell id="B4N4aQDUJcZZaR4VZE6Q-702" value="&lt;span style=&quot;font-size: 12px;&quot;&gt;&amp;nbsp;[Тип, фильтрация, сортировка]&lt;/span&gt;" style="text;html=1;align=center;verticalAlign=middle;whiteSpace=wrap;rounded=1;fontSize=13;labelBackgroundColor=none;fontColor=#B8B8B8;" vertex="1" parent="1">
          <mxGeometry x="737" y="-708.5" width="180" height="30" as="geometry" />
        </mxCell>
        <mxCell id="B4N4aQDUJcZZaR4VZE6Q-703" value="&lt;span style=&quot;font-size: 12px;&quot;&gt;Поток 13. Предоставление отчетов&lt;/span&gt;" style="edgeLabel;html=1;align=center;verticalAlign=middle;resizable=0;points=[];rounded=1;" vertex="1" connectable="0" parent="1">
          <mxGeometry x="826.9976913876935" y="-614.0038929969027" as="geometry" />
        </mxCell>
        <mxCell id="B4N4aQDUJcZZaR4VZE6Q-704" value="&lt;span style=&quot;font-size: 12px;&quot;&gt;&amp;nbsp;[Тип, фильтрация, сортировка]&lt;/span&gt;" style="text;html=1;align=center;verticalAlign=middle;whiteSpace=wrap;rounded=1;fontSize=13;labelBackgroundColor=none;fontColor=#B8B8B8;" vertex="1" parent="1">
          <mxGeometry x="737" y="-602.5" width="180" height="30" as="geometry" />
        </mxCell>
        <mxCell id="B4N4aQDUJcZZaR4VZE6Q-705" style="edgeStyle=orthogonalEdgeStyle;rounded=0;orthogonalLoop=1;jettySize=auto;html=1;entryX=0.002;entryY=0.084;entryDx=0;entryDy=0;entryPerimeter=0;strokeColor=#FF6666;" edge="1" parent="1" source="B4N4aQDUJcZZaR4VZE6Q-482" target="B4N4aQDUJcZZaR4VZE6Q-658">
          <mxGeometry relative="1" as="geometry">
            <mxPoint x="1050" y="-660" as="targetPoint" />
          </mxGeometry>
        </mxCell>
        <mxCell id="B4N4aQDUJcZZaR4VZE6Q-706" style="edgeStyle=orthogonalEdgeStyle;rounded=0;orthogonalLoop=1;jettySize=auto;html=1;entryX=-0.028;entryY=0.121;entryDx=0;entryDy=0;entryPerimeter=0;strokeColor=#FF6666;" edge="1" parent="1" source="B4N4aQDUJcZZaR4VZE6Q-482" target="B4N4aQDUJcZZaR4VZE6Q-658">
          <mxGeometry relative="1" as="geometry">
            <mxPoint x="1050" y="-560" as="targetPoint" />
            <Array as="points">
              <mxPoint x="835" y="-560" />
              <mxPoint x="835" y="-562" />
            </Array>
          </mxGeometry>
        </mxCell>
        <mxCell id="B4N4aQDUJcZZaR4VZE6Q-707" style="edgeStyle=orthogonalEdgeStyle;rounded=0;orthogonalLoop=1;jettySize=auto;html=1;entryX=-0.003;entryY=0.538;entryDx=0;entryDy=0;entryPerimeter=0;exitX=1;exitY=0.411;exitDx=0;exitDy=0;exitPerimeter=0;strokeColor=#FF6666;" edge="1" parent="1" source="B4N4aQDUJcZZaR4VZE6Q-1" target="B4N4aQDUJcZZaR4VZE6Q-535">
          <mxGeometry relative="1" as="geometry">
            <Array as="points">
              <mxPoint x="-210" y="678" />
              <mxPoint x="-210" y="673" />
            </Array>
          </mxGeometry>
        </mxCell>
        <mxCell id="B4N4aQDUJcZZaR4VZE6Q-709" value="Поток 8. Запрос на отчет или статистику" style="text;html=1;align=center;verticalAlign=middle;whiteSpace=wrap;rounded=0;" vertex="1" parent="1">
          <mxGeometry x="-440" y="604" width="209.58" height="30" as="geometry" />
        </mxCell>
        <mxCell id="B4N4aQDUJcZZaR4VZE6Q-710" value="&lt;span style=&quot;font-size: 12px;&quot;&gt;&amp;nbsp;[Тип, фильтрация, сортировка]&lt;/span&gt;" style="text;html=1;align=center;verticalAlign=middle;whiteSpace=wrap;rounded=1;fontSize=13;labelBackgroundColor=none;fontColor=#B8B8B8;" vertex="1" parent="1">
          <mxGeometry x="-425.2100000000001" y="642.5" width="180" height="30" as="geometry" />
        </mxCell>
        <mxCell id="B4N4aQDUJcZZaR4VZE6Q-711" style="edgeStyle=orthogonalEdgeStyle;rounded=0;orthogonalLoop=1;jettySize=auto;html=1;exitX=-0.007;exitY=0.92;exitDx=0;exitDy=0;exitPerimeter=0;entryX=0.994;entryY=0.656;entryDx=0;entryDy=0;entryPerimeter=0;strokeColor=#FF6666;" edge="1" parent="1" source="B4N4aQDUJcZZaR4VZE6Q-535" target="B4N4aQDUJcZZaR4VZE6Q-1">
          <mxGeometry relative="1" as="geometry">
            <mxPoint x="-620" y="790" as="targetPoint" />
          </mxGeometry>
        </mxCell>
        <mxCell id="B4N4aQDUJcZZaR4VZE6Q-712" value="Поток 9. Получение отчета" style="text;html=1;align=center;verticalAlign=middle;whiteSpace=wrap;rounded=0;" vertex="1" parent="1">
          <mxGeometry x="-430" y="726.75" width="202" height="30" as="geometry" />
        </mxCell>
        <mxCell id="B4N4aQDUJcZZaR4VZE6Q-713" value="&lt;span style=&quot;font-size: 12px;&quot;&gt;&amp;nbsp;[Отчет]&lt;/span&gt;" style="text;html=1;align=center;verticalAlign=middle;whiteSpace=wrap;rounded=1;fontSize=13;labelBackgroundColor=none;fontColor=#B8B8B8;" vertex="1" parent="1">
          <mxGeometry x="-413.0000000000001" y="756.75" width="180" height="30" as="geometry" />
        </mxCell>
        <mxCell id="B4N4aQDUJcZZaR4VZE6Q-714" value="" style="strokeWidth=2;html=1;shape=mxgraph.flowchart.database;whiteSpace=wrap;rounded=1;movable=1;resizable=1;rotatable=1;deletable=1;editable=1;locked=0;connectable=1;" vertex="1" parent="1">
          <mxGeometry x="188" y="992" width="220" height="179" as="geometry" />
        </mxCell>
        <mxCell id="B4N4aQDUJcZZaR4VZE6Q-715" value="" style="group" vertex="1" connectable="0" parent="1">
          <mxGeometry x="225" y="1000" width="151" height="49" as="geometry" />
        </mxCell>
        <mxCell id="B4N4aQDUJcZZaR4VZE6Q-716" value="&lt;p style=&quot;margin: 0px 0px 0px 13px; text-indent: -13px; font-variant-numeric: normal; font-variant-east-asian: normal; font-variant-alternates: normal; font-kerning: auto; font-optical-sizing: auto; font-feature-settings: normal; font-variation-settings: normal; font-variant-position: normal; font-stretch: normal; font-size: 14px; line-height: normal; color: rgb(14, 14, 14); text-align: start;&quot; class=&quot;p1&quot;&gt;&lt;br&gt;&lt;/p&gt;" style="rounded=1;whiteSpace=wrap;html=1;fillColor=#FF77BF;strokeColor=none;arcSize=50;" vertex="1" parent="B4N4aQDUJcZZaR4VZE6Q-715">
          <mxGeometry y="9" width="151" height="33" as="geometry" />
        </mxCell>
        <mxCell id="B4N4aQDUJcZZaR4VZE6Q-717" value="&lt;font style=&quot;font-size: 18px;&quot;&gt;&lt;i&gt;PostgreSQL&lt;/i&gt;&lt;/font&gt;" style="text;html=1;align=center;verticalAlign=middle;whiteSpace=wrap;rounded=1;shadow=0;fontSize=23;fontStyle=1" vertex="1" parent="B4N4aQDUJcZZaR4VZE6Q-715">
          <mxGeometry x="31" width="89" height="49" as="geometry" />
        </mxCell>
        <mxCell id="B4N4aQDUJcZZaR4VZE6Q-718" value="" style="strokeWidth=2;html=1;shape=mxgraph.flowchart.database;whiteSpace=wrap;rounded=1;movable=1;resizable=1;rotatable=1;deletable=1;editable=1;locked=0;connectable=1;" vertex="1" parent="1">
          <mxGeometry x="1921" y="-114.5" width="220" height="179" as="geometry" />
        </mxCell>
        <mxCell id="B4N4aQDUJcZZaR4VZE6Q-719" value="" style="group" vertex="1" connectable="0" parent="1">
          <mxGeometry x="1954" y="-110" width="151" height="49" as="geometry" />
        </mxCell>
        <mxCell id="B4N4aQDUJcZZaR4VZE6Q-720" value="&lt;p style=&quot;margin: 0px 0px 0px 13px; text-indent: -13px; font-variant-numeric: normal; font-variant-east-asian: normal; font-variant-alternates: normal; font-kerning: auto; font-optical-sizing: auto; font-feature-settings: normal; font-variation-settings: normal; font-variant-position: normal; font-stretch: normal; font-size: 14px; line-height: normal; color: rgb(14, 14, 14); text-align: start;&quot; class=&quot;p1&quot;&gt;&lt;br&gt;&lt;/p&gt;" style="rounded=1;whiteSpace=wrap;html=1;fillColor=#FF77BF;strokeColor=none;arcSize=50;" vertex="1" parent="B4N4aQDUJcZZaR4VZE6Q-719">
          <mxGeometry y="9" width="151" height="33" as="geometry" />
        </mxCell>
        <mxCell id="B4N4aQDUJcZZaR4VZE6Q-721" value="&lt;font style=&quot;font-size: 18px;&quot;&gt;&lt;i&gt;PostgreSQL&lt;/i&gt;&lt;/font&gt;" style="text;html=1;align=center;verticalAlign=middle;whiteSpace=wrap;rounded=1;shadow=0;fontSize=23;fontStyle=1" vertex="1" parent="B4N4aQDUJcZZaR4VZE6Q-719">
          <mxGeometry x="31" width="89" height="49" as="geometry" />
        </mxCell>
        <mxCell id="B4N4aQDUJcZZaR4VZE6Q-722" value="" style="strokeWidth=2;html=1;shape=mxgraph.flowchart.database;whiteSpace=wrap;rounded=1;movable=1;resizable=1;rotatable=1;deletable=1;editable=1;locked=0;connectable=1;" vertex="1" parent="1">
          <mxGeometry x="185" y="-1510" width="220" height="179" as="geometry" />
        </mxCell>
        <mxCell id="B4N4aQDUJcZZaR4VZE6Q-723" value="" style="strokeWidth=2;html=1;shape=mxgraph.flowchart.database;whiteSpace=wrap;rounded=1;movable=1;resizable=1;rotatable=1;deletable=1;editable=1;locked=0;connectable=1;" vertex="1" parent="1">
          <mxGeometry x="200" y="-1131" width="220" height="179" as="geometry" />
        </mxCell>
        <mxCell id="B4N4aQDUJcZZaR4VZE6Q-727" value="&lt;span style=&quot;font-size: 12px;&quot;&gt;&amp;nbsp;Поток 1. Запросы на услуги&lt;/span&gt;" style="edgeLabel;html=1;align=center;verticalAlign=middle;resizable=0;points=[];rounded=1;" vertex="1" connectable="0" parent="1">
          <mxGeometry x="-329.0023086123065" y="-1482.0038929969028" as="geometry">
            <mxPoint x="-2" y="5" as="offset" />
          </mxGeometry>
        </mxCell>
        <mxCell id="B4N4aQDUJcZZaR4VZE6Q-735" value="Поток 2. Запросы на товары" style="text;html=1;align=center;verticalAlign=middle;whiteSpace=wrap;rounded=0;" vertex="1" parent="1">
          <mxGeometry x="-415.21000000000004" y="-1092" width="170" height="30" as="geometry" />
        </mxCell>
        <mxCell id="B4N4aQDUJcZZaR4VZE6Q-739" value="" style="group" vertex="1" connectable="0" parent="1">
          <mxGeometry x="2170" y="-2320" width="535" height="220" as="geometry" />
        </mxCell>
        <mxCell id="B4N4aQDUJcZZaR4VZE6Q-740" value="" style="rounded=1;whiteSpace=wrap;html=1;arcSize=5;fillColor=#fff2cc;strokeColor=#d6b656;" vertex="1" parent="B4N4aQDUJcZZaR4VZE6Q-739">
          <mxGeometry x="17" width="518" height="220" as="geometry" />
        </mxCell>
        <mxCell id="B4N4aQDUJcZZaR4VZE6Q-741" value="TurboPay" style="text;html=1;align=center;verticalAlign=middle;whiteSpace=wrap;rounded=1;shadow=0;fontSize=23;fontStyle=1" vertex="1" parent="B4N4aQDUJcZZaR4VZE6Q-739">
          <mxGeometry width="177" height="49" as="geometry" />
        </mxCell>
        <mxCell id="B4N4aQDUJcZZaR4VZE6Q-742" value="" style="group" vertex="1" connectable="0" parent="1">
          <mxGeometry x="2220" y="-2260" width="518" height="224" as="geometry" />
        </mxCell>
        <mxCell id="B4N4aQDUJcZZaR4VZE6Q-743" value="" style="rounded=1;whiteSpace=wrap;html=1;arcSize=5;fillColor=#fff2cc;strokeColor=#d6b656;" vertex="1" parent="B4N4aQDUJcZZaR4VZE6Q-742">
          <mxGeometry width="518" height="224" as="geometry" />
        </mxCell>
        <mxCell id="B4N4aQDUJcZZaR4VZE6Q-744" value="FastMoney" style="text;html=1;align=center;verticalAlign=middle;whiteSpace=wrap;rounded=1;shadow=0;fontSize=23;fontStyle=1" vertex="1" parent="B4N4aQDUJcZZaR4VZE6Q-742">
          <mxGeometry x="2" width="141" height="49" as="geometry" />
        </mxCell>
        <mxCell id="B4N4aQDUJcZZaR4VZE6Q-745" value="" style="group" vertex="1" connectable="0" parent="1">
          <mxGeometry x="2250" y="-2200" width="514" height="244" as="geometry" />
        </mxCell>
        <mxCell id="B4N4aQDUJcZZaR4VZE6Q-746" value="" style="rounded=1;whiteSpace=wrap;html=1;arcSize=5;fillColor=#fff2cc;strokeColor=#d6b656;" vertex="1" parent="B4N4aQDUJcZZaR4VZE6Q-745">
          <mxGeometry width="514" height="244" as="geometry" />
        </mxCell>
        <mxCell id="B4N4aQDUJcZZaR4VZE6Q-747" value="Яндекс.Pay" style="text;html=1;align=center;verticalAlign=middle;whiteSpace=wrap;rounded=1;shadow=0;fontSize=23;fontStyle=1" vertex="1" parent="B4N4aQDUJcZZaR4VZE6Q-745">
          <mxGeometry width="150" height="49" as="geometry" />
        </mxCell>
        <mxCell id="B4N4aQDUJcZZaR4VZE6Q-748" value="WAN" style="text;html=1;align=center;verticalAlign=middle;whiteSpace=wrap;rounded=1;shadow=0;fontSize=23;fontStyle=1" vertex="1" parent="1">
          <mxGeometry x="-1585" y="-2530" width="85" height="49" as="geometry" />
        </mxCell>
        <mxCell id="B4N4aQDUJcZZaR4VZE6Q-749" value="2" style="ellipse;whiteSpace=wrap;html=1;aspect=fixed;rounded=1;fillColor=#FF77BF;" vertex="1" parent="1">
          <mxGeometry x="2510" y="-1970" width="23" height="23" as="geometry" />
        </mxCell>
        <mxCell id="B4N4aQDUJcZZaR4VZE6Q-750" value="5" style="ellipse;whiteSpace=wrap;html=1;aspect=fixed;rounded=1;fillColor=#FF77BF;" vertex="1" parent="1">
          <mxGeometry x="2750" y="-1970" width="23" height="23" as="geometry" />
        </mxCell>
        <mxCell id="B4N4aQDUJcZZaR4VZE6Q-751" value="" style="strokeWidth=2;html=1;shape=mxgraph.flowchart.database;whiteSpace=wrap;rounded=1;movable=1;resizable=1;rotatable=1;deletable=1;editable=1;locked=0;connectable=1;" vertex="1" parent="1">
          <mxGeometry x="2530" y="-2140" width="220" height="171" as="geometry" />
        </mxCell>
        <mxCell id="B4N4aQDUJcZZaR4VZE6Q-752" value="&lt;p style=&quot;margin: 0px 0px 0px 13px; text-indent: -13px; font-variant-numeric: normal; font-variant-east-asian: normal; font-variant-alternates: normal; font-kerning: auto; font-optical-sizing: auto; font-feature-settings: normal; font-variation-settings: normal; font-variant-position: normal; font-stretch: normal; font-size: 14px; line-height: normal; text-align: start;&quot; class=&quot;p1&quot;&gt;&lt;span style=&quot;font-size: 12px; text-align: center; text-indent: 0px;&quot;&gt;[Транзакция.Статус]&lt;/span&gt;&lt;br&gt;&lt;/p&gt;" style="rounded=1;whiteSpace=wrap;html=1;fillColor=#B8B8B8;strokeColor=#FFD966;" vertex="1" parent="1">
          <mxGeometry x="2580" y="-2050" width="119" height="21" as="geometry" />
        </mxCell>
        <mxCell id="B4N4aQDUJcZZaR4VZE6Q-753" value="&lt;p style=&quot;margin: 0px 0px 0px 13px; text-indent: -13px; font-variant-numeric: normal; font-variant-east-asian: normal; font-variant-alternates: normal; font-kerning: auto; font-optical-sizing: auto; font-feature-settings: normal; font-variation-settings: normal; font-variant-position: normal; font-stretch: normal; font-size: 14px; line-height: normal; text-align: start;&quot; class=&quot;p1&quot;&gt;&lt;span style=&quot;font-size: 12px; text-align: center; text-indent: 0px;&quot;&gt;[Транзакция.ID]&lt;/span&gt;&lt;br&gt;&lt;/p&gt;" style="rounded=1;whiteSpace=wrap;html=1;fillColor=#B8B8B8;strokeColor=#FFD966;" vertex="1" parent="1">
          <mxGeometry x="2580" y="-2020" width="119" height="21" as="geometry" />
        </mxCell>
        <mxCell id="B4N4aQDUJcZZaR4VZE6Q-754" value="Клиент" style="shape=umlActor;verticalLabelPosition=bottom;verticalAlign=top;html=1;outlineConnect=0;rounded=1;" vertex="1" parent="1">
          <mxGeometry x="-1245" y="-2080" width="65" height="141" as="geometry" />
        </mxCell>
        <mxCell id="B4N4aQDUJcZZaR4VZE6Q-755" value="" style="group" vertex="1" connectable="0" parent="1">
          <mxGeometry x="2240" y="-2150" width="260" height="39" as="geometry" />
        </mxCell>
        <mxCell id="B4N4aQDUJcZZaR4VZE6Q-756" value="" style="rounded=1;whiteSpace=wrap;html=1;fillColor=#ffe6cc;strokeColor=#d79b00;" vertex="1" parent="B4N4aQDUJcZZaR4VZE6Q-755">
          <mxGeometry x="10" width="250" height="39" as="geometry" />
        </mxCell>
        <mxCell id="B4N4aQDUJcZZaR4VZE6Q-757" value="" style="sketch=0;outlineConnect=0;fontColor=#232F3E;gradientColor=none;fillColor=#232F3D;strokeColor=none;dashed=0;verticalLabelPosition=bottom;verticalAlign=top;align=center;html=1;fontSize=12;fontStyle=0;aspect=fixed;pointerEvents=1;shape=mxgraph.aws4.gear;rounded=1;" vertex="1" parent="B4N4aQDUJcZZaR4VZE6Q-755">
          <mxGeometry x="230" y="11" width="17" height="17" as="geometry" />
        </mxCell>
        <mxCell id="B4N4aQDUJcZZaR4VZE6Q-758" value="Инициировать платёж" style="text;html=1;align=center;verticalAlign=middle;whiteSpace=wrap;rounded=1;fontSize=13;" vertex="1" parent="B4N4aQDUJcZZaR4VZE6Q-755">
          <mxGeometry y="4.5" width="170" height="30" as="geometry" />
        </mxCell>
        <mxCell id="B4N4aQDUJcZZaR4VZE6Q-759" value="" style="group" vertex="1" connectable="0" parent="1">
          <mxGeometry x="2240" y="-2100" width="260" height="39" as="geometry" />
        </mxCell>
        <mxCell id="B4N4aQDUJcZZaR4VZE6Q-760" value="" style="rounded=1;whiteSpace=wrap;html=1;fillColor=#ffe6cc;strokeColor=#d79b00;" vertex="1" parent="B4N4aQDUJcZZaR4VZE6Q-759">
          <mxGeometry x="10" width="250" height="39" as="geometry" />
        </mxCell>
        <mxCell id="B4N4aQDUJcZZaR4VZE6Q-761" value="" style="sketch=0;outlineConnect=0;fontColor=#232F3E;gradientColor=none;fillColor=#232F3D;strokeColor=none;dashed=0;verticalLabelPosition=bottom;verticalAlign=top;align=center;html=1;fontSize=12;fontStyle=0;aspect=fixed;pointerEvents=1;shape=mxgraph.aws4.gear;rounded=1;" vertex="1" parent="B4N4aQDUJcZZaR4VZE6Q-759">
          <mxGeometry x="230" y="11" width="17" height="17" as="geometry" />
        </mxCell>
        <mxCell id="B4N4aQDUJcZZaR4VZE6Q-762" value="Подтвердить платёж" style="text;html=1;align=center;verticalAlign=middle;whiteSpace=wrap;rounded=1;fontSize=13;" vertex="1" parent="B4N4aQDUJcZZaR4VZE6Q-759">
          <mxGeometry y="4.5" width="170" height="30" as="geometry" />
        </mxCell>
        <mxCell id="B4N4aQDUJcZZaR4VZE6Q-763" value="" style="group" vertex="1" connectable="0" parent="1">
          <mxGeometry x="2250" y="-2050" width="250" height="39" as="geometry" />
        </mxCell>
        <mxCell id="B4N4aQDUJcZZaR4VZE6Q-764" value="" style="rounded=1;whiteSpace=wrap;html=1;fillColor=#ffe6cc;strokeColor=#d79b00;" vertex="1" parent="B4N4aQDUJcZZaR4VZE6Q-763">
          <mxGeometry width="250" height="39" as="geometry" />
        </mxCell>
        <mxCell id="B4N4aQDUJcZZaR4VZE6Q-765" value="" style="sketch=0;outlineConnect=0;fontColor=#232F3E;gradientColor=none;fillColor=#232F3D;strokeColor=none;dashed=0;verticalLabelPosition=bottom;verticalAlign=top;align=center;html=1;fontSize=12;fontStyle=0;aspect=fixed;pointerEvents=1;shape=mxgraph.aws4.gear;rounded=1;" vertex="1" parent="B4N4aQDUJcZZaR4VZE6Q-763">
          <mxGeometry x="220" y="11" width="17" height="17" as="geometry" />
        </mxCell>
        <mxCell id="B4N4aQDUJcZZaR4VZE6Q-766" value="Предоставить статус платежа" style="text;html=1;align=center;verticalAlign=middle;whiteSpace=wrap;rounded=1;fontSize=13;" vertex="1" parent="B4N4aQDUJcZZaR4VZE6Q-763">
          <mxGeometry y="4.5" width="200" height="30" as="geometry" />
        </mxCell>
        <mxCell id="B4N4aQDUJcZZaR4VZE6Q-767" value="" style="group" vertex="1" connectable="0" parent="1">
          <mxGeometry x="2240" y="-2000" width="260" height="39" as="geometry" />
        </mxCell>
        <mxCell id="B4N4aQDUJcZZaR4VZE6Q-768" value="" style="rounded=1;whiteSpace=wrap;html=1;fillColor=#ffe6cc;strokeColor=#d79b00;" vertex="1" parent="B4N4aQDUJcZZaR4VZE6Q-767">
          <mxGeometry x="10" width="250" height="39" as="geometry" />
        </mxCell>
        <mxCell id="B4N4aQDUJcZZaR4VZE6Q-769" value="" style="sketch=0;outlineConnect=0;fontColor=#232F3E;gradientColor=none;fillColor=#232F3D;strokeColor=none;dashed=0;verticalLabelPosition=bottom;verticalAlign=top;align=center;html=1;fontSize=12;fontStyle=0;aspect=fixed;pointerEvents=1;shape=mxgraph.aws4.gear;rounded=1;" vertex="1" parent="B4N4aQDUJcZZaR4VZE6Q-767">
          <mxGeometry x="230" y="11" width="17" height="17" as="geometry" />
        </mxCell>
        <mxCell id="B4N4aQDUJcZZaR4VZE6Q-770" value="Подтвердить отмену платежа" style="text;html=1;align=center;verticalAlign=middle;whiteSpace=wrap;rounded=1;fontSize=13;" vertex="1" parent="B4N4aQDUJcZZaR4VZE6Q-767">
          <mxGeometry y="4.5" width="210" height="30" as="geometry" />
        </mxCell>
        <mxCell id="B4N4aQDUJcZZaR4VZE6Q-772" style="edgeStyle=orthogonalEdgeStyle;rounded=0;orthogonalLoop=1;jettySize=auto;html=1;" edge="1" parent="1" source="B4N4aQDUJcZZaR4VZE6Q-533">
          <mxGeometry relative="1" as="geometry">
            <mxPoint x="2500" y="-1940" as="targetPoint" />
          </mxGeometry>
        </mxCell>
        <mxCell id="B4N4aQDUJcZZaR4VZE6Q-773" value="" style="group;strokeColor=#FF6666;" vertex="1" connectable="0" parent="1">
          <mxGeometry x="1510" y="-2310" width="535" height="220" as="geometry" />
        </mxCell>
        <mxCell id="B4N4aQDUJcZZaR4VZE6Q-774" value="" style="rounded=1;whiteSpace=wrap;html=1;arcSize=5;fillColor=#fff2cc;strokeColor=#FF6666;" vertex="1" parent="B4N4aQDUJcZZaR4VZE6Q-773">
          <mxGeometry x="17" width="518" height="220" as="geometry" />
        </mxCell>
        <mxCell id="B4N4aQDUJcZZaR4VZE6Q-775" value="Email" style="text;html=1;align=center;verticalAlign=middle;whiteSpace=wrap;rounded=1;shadow=0;fontSize=23;fontStyle=1;strokeColor=#FF6666;" vertex="1" parent="B4N4aQDUJcZZaR4VZE6Q-773">
          <mxGeometry width="177" height="49" as="geometry" />
        </mxCell>
        <mxCell id="B4N4aQDUJcZZaR4VZE6Q-776" value="" style="group;strokeColor=#FF6666;" vertex="1" connectable="0" parent="1">
          <mxGeometry x="1560" y="-2250" width="518" height="224" as="geometry" />
        </mxCell>
        <mxCell id="B4N4aQDUJcZZaR4VZE6Q-777" value="" style="rounded=1;whiteSpace=wrap;html=1;arcSize=5;fillColor=#fff2cc;strokeColor=#FF6666;" vertex="1" parent="B4N4aQDUJcZZaR4VZE6Q-776">
          <mxGeometry width="518" height="224" as="geometry" />
        </mxCell>
        <mxCell id="B4N4aQDUJcZZaR4VZE6Q-778" value="SMS" style="text;html=1;align=center;verticalAlign=middle;whiteSpace=wrap;rounded=1;shadow=0;fontSize=23;fontStyle=1;strokeColor=#FF6666;" vertex="1" parent="B4N4aQDUJcZZaR4VZE6Q-776">
          <mxGeometry x="2" width="141" height="49" as="geometry" />
        </mxCell>
        <mxCell id="B4N4aQDUJcZZaR4VZE6Q-779" value="" style="group;movable=0;resizable=0;rotatable=0;deletable=0;editable=0;locked=1;connectable=0;" vertex="1" connectable="0" parent="1">
          <mxGeometry x="1590" y="-2190" width="514" height="244" as="geometry" />
        </mxCell>
        <mxCell id="B4N4aQDUJcZZaR4VZE6Q-780" value="" style="rounded=1;whiteSpace=wrap;html=1;arcSize=5;fillColor=#fff2cc;strokeColor=#d6b656;" vertex="1" parent="B4N4aQDUJcZZaR4VZE6Q-779">
          <mxGeometry width="514" height="244" as="geometry" />
        </mxCell>
        <mxCell id="B4N4aQDUJcZZaR4VZE6Q-781" value="Почта" style="text;html=1;align=center;verticalAlign=middle;whiteSpace=wrap;rounded=1;shadow=0;fontSize=23;fontStyle=1" vertex="1" parent="B4N4aQDUJcZZaR4VZE6Q-779">
          <mxGeometry width="150" height="49" as="geometry" />
        </mxCell>
        <mxCell id="B4N4aQDUJcZZaR4VZE6Q-787" value="" style="group" vertex="1" connectable="0" parent="B4N4aQDUJcZZaR4VZE6Q-779">
          <mxGeometry x="10" y="110" width="260" height="39" as="geometry" />
        </mxCell>
        <mxCell id="B4N4aQDUJcZZaR4VZE6Q-788" value="" style="rounded=1;whiteSpace=wrap;html=1;fillColor=#ffe6cc;strokeColor=#d79b00;" vertex="1" parent="B4N4aQDUJcZZaR4VZE6Q-787">
          <mxGeometry x="10" width="250" height="39" as="geometry" />
        </mxCell>
        <mxCell id="B4N4aQDUJcZZaR4VZE6Q-789" value="" style="sketch=0;outlineConnect=0;fontColor=#232F3E;gradientColor=none;fillColor=#232F3D;strokeColor=none;dashed=0;verticalLabelPosition=bottom;verticalAlign=top;align=center;html=1;fontSize=12;fontStyle=0;aspect=fixed;pointerEvents=1;shape=mxgraph.aws4.gear;rounded=1;" vertex="1" parent="B4N4aQDUJcZZaR4VZE6Q-787">
          <mxGeometry x="230" y="11" width="17" height="17" as="geometry" />
        </mxCell>
        <mxCell id="B4N4aQDUJcZZaR4VZE6Q-790" value="Отправить нотификацию" style="text;html=1;align=center;verticalAlign=middle;whiteSpace=wrap;rounded=1;fontSize=13;" vertex="1" parent="B4N4aQDUJcZZaR4VZE6Q-787">
          <mxGeometry y="4.5" width="170" height="30" as="geometry" />
        </mxCell>
        <mxCell id="B4N4aQDUJcZZaR4VZE6Q-784" value="" style="strokeWidth=2;html=1;shape=mxgraph.flowchart.database;whiteSpace=wrap;rounded=1;movable=1;resizable=1;rotatable=1;deletable=1;editable=1;locked=0;connectable=1;strokeColor=#FF6666;" vertex="1" parent="1">
          <mxGeometry x="1870" y="-2130" width="220" height="171" as="geometry" />
        </mxCell>
        <mxCell id="B4N4aQDUJcZZaR4VZE6Q-803" style="edgeStyle=orthogonalEdgeStyle;rounded=0;orthogonalLoop=1;jettySize=auto;html=1;entryX=0.332;entryY=0.994;entryDx=0;entryDy=0;entryPerimeter=0;strokeColor=#FF6666;" edge="1" parent="1" source="B4N4aQDUJcZZaR4VZE6Q-665" target="B4N4aQDUJcZZaR4VZE6Q-780">
          <mxGeometry relative="1" as="geometry" />
        </mxCell>
        <mxCell id="B4N4aQDUJcZZaR4VZE6Q-804" value="" style="group" vertex="1" connectable="0" parent="1">
          <mxGeometry x="224" y="-1510" width="151" height="49" as="geometry" />
        </mxCell>
        <mxCell id="B4N4aQDUJcZZaR4VZE6Q-805" value="&lt;p style=&quot;margin: 0px 0px 0px 13px; text-indent: -13px; font-variant-numeric: normal; font-variant-east-asian: normal; font-variant-alternates: normal; font-kerning: auto; font-optical-sizing: auto; font-feature-settings: normal; font-variation-settings: normal; font-variant-position: normal; font-stretch: normal; font-size: 14px; line-height: normal; color: rgb(14, 14, 14); text-align: start;&quot; class=&quot;p1&quot;&gt;&lt;br&gt;&lt;/p&gt;" style="rounded=1;whiteSpace=wrap;html=1;fillColor=#FF77BF;strokeColor=none;arcSize=50;" vertex="1" parent="B4N4aQDUJcZZaR4VZE6Q-804">
          <mxGeometry y="9" width="151" height="33" as="geometry" />
        </mxCell>
        <mxCell id="B4N4aQDUJcZZaR4VZE6Q-806" value="&lt;font style=&quot;font-size: 18px;&quot;&gt;&lt;i&gt;PostgreSQL&lt;/i&gt;&lt;/font&gt;" style="text;html=1;align=center;verticalAlign=middle;whiteSpace=wrap;rounded=1;shadow=0;fontSize=23;fontStyle=1" vertex="1" parent="B4N4aQDUJcZZaR4VZE6Q-804">
          <mxGeometry x="30" width="91" height="49" as="geometry" />
        </mxCell>
        <mxCell id="B4N4aQDUJcZZaR4VZE6Q-807" value="" style="group" vertex="1" connectable="0" parent="1">
          <mxGeometry x="230" y="-1130" width="151" height="49" as="geometry" />
        </mxCell>
        <mxCell id="B4N4aQDUJcZZaR4VZE6Q-808" value="&lt;p style=&quot;margin: 0px 0px 0px 13px; text-indent: -13px; font-variant-numeric: normal; font-variant-east-asian: normal; font-variant-alternates: normal; font-kerning: auto; font-optical-sizing: auto; font-feature-settings: normal; font-variation-settings: normal; font-variant-position: normal; font-stretch: normal; font-size: 14px; line-height: normal; color: rgb(14, 14, 14); text-align: start;&quot; class=&quot;p1&quot;&gt;&lt;br&gt;&lt;/p&gt;" style="rounded=1;whiteSpace=wrap;html=1;fillColor=#FF77BF;strokeColor=none;arcSize=50;" vertex="1" parent="B4N4aQDUJcZZaR4VZE6Q-807">
          <mxGeometry y="9" width="151" height="33" as="geometry" />
        </mxCell>
        <mxCell id="B4N4aQDUJcZZaR4VZE6Q-809" value="&lt;font style=&quot;font-size: 18px;&quot;&gt;&lt;i&gt;PostgreSQL&lt;/i&gt;&lt;/font&gt;" style="text;html=1;align=center;verticalAlign=middle;whiteSpace=wrap;rounded=1;shadow=0;fontSize=23;fontStyle=1" vertex="1" parent="B4N4aQDUJcZZaR4VZE6Q-807">
          <mxGeometry x="30" width="91" height="49" as="geometry" />
        </mxCell>
        <mxCell id="B4N4aQDUJcZZaR4VZE6Q-810" value="" style="group;strokeColor=#FF6666;" vertex="1" connectable="0" parent="1">
          <mxGeometry x="1910" y="-2130" width="151" height="49" as="geometry" />
        </mxCell>
        <mxCell id="B4N4aQDUJcZZaR4VZE6Q-811" value="&lt;p style=&quot;margin: 0px 0px 0px 13px; text-indent: -13px; font-variant-numeric: normal; font-variant-east-asian: normal; font-variant-alternates: normal; font-kerning: auto; font-optical-sizing: auto; font-feature-settings: normal; font-variation-settings: normal; font-variant-position: normal; font-stretch: normal; font-size: 14px; line-height: normal; color: rgb(14, 14, 14); text-align: start;&quot; class=&quot;p1&quot;&gt;&lt;br&gt;&lt;/p&gt;" style="rounded=1;whiteSpace=wrap;html=1;fillColor=#FF77BF;strokeColor=#FF6666;arcSize=50;" vertex="1" parent="B4N4aQDUJcZZaR4VZE6Q-810">
          <mxGeometry y="9" width="151" height="33" as="geometry" />
        </mxCell>
        <mxCell id="B4N4aQDUJcZZaR4VZE6Q-812" value="&lt;font style=&quot;font-size: 18px;&quot;&gt;&lt;i&gt;PostgreSQL&lt;/i&gt;&lt;/font&gt;" style="text;html=1;align=center;verticalAlign=middle;whiteSpace=wrap;rounded=1;shadow=0;fontSize=23;fontStyle=1;strokeColor=#FF6666;" vertex="1" parent="B4N4aQDUJcZZaR4VZE6Q-810">
          <mxGeometry x="30" width="91" height="49" as="geometry" />
        </mxCell>
        <mxCell id="B4N4aQDUJcZZaR4VZE6Q-813" value="" style="group" vertex="1" connectable="0" parent="1">
          <mxGeometry x="2560" y="-2140" width="151" height="49" as="geometry" />
        </mxCell>
        <mxCell id="B4N4aQDUJcZZaR4VZE6Q-814" value="&lt;p style=&quot;margin: 0px 0px 0px 13px; text-indent: -13px; font-variant-numeric: normal; font-variant-east-asian: normal; font-variant-alternates: normal; font-kerning: auto; font-optical-sizing: auto; font-feature-settings: normal; font-variation-settings: normal; font-variant-position: normal; font-stretch: normal; font-size: 14px; line-height: normal; color: rgb(14, 14, 14); text-align: start;&quot; class=&quot;p1&quot;&gt;&lt;br&gt;&lt;/p&gt;" style="rounded=1;whiteSpace=wrap;html=1;fillColor=#FF77BF;strokeColor=none;arcSize=50;" vertex="1" parent="B4N4aQDUJcZZaR4VZE6Q-813">
          <mxGeometry y="9" width="151" height="33" as="geometry" />
        </mxCell>
        <mxCell id="B4N4aQDUJcZZaR4VZE6Q-815" value="&lt;font style=&quot;font-size: 18px;&quot;&gt;&lt;i&gt;PostgreSQL&lt;/i&gt;&lt;/font&gt;" style="text;html=1;align=center;verticalAlign=middle;whiteSpace=wrap;rounded=1;shadow=0;fontSize=23;fontStyle=1" vertex="1" parent="B4N4aQDUJcZZaR4VZE6Q-813">
          <mxGeometry x="30" width="91" height="49" as="geometry" />
        </mxCell>
        <mxCell id="B4N4aQDUJcZZaR4VZE6Q-817" value="" style="edgeStyle=orthogonalEdgeStyle;rounded=0;orthogonalLoop=1;jettySize=auto;html=1;entryX=0;entryY=0.5;entryDx=0;entryDy=0;exitX=1.001;exitY=0.155;exitDx=0;exitDy=0;exitPerimeter=0;strokeColor=#FF6666;" edge="1" parent="1" source="B4N4aQDUJcZZaR4VZE6Q-1" target="B4N4aQDUJcZZaR4VZE6Q-529">
          <mxGeometry relative="1" as="geometry">
            <mxPoint x="695" y="-1550" as="targetPoint" />
            <mxPoint x="-930" y="-900" as="sourcePoint" />
            <Array as="points">
              <mxPoint x="-881" y="-1030" />
              <mxPoint x="-770" y="-1030" />
              <mxPoint x="-770" y="-1040" />
            </Array>
          </mxGeometry>
        </mxCell>
        <mxCell id="B4N4aQDUJcZZaR4VZE6Q-818" value="LAN" style="text;html=1;align=center;verticalAlign=middle;whiteSpace=wrap;rounded=1;shadow=0;fontSize=23;fontStyle=1" vertex="1" parent="1">
          <mxGeometry x="-1580" y="-1778" width="85" height="49" as="geometry" />
        </mxCell>
        <mxCell id="B4N4aQDUJcZZaR4VZE6Q-821" style="edgeStyle=orthogonalEdgeStyle;rounded=0;orthogonalLoop=1;jettySize=auto;html=1;entryX=0.5;entryY=0;entryDx=0;entryDy=0;" edge="1" parent="1" source="B4N4aQDUJcZZaR4VZE6Q-754" target="B4N4aQDUJcZZaR4VZE6Q-1">
          <mxGeometry relative="1" as="geometry" />
        </mxCell>
        <mxCell id="B4N4aQDUJcZZaR4VZE6Q-824" value="Администратор" style="shape=umlActor;verticalLabelPosition=bottom;verticalAlign=top;html=1;outlineConnect=0;rounded=1;" vertex="1" parent="1">
          <mxGeometry x="-1960" y="-493.75" width="65" height="141" as="geometry" />
        </mxCell>
        <mxCell id="B4N4aQDUJcZZaR4VZE6Q-825" value="Специалист поддержки" style="shape=umlActor;verticalLabelPosition=bottom;verticalAlign=top;html=1;outlineConnect=0;rounded=1;" vertex="1" parent="1">
          <mxGeometry x="-1960" y="-70" width="65" height="141" as="geometry" />
        </mxCell>
        <mxCell id="B4N4aQDUJcZZaR4VZE6Q-826" value="Поток 10. Запрос на поддержку" style="text;html=1;align=center;verticalAlign=middle;whiteSpace=wrap;rounded=0;" vertex="1" parent="1">
          <mxGeometry x="-380" y="1032" width="150" height="30" as="geometry" />
        </mxCell>
        <mxCell id="B4N4aQDUJcZZaR4VZE6Q-827" style="edgeStyle=orthogonalEdgeStyle;rounded=0;orthogonalLoop=1;jettySize=auto;html=1;entryX=0.008;entryY=0.274;entryDx=0;entryDy=0;entryPerimeter=0;exitX=1;exitY=0.75;exitDx=0;exitDy=0;strokeColor=#FF6666;" edge="1" parent="1" source="B4N4aQDUJcZZaR4VZE6Q-35" target="B4N4aQDUJcZZaR4VZE6Q-658">
          <mxGeometry relative="1" as="geometry" />
        </mxCell>
        <mxCell id="B4N4aQDUJcZZaR4VZE6Q-830" value="Поток 17. Запрос на платеж" style="text;html=1;align=center;verticalAlign=middle;whiteSpace=wrap;rounded=0;" vertex="1" parent="1">
          <mxGeometry x="660" y="-183" width="173" height="30" as="geometry" />
        </mxCell>
        <mxCell id="B4N4aQDUJcZZaR4VZE6Q-831" style="edgeStyle=orthogonalEdgeStyle;rounded=0;orthogonalLoop=1;jettySize=auto;html=1;entryX=1.002;entryY=0.858;entryDx=0;entryDy=0;entryPerimeter=0;strokeColor=#FF6666;" edge="1" parent="1" target="B4N4aQDUJcZZaR4VZE6Q-35">
          <mxGeometry relative="1" as="geometry">
            <mxPoint x="1050" y="-100" as="sourcePoint" />
          </mxGeometry>
        </mxCell>
        <mxCell id="B4N4aQDUJcZZaR4VZE6Q-832" value="Поток 18. Статус оплаты" style="text;html=1;align=center;verticalAlign=middle;whiteSpace=wrap;rounded=0;" vertex="1" parent="1">
          <mxGeometry x="660" y="-135" width="173" height="30" as="geometry" />
        </mxCell>
        <mxCell id="B4N4aQDUJcZZaR4VZE6Q-833" style="edgeStyle=orthogonalEdgeStyle;rounded=0;orthogonalLoop=1;jettySize=auto;html=1;entryX=-0.006;entryY=0.268;entryDx=0;entryDy=0;entryPerimeter=0;exitX=0.986;exitY=0.276;exitDx=0;exitDy=0;exitPerimeter=0;strokeColor=#FF6666;" edge="1" parent="1" source="B4N4aQDUJcZZaR4VZE6Q-658" target="B4N4aQDUJcZZaR4VZE6Q-533">
          <mxGeometry relative="1" as="geometry" />
        </mxCell>
        <mxCell id="B4N4aQDUJcZZaR4VZE6Q-834" value="Поток 23. Подписка на платежи" style="text;html=1;align=center;verticalAlign=middle;whiteSpace=wrap;rounded=0;" vertex="1" parent="1">
          <mxGeometry x="1310" y="-178.5" width="190" height="30" as="geometry" />
        </mxCell>
        <mxCell id="B4N4aQDUJcZZaR4VZE6Q-835" style="edgeStyle=orthogonalEdgeStyle;rounded=0;orthogonalLoop=1;jettySize=auto;html=1;entryX=0.98;entryY=0.309;entryDx=0;entryDy=0;entryPerimeter=0;exitX=0.004;exitY=0.454;exitDx=0;exitDy=0;exitPerimeter=0;strokeColor=#FF6666;" edge="1" parent="1" source="B4N4aQDUJcZZaR4VZE6Q-533" target="B4N4aQDUJcZZaR4VZE6Q-658">
          <mxGeometry relative="1" as="geometry" />
        </mxCell>
        <mxCell id="B4N4aQDUJcZZaR4VZE6Q-837" value="Поток 24. Статус оплаты" style="text;html=1;align=center;verticalAlign=middle;whiteSpace=wrap;rounded=0;" vertex="1" parent="1">
          <mxGeometry x="1310" y="-91" width="160" height="30" as="geometry" />
        </mxCell>
        <mxCell id="B4N4aQDUJcZZaR4VZE6Q-841" style="edgeStyle=orthogonalEdgeStyle;rounded=0;orthogonalLoop=1;jettySize=auto;html=1;entryX=-0.003;entryY=0.323;entryDx=0;entryDy=0;entryPerimeter=0;" edge="1" parent="1" source="B4N4aQDUJcZZaR4VZE6Q-824" target="B4N4aQDUJcZZaR4VZE6Q-1">
          <mxGeometry relative="1" as="geometry" />
        </mxCell>
        <mxCell id="B4N4aQDUJcZZaR4VZE6Q-846" value="Поток 25. Отправка нотификаци" style="text;html=1;align=center;verticalAlign=middle;whiteSpace=wrap;rounded=0;" vertex="1" parent="1">
          <mxGeometry x="1780" y="-1122" width="60" height="30" as="geometry" />
        </mxCell>
        <mxCell id="B4N4aQDUJcZZaR4VZE6Q-847" value="Поток 26. Обработка платежа" style="text;html=1;align=center;verticalAlign=middle;whiteSpace=wrap;rounded=0;" vertex="1" parent="1">
          <mxGeometry x="2260" y="-70" width="175" height="30" as="geometry" />
        </mxCell>
        <mxCell id="B4N4aQDUJcZZaR4VZE6Q-848" value="&lt;p style=&quot;margin: 0px 0px 0px 13px; text-indent: -13px; font-variant-numeric: normal; font-variant-east-asian: normal; font-variant-alternates: normal; font-kerning: auto; font-optical-sizing: auto; font-feature-settings: normal; font-variation-settings: normal; font-variant-position: normal; font-stretch: normal; font-size: 14px; line-height: normal; color: rgb(14, 14, 14); text-align: start;&quot; class=&quot;p1&quot;&gt;&lt;font face=&quot;Times New Roman&quot;&gt;Услуга.ID&lt;/font&gt;&lt;/p&gt;" style="rounded=1;whiteSpace=wrap;html=1;fillColor=#b1ddf0;strokeColor=#10739e;" vertex="1" parent="1">
          <mxGeometry x="196" y="-1440.5" width="209" height="21" as="geometry" />
        </mxCell>
        <mxCell id="B4N4aQDUJcZZaR4VZE6Q-849" value="&lt;p style=&quot;margin: 0px 0px 0px 13px; text-indent: -13px; font-variant-numeric: normal; font-variant-east-asian: normal; font-variant-alternates: normal; font-kerning: auto; font-optical-sizing: auto; font-feature-settings: normal; font-variation-settings: normal; font-variant-position: normal; font-stretch: normal; font-size: 14px; line-height: normal; color: rgb(14, 14, 14); text-align: start;&quot; class=&quot;p1&quot;&gt;&lt;font face=&quot;Times New Roman&quot;&gt;Услуга.Название&lt;/font&gt;&lt;/p&gt;" style="rounded=1;whiteSpace=wrap;html=1;fillColor=#b1ddf0;strokeColor=#10739e;" vertex="1" parent="1">
          <mxGeometry x="195" y="-1405" width="209" height="21" as="geometry" />
        </mxCell>
        <mxCell id="B4N4aQDUJcZZaR4VZE6Q-850" value="&lt;p style=&quot;margin: 0px 0px 0px 13px; text-indent: -13px; font-variant-numeric: normal; font-variant-east-asian: normal; font-variant-alternates: normal; font-kerning: auto; font-optical-sizing: auto; font-feature-settings: normal; font-variation-settings: normal; font-variant-position: normal; font-stretch: normal; font-size: 14px; line-height: normal; color: rgb(14, 14, 14); text-align: start;&quot; class=&quot;p1&quot;&gt;&lt;font face=&quot;Times New Roman&quot;&gt;Товар.ID&lt;/font&gt;&lt;/p&gt;" style="rounded=1;whiteSpace=wrap;html=1;fillColor=#b1ddf0;strokeColor=#10739e;" vertex="1" parent="1">
          <mxGeometry x="205.5" y="-1062" width="209" height="21" as="geometry" />
        </mxCell>
        <mxCell id="B4N4aQDUJcZZaR4VZE6Q-851" value="&lt;p style=&quot;margin: 0px 0px 0px 13px; text-indent: -13px; font-variant-numeric: normal; font-variant-east-asian: normal; font-variant-alternates: normal; font-kerning: auto; font-optical-sizing: auto; font-feature-settings: normal; font-variation-settings: normal; font-variant-position: normal; font-stretch: normal; font-size: 14px; line-height: normal; color: rgb(14, 14, 14); text-align: start;&quot; class=&quot;p1&quot;&gt;&lt;font face=&quot;Times New Roman&quot;&gt;Товар.Название&lt;/font&gt;&lt;/p&gt;" style="rounded=1;whiteSpace=wrap;html=1;fillColor=#b1ddf0;strokeColor=#10739e;" vertex="1" parent="1">
          <mxGeometry x="211" y="-1034" width="209" height="21" as="geometry" />
        </mxCell>
        <mxCell id="B4N4aQDUJcZZaR4VZE6Q-852" value="&lt;p style=&quot;margin: 0px 0px 0px 13px; text-indent: -13px; font-variant-numeric: normal; font-variant-east-asian: normal; font-variant-alternates: normal; font-kerning: auto; font-optical-sizing: auto; font-feature-settings: normal; font-variation-settings: normal; font-variant-position: normal; font-stretch: normal; font-size: 14px; line-height: normal; color: rgb(14, 14, 14); text-align: start;&quot; class=&quot;p1&quot;&gt;&lt;font face=&quot;Times New Roman&quot;&gt;Заказ. ID&lt;/font&gt;&lt;/p&gt;" style="rounded=1;whiteSpace=wrap;html=1;fillColor=#b1ddf0;strokeColor=#10739e;" vertex="1" parent="1">
          <mxGeometry x="209.5" y="-257.9999999999999" width="151" height="21" as="geometry" />
        </mxCell>
        <mxCell id="B4N4aQDUJcZZaR4VZE6Q-853" value="&lt;p style=&quot;margin: 0px 0px 0px 13px; text-indent: -13px; font-variant-numeric: normal; font-variant-east-asian: normal; font-variant-alternates: normal; font-kerning: auto; font-optical-sizing: auto; font-feature-settings: normal; font-variation-settings: normal; font-variant-position: normal; font-stretch: normal; font-size: 14px; line-height: normal; color: rgb(14, 14, 14); text-align: start;&quot; class=&quot;p1&quot;&gt;&lt;font face=&quot;Times New Roman&quot;&gt;Заказ.Статус&lt;/font&gt;&lt;/p&gt;" style="rounded=1;whiteSpace=wrap;html=1;fillColor=#b1ddf0;strokeColor=#10739e;" vertex="1" parent="1">
          <mxGeometry x="209.5" y="-222.9999999999999" width="151" height="21" as="geometry" />
        </mxCell>
        <mxCell id="B4N4aQDUJcZZaR4VZE6Q-854" value="&lt;p style=&quot;margin: 0px 0px 0px 13px; text-indent: -13px; font-variant-numeric: normal; font-variant-east-asian: normal; font-variant-alternates: normal; font-kerning: auto; font-optical-sizing: auto; font-feature-settings: normal; font-variation-settings: normal; font-variant-position: normal; font-stretch: normal; font-size: 14px; line-height: normal; color: rgb(14, 14, 14); text-align: start;&quot; class=&quot;p1&quot;&gt;&lt;font face=&quot;Times New Roman&quot;&gt;Аукцион.Участники&lt;/font&gt;&lt;/p&gt;" style="rounded=1;whiteSpace=wrap;html=1;fillColor=#b1ddf0;strokeColor=#10739e;" vertex="1" parent="1">
          <mxGeometry x="200" y="199.0000000000001" width="151" height="21" as="geometry" />
        </mxCell>
        <mxCell id="B4N4aQDUJcZZaR4VZE6Q-855" value="&lt;p style=&quot;margin: 0px 0px 0px 13px; text-indent: -13px; font-variant-numeric: normal; font-variant-east-asian: normal; font-variant-alternates: normal; font-kerning: auto; font-optical-sizing: auto; font-feature-settings: normal; font-variation-settings: normal; font-variant-position: normal; font-stretch: normal; font-size: 14px; line-height: normal; color: rgb(14, 14, 14); text-align: start;&quot; class=&quot;p1&quot;&gt;&lt;font face=&quot;Times New Roman&quot;&gt;Отчет. ID&lt;/font&gt;&lt;/p&gt;" style="rounded=1;whiteSpace=wrap;html=1;fillColor=#b1ddf0;strokeColor=#10739e;" vertex="1" parent="1">
          <mxGeometry x="209.5" y="677" width="151" height="21" as="geometry" />
        </mxCell>
        <mxCell id="B4N4aQDUJcZZaR4VZE6Q-856" value="&lt;p style=&quot;margin: 0px 0px 0px 13px; text-indent: -13px; font-variant-numeric: normal; font-variant-east-asian: normal; font-variant-alternates: normal; font-kerning: auto; font-optical-sizing: auto; font-feature-settings: normal; font-variation-settings: normal; font-variant-position: normal; font-stretch: normal; font-size: 14px; line-height: normal; color: rgb(14, 14, 14); text-align: start;&quot; class=&quot;p1&quot;&gt;&lt;font face=&quot;Times New Roman&quot;&gt;Отчет. Тип&lt;/font&gt;&lt;/p&gt;" style="rounded=1;whiteSpace=wrap;html=1;fillColor=#b1ddf0;strokeColor=#10739e;" vertex="1" parent="1">
          <mxGeometry x="215" y="705.75" width="151" height="21" as="geometry" />
        </mxCell>
        <mxCell id="B4N4aQDUJcZZaR4VZE6Q-857" value="&lt;p style=&quot;margin: 0px 0px 0px 13px; text-indent: -13px; font-variant-numeric: normal; font-variant-east-asian: normal; font-variant-alternates: normal; font-kerning: auto; font-optical-sizing: auto; font-feature-settings: normal; font-variation-settings: normal; font-variant-position: normal; font-stretch: normal; font-size: 14px; line-height: normal; color: rgb(14, 14, 14); text-align: start;&quot; class=&quot;p1&quot;&gt;&lt;font face=&quot;Times New Roman&quot;&gt;Заявка. ID&lt;/font&gt;&lt;/p&gt;" style="rounded=1;whiteSpace=wrap;html=1;fillColor=#b1ddf0;strokeColor=#10739e;" vertex="1" parent="1">
          <mxGeometry x="211" y="1069.5" width="151" height="21" as="geometry" />
        </mxCell>
        <mxCell id="B4N4aQDUJcZZaR4VZE6Q-858" value="&lt;p style=&quot;margin: 0px 0px 0px 13px; text-indent: -13px; font-variant-numeric: normal; font-variant-east-asian: normal; font-variant-alternates: normal; font-kerning: auto; font-optical-sizing: auto; font-feature-settings: normal; font-variation-settings: normal; font-variant-position: normal; font-stretch: normal; font-size: 14px; line-height: normal; color: rgb(14, 14, 14); text-align: start;&quot; class=&quot;p1&quot;&gt;&lt;font face=&quot;Times New Roman&quot;&gt;Заявка. Тип&lt;/font&gt;&lt;/p&gt;" style="rounded=1;whiteSpace=wrap;html=1;fillColor=#b1ddf0;strokeColor=#10739e;" vertex="1" parent="1">
          <mxGeometry x="216" y="1090.5" width="151" height="21" as="geometry" />
        </mxCell>
        <mxCell id="B4N4aQDUJcZZaR4VZE6Q-859" value="" style="endArrow=none;dashed=1;html=1;rounded=0;entryX=0.002;entryY=0.432;entryDx=0;entryDy=0;entryPerimeter=0;exitX=1;exitY=0.3333333333333333;exitDx=0;exitDy=0;exitPerimeter=0;" edge="1" parent="1" source="B4N4aQDUJcZZaR4VZE6Q-825" target="B4N4aQDUJcZZaR4VZE6Q-1">
          <mxGeometry width="50" height="50" relative="1" as="geometry">
            <mxPoint x="-1800" y="-48.5" as="sourcePoint" />
            <mxPoint x="-1750" y="-98.5" as="targetPoint" />
          </mxGeometry>
        </mxCell>
        <mxCell id="B4N4aQDUJcZZaR4VZE6Q-860" value="&lt;div&gt;Изменить статус заявки&lt;/div&gt;&lt;div&gt;на поддержку&lt;/div&gt;" style="text;html=1;align=center;verticalAlign=middle;whiteSpace=wrap;rounded=1;fontSize=13;" vertex="1" parent="1">
          <mxGeometry x="-1843" width="243" height="30" as="geometry" />
        </mxCell>
        <mxCell id="B4N4aQDUJcZZaR4VZE6Q-861" value="&lt;p style=&quot;margin: 0px 0px 0px 13px; text-indent: -13px; font-variant-numeric: normal; font-variant-east-asian: normal; font-variant-alternates: normal; font-kerning: auto; font-optical-sizing: auto; font-feature-settings: normal; font-variation-settings: normal; font-variant-position: normal; font-stretch: normal; font-size: 14px; line-height: normal; color: rgb(14, 14, 14); text-align: start;&quot; class=&quot;p1&quot;&gt;&lt;font face=&quot;Times New Roman&quot;&gt;Нотификация. Тип&lt;/font&gt;&lt;/p&gt;" style="rounded=1;whiteSpace=wrap;html=1;fillColor=#b1ddf0;strokeColor=#10739e;" vertex="1" parent="1">
          <mxGeometry x="1779" y="-534.9999999999999" width="136" height="21" as="geometry" />
        </mxCell>
        <mxCell id="B4N4aQDUJcZZaR4VZE6Q-862" value="&lt;p style=&quot;margin: 0px 0px 0px 13px; text-indent: -13px; font-variant-numeric: normal; font-variant-east-asian: normal; font-variant-alternates: normal; font-kerning: auto; font-optical-sizing: auto; font-feature-settings: normal; font-variation-settings: normal; font-variant-position: normal; font-stretch: normal; font-size: 14px; line-height: normal; color: rgb(14, 14, 14); text-align: start;&quot; class=&quot;p1&quot;&gt;&lt;font face=&quot;Times New Roman&quot;&gt;Нотификация. ID&lt;/font&gt;&lt;span style=&quot;color: rgba(0, 0, 0, 0); font-family: monospace; font-size: 0px; text-wrap: nowrap; background-color: initial;&quot;&gt;%3CmxGraphModel%3E%3Croot%3E%3CmxCell%20id%3D%220%22%2F%3E%3CmxCell%20id%3D%221%22%20parent%3D%220%22%2F%3E%3CmxCell%20id%3D%222%22%20value%3D%22%26lt%3Bp%20style%3D%26quot%3Bmargin%3A%200px%200px%200px%2013px%3B%20text-indent%3A%20-13px%3B%20font-variant-numeric%3A%20normal%3B%20font-variant-east-asian%3A%20normal%3B%20font-variant-alternates%3A%20normal%3B%20font-kerning%3A%20auto%3B%20font-optical-sizing%3A%20auto%3B%20font-feature-settings%3A%20normal%3B%20font-variation-settings%3A%20normal%3B%20font-variant-position%3A%20normal%3B%20font-stretch%3A%20normal%3B%20line-height%3A%20normal%3B%20text-align%3A%20start%3B%26quot%3B%20class%3D%26quot%3Bp1%26quot%3B%26gt%3B%26lt%3Bspan%20style%3D%26quot%3Btext-align%3A%20center%3B%20text-indent%3A%200px%3B%26quot%3B%26gt%3B%26lt%3Bfont%20style%3D%26quot%3Bfont-size%3A%2014px%3B%26quot%3B%20face%3D%26quot%3BTimes%20New%20Roman%26quot%3B%26gt%3B%5B%D0%A2%D1%80%D0%B0%D0%BD%D0%B7%D0%B0%D0%BA%D1%86%D0%B8%D1%8F.ID%5D%26lt%3B%2Ffont%26gt%3B%26lt%3B%2Fspan%26gt%3B%26lt%3Bbr%26gt%3B%26lt%3B%2Fp%26gt%3B%22%20style%3D%22rounded%3D1%3BwhiteSpace%3Dwrap%3Bhtml%3D1%3BfillColor%3D%23B8B8B8%3BstrokeColor%3D%23FFD966%3B%22%20vertex%3D%221%22%20parent%3D%221%22%3E%3CmxGeometry%20x%3D%224896%22%20y%3D%22133.5%22%20width%3D%22104%22%20height%3D%2221%22%20as%3D%22geometry%22%2F%3E%3C%2FmxCell%3E%3CmxCell%20id%3D%223%22%20value%3D%22%26lt%3Bp%20style%3D%26quot%3Bmargin%3A%200px%200px%200px%2013px%3B%20text-indent%3A%20-13px%3B%20font-variant-numeric%3A%20normal%3B%20font-variant-east-asian%3A%20normal%3B%20font-variant-alternates%3A%20normal%3B%20font-kerning%3A%20auto%3B%20font-optical-sizing%3A%20auto%3B%20font-feature-settings%3A%20normal%3B%20font-variation-settings%3A%20normal%3B%20font-variant-position%3A%20normal%3B%20font-stretch%3A%20normal%3B%20line-height%3A%20normal%3B%20text-align%3A%20start%3B%26quot%3B%20class%3D%26quot%3Bp1%26quot%3B%26gt%3B%26lt%3Bspan%20style%3D%26quot%3Btext-align%3A%20center%3B%20text-indent%3A%200px%3B%26quot%3B%26gt%3B%26lt%3Bfont%20style%3D%26quot%3Bfont-size%3A%2014px%3B%26quot%3B%20face%3D%26quot%3BTimes%20New%20Roman%26quot%3B%26gt%3B%5B%D0%A2%D1%80%D0%B0%D0%BD%D0%B7%D0%B0%D0%BA%D1%86%D0%B8%D1%8F.%D0%A1%D1%82%D0%B0%D1%82%D1%83%D1%81%5D%26lt%3B%2Ffont%26gt%3B%26lt%3B%2Fspan%26gt%3B%26lt%3Bbr%26gt%3B%26lt%3B%2Fp%26gt%3B%22%20style%3D%22rounded%3D1%3BwhiteSpace%3Dwrap%3Bhtml%3D1%3BfillColor%3D%23B8B8B8%3BstrokeColor%3D%23FFD966%3B%22%20vertex%3D%221%22%20parent%3D%221%22%3E%3CmxGeometry%20x%3D%224896%22%20y%3D%22172.5%22%20width%3D%22125%22%20height%3D%2221%22%20as%3D%22geometry%22%2F%3E%3C%2FmxCell%3E%3C%2Froot%3E%3C%2FmxGraphModel%3E&lt;/span&gt;&lt;/p&gt;" style="rounded=1;whiteSpace=wrap;html=1;fillColor=#b1ddf0;strokeColor=#10739e;" vertex="1" parent="1">
          <mxGeometry x="1782" y="-499.9999999999999" width="136" height="21" as="geometry" />
        </mxCell>
        <mxCell id="B4N4aQDUJcZZaR4VZE6Q-863" value="&lt;p style=&quot;margin: 0px 0px 0px 13px; text-indent: -13px; font-variant-numeric: normal; font-variant-east-asian: normal; font-variant-alternates: normal; font-kerning: auto; font-optical-sizing: auto; font-feature-settings: normal; font-variation-settings: normal; font-variant-position: normal; font-stretch: normal; line-height: normal; text-align: start;&quot; class=&quot;p1&quot;&gt;&lt;span style=&quot;text-align: center; text-indent: 0px;&quot;&gt;&lt;font style=&quot;font-size: 14px;&quot; face=&quot;Times New Roman&quot;&gt;[Транзакция.ID]&lt;/font&gt;&lt;/span&gt;&lt;br&gt;&lt;/p&gt;" style="rounded=1;whiteSpace=wrap;html=1;fillColor=#B8B8B8;strokeColor=#FFD966;" vertex="1" parent="1">
          <mxGeometry x="1965" y="-25.5" width="104" height="21" as="geometry" />
        </mxCell>
        <mxCell id="B4N4aQDUJcZZaR4VZE6Q-864" value="&lt;p style=&quot;margin: 0px 0px 0px 13px; text-indent: -13px; font-variant-numeric: normal; font-variant-east-asian: normal; font-variant-alternates: normal; font-kerning: auto; font-optical-sizing: auto; font-feature-settings: normal; font-variation-settings: normal; font-variant-position: normal; font-stretch: normal; line-height: normal; text-align: start;&quot; class=&quot;p1&quot;&gt;&lt;span style=&quot;text-align: center; text-indent: 0px;&quot;&gt;&lt;font style=&quot;font-size: 14px;&quot; face=&quot;Times New Roman&quot;&gt;[Транзакция.Статус]&lt;/font&gt;&lt;/span&gt;&lt;br&gt;&lt;/p&gt;" style="rounded=1;whiteSpace=wrap;html=1;fillColor=#B8B8B8;strokeColor=#FFD966;" vertex="1" parent="1">
          <mxGeometry x="1965" y="13.5" width="125" height="21" as="geometry" />
        </mxCell>
        <mxCell id="B4N4aQDUJcZZaR4VZE6Q-865" value="" style="rounded=1;whiteSpace=wrap;html=1;arcSize=0;" vertex="1" parent="1">
          <mxGeometry x="-1628.42" y="2540" width="1128" height="850" as="geometry" />
        </mxCell>
        <mxCell id="B4N4aQDUJcZZaR4VZE6Q-866" value="&lt;p style=&quot;margin: 0px 0px 0px 13px; text-indent: -13px; font-variant-numeric: normal; font-variant-east-asian: normal; font-variant-alternates: normal; font-kerning: auto; font-optical-sizing: auto; font-feature-settings: normal; font-variation-settings: normal; font-variant-position: normal; font-stretch: normal; font-size: 14px; line-height: normal; color: rgb(14, 14, 14); text-align: start;&quot; class=&quot;p1&quot;&gt;&lt;font face=&quot;Times New Roman&quot;&gt;Объект данных&lt;/font&gt;&lt;/p&gt;" style="rounded=1;whiteSpace=wrap;html=1;fillColor=#b1ddf0;strokeColor=#10739e;" vertex="1" parent="1">
          <mxGeometry x="-1208.42" y="2777" width="101" height="21" as="geometry" />
        </mxCell>
        <mxCell id="B4N4aQDUJcZZaR4VZE6Q-867" value="&lt;font style=&quot;font-size: 14px;&quot;&gt;СУБД&lt;/font&gt;" style="strokeWidth=2;html=1;shape=mxgraph.flowchart.database;whiteSpace=wrap;rounded=1;movable=1;resizable=1;rotatable=1;deletable=1;editable=1;locked=0;connectable=1;" vertex="1" parent="1">
          <mxGeometry x="-1219.42" y="2642" width="137" height="87" as="geometry" />
        </mxCell>
        <mxCell id="B4N4aQDUJcZZaR4VZE6Q-868" value="Пользователь (Роль)" style="shape=umlActor;verticalLabelPosition=bottom;verticalAlign=top;html=1;outlineConnect=0;rounded=1;" vertex="1" parent="1">
          <mxGeometry x="-616.4200000000001" y="2609" width="65" height="141" as="geometry" />
        </mxCell>
        <mxCell id="B4N4aQDUJcZZaR4VZE6Q-869" value="&lt;p style=&quot;margin: 0px 0px 0px 13px; text-indent: -13px; font-variant-numeric: normal; font-variant-east-asian: normal; font-variant-alternates: normal; font-kerning: auto; font-optical-sizing: auto; font-feature-settings: normal; font-variation-settings: normal; font-variant-position: normal; font-stretch: normal; line-height: normal; text-align: start;&quot; class=&quot;p1&quot;&gt;&lt;span style=&quot;text-align: center; text-indent: 0px;&quot;&gt;&lt;font style=&quot;font-size: 14px;&quot; face=&quot;Times New Roman&quot;&gt;Объект даных внешних сервисов&lt;/font&gt;&lt;/span&gt;&lt;br&gt;&lt;/p&gt;" style="rounded=1;whiteSpace=wrap;html=1;fillColor=#B8B8B8;strokeColor=#FFD966;" vertex="1" parent="1">
          <mxGeometry x="-1210.42" y="2811" width="204" height="21" as="geometry" />
        </mxCell>
        <mxCell id="B4N4aQDUJcZZaR4VZE6Q-870" value="" style="endArrow=classic;html=1;rounded=1;curved=0;strokeWidth=2;" edge="1" parent="1">
          <mxGeometry width="50" height="50" relative="1" as="geometry">
            <mxPoint x="-919.4200000000001" y="2723" as="sourcePoint" />
            <mxPoint x="-709.4200000000001" y="2723" as="targetPoint" />
            <Array as="points">
              <mxPoint x="-919.4200000000001" y="2723" />
            </Array>
          </mxGeometry>
        </mxCell>
        <mxCell id="B4N4aQDUJcZZaR4VZE6Q-871" value="&lt;font style=&quot;font-size: 12px;&quot;&gt;Подтверждение отмены&amp;nbsp;&lt;/font&gt;&lt;div&gt;&lt;font style=&quot;font-size: 12px;&quot;&gt;платежа&lt;/font&gt;&lt;/div&gt;" style="edgeLabel;html=1;align=center;verticalAlign=middle;resizable=0;points=[];rounded=1;" vertex="1" connectable="0" parent="B4N4aQDUJcZZaR4VZE6Q-870">
          <mxGeometry x="0.1936" y="1" relative="1" as="geometry">
            <mxPoint x="-24" y="-39" as="offset" />
          </mxGeometry>
        </mxCell>
        <mxCell id="B4N4aQDUJcZZaR4VZE6Q-872" value="&lt;font style=&quot;font-size: 12px;&quot;&gt;[Транзакция.Статус]&lt;/font&gt;" style="text;html=1;align=center;verticalAlign=middle;whiteSpace=wrap;rounded=1;fontSize=13;labelBackgroundColor=none;fontColor=#B8B8B8;" vertex="1" parent="1">
          <mxGeometry x="-904.4200000000001" y="2693" width="160" height="30" as="geometry" />
        </mxCell>
        <mxCell id="B4N4aQDUJcZZaR4VZE6Q-873" value="" style="endArrow=classic;html=1;rounded=1;dashed=1;strokeWidth=2;" edge="1" parent="1">
          <mxGeometry width="50" height="50" relative="1" as="geometry">
            <mxPoint x="-920.4200000000001" y="2773" as="sourcePoint" />
            <mxPoint x="-705.4200000000001" y="2773" as="targetPoint" />
            <Array as="points" />
          </mxGeometry>
        </mxCell>
        <mxCell id="B4N4aQDUJcZZaR4VZE6Q-874" value="&lt;span style=&quot;font-size: 12px;&quot;&gt;Пользовательский поток&lt;/span&gt;" style="edgeLabel;html=1;align=center;verticalAlign=middle;resizable=0;points=[];rounded=1;" vertex="1" connectable="0" parent="1">
          <mxGeometry x="-818.4248148148149" y="2802" as="geometry">
            <mxPoint x="-2" y="-47" as="offset" />
          </mxGeometry>
        </mxCell>
        <mxCell id="B4N4aQDUJcZZaR4VZE6Q-877" value="" style="group" vertex="1" connectable="0" parent="1">
          <mxGeometry x="-1222.42" y="2569" width="270" height="39" as="geometry" />
        </mxCell>
        <mxCell id="B4N4aQDUJcZZaR4VZE6Q-878" value="" style="rounded=1;whiteSpace=wrap;html=1;strokeColor=none;fillColor=#1C57CD;" vertex="1" parent="B4N4aQDUJcZZaR4VZE6Q-877">
          <mxGeometry width="270" height="39" as="geometry" />
        </mxCell>
        <mxCell id="B4N4aQDUJcZZaR4VZE6Q-879" value="" style="sketch=0;outlineConnect=0;fontColor=#FFFFFF;gradientColor=none;fillColor=#FFFFFF;strokeColor=none;dashed=0;verticalLabelPosition=bottom;verticalAlign=top;align=center;html=1;fontSize=12;fontStyle=0;aspect=fixed;pointerEvents=1;shape=mxgraph.aws4.gear;rounded=1;" vertex="1" parent="B4N4aQDUJcZZaR4VZE6Q-877">
          <mxGeometry x="238" y="12" width="17" height="17" as="geometry" />
        </mxCell>
        <mxCell id="B4N4aQDUJcZZaR4VZE6Q-880" value="&lt;font style=&quot;font-size: 18px;&quot;&gt;Функция&lt;/font&gt;" style="text;html=1;align=center;verticalAlign=middle;whiteSpace=wrap;rounded=1;fontSize=13;fontColor=#FFFFFF;" vertex="1" parent="B4N4aQDUJcZZaR4VZE6Q-877">
          <mxGeometry x="22" y="5" width="78" height="30" as="geometry" />
        </mxCell>
        <mxCell id="B4N4aQDUJcZZaR4VZE6Q-881" value="" style="group" vertex="1" connectable="0" parent="1">
          <mxGeometry x="-906.4200000000001" y="2576" width="157" height="25" as="geometry" />
        </mxCell>
        <mxCell id="B4N4aQDUJcZZaR4VZE6Q-882" value="&lt;p style=&quot;margin: 0px 0px 0px 13px; text-indent: -13px; font-variant-numeric: normal; font-variant-east-asian: normal; font-variant-alternates: normal; font-kerning: auto; font-optical-sizing: auto; font-feature-settings: normal; font-variation-settings: normal; font-variant-position: normal; font-stretch: normal; font-size: 14px; line-height: normal; color: rgb(14, 14, 14); text-align: start;&quot; class=&quot;p1&quot;&gt;&lt;br&gt;&lt;/p&gt;" style="rounded=1;whiteSpace=wrap;html=1;fillColor=#FF77BF;strokeColor=none;arcSize=33;" vertex="1" parent="B4N4aQDUJcZZaR4VZE6Q-881">
          <mxGeometry x="3" y="1" width="151" height="24" as="geometry" />
        </mxCell>
        <mxCell id="B4N4aQDUJcZZaR4VZE6Q-883" value="&lt;span style=&quot;font-size: 18px;&quot;&gt;&lt;i&gt;Стэк/Окружение&lt;/i&gt;&lt;/span&gt;" style="text;html=1;align=center;verticalAlign=middle;whiteSpace=wrap;rounded=1;shadow=0;fontSize=23;fontStyle=1" vertex="1" parent="B4N4aQDUJcZZaR4VZE6Q-881">
          <mxGeometry width="157" height="17" as="geometry" />
        </mxCell>
        <mxCell id="B4N4aQDUJcZZaR4VZE6Q-884" value="" style="group" vertex="1" connectable="0" parent="1">
          <mxGeometry x="-1582.42" y="2722" width="333" height="145" as="geometry" />
        </mxCell>
        <mxCell id="B4N4aQDUJcZZaR4VZE6Q-885" value="" style="rounded=1;whiteSpace=wrap;html=1;arcSize=5;fillColor=#fff2cc;strokeColor=#d6b656;" vertex="1" parent="B4N4aQDUJcZZaR4VZE6Q-884">
          <mxGeometry width="333" height="145" as="geometry" />
        </mxCell>
        <mxCell id="B4N4aQDUJcZZaR4VZE6Q-886" value="&lt;span style=&quot;font-weight: normal;&quot;&gt;Внешний/Партнёрский сервис&lt;/span&gt;" style="text;html=1;align=center;verticalAlign=middle;whiteSpace=wrap;rounded=1;shadow=0;fontSize=23;fontStyle=1" vertex="1" parent="B4N4aQDUJcZZaR4VZE6Q-884">
          <mxGeometry x="2" y="1" width="331" height="49" as="geometry" />
        </mxCell>
        <mxCell id="B4N4aQDUJcZZaR4VZE6Q-887" value="" style="group" vertex="1" connectable="0" parent="1">
          <mxGeometry x="-1585.42" y="2554" width="331" height="143" as="geometry" />
        </mxCell>
        <mxCell id="B4N4aQDUJcZZaR4VZE6Q-888" value="" style="rounded=1;whiteSpace=wrap;html=1;arcSize=5;fillColor=#f5f5f5;strokeColor=#1C57CD;strokeWidth=3;" vertex="1" parent="B4N4aQDUJcZZaR4VZE6Q-887">
          <mxGeometry width="331" height="143" as="geometry" />
        </mxCell>
        <mxCell id="B4N4aQDUJcZZaR4VZE6Q-889" value="&lt;font style=&quot;font-size: 23px;&quot;&gt;Система/Сервис&lt;/font&gt;" style="text;html=1;align=center;verticalAlign=middle;whiteSpace=wrap;rounded=1;fontSize=13;" vertex="1" parent="B4N4aQDUJcZZaR4VZE6Q-887">
          <mxGeometry x="1" y="6" width="206" height="30" as="geometry" />
        </mxCell>
        <mxCell id="B4N4aQDUJcZZaR4VZE6Q-890" value="Брокер сообщений" style="rounded=1;whiteSpace=wrap;html=1;arcSize=50;fillColor=#f5f5f5;strokeColor=#000000;strokeWidth=3;align=center;verticalAlign=middle;fontFamily=Helvetica;fontSize=12;fontColor=#333333;resizable=1;" vertex="1" parent="1">
          <mxGeometry x="-1570" y="2900" width="75" height="320" as="geometry" />
        </mxCell>
        <mxCell id="B4N4aQDUJcZZaR4VZE6Q-891" value="&lt;p style=&quot;margin: 0px 0px 0px 13px; text-indent: -13px; font-variant-numeric: normal; font-variant-east-asian: normal; font-variant-alternates: normal; font-kerning: auto; font-optical-sizing: auto; font-feature-settings: normal; font-variation-settings: normal; font-variant-position: normal; font-stretch: normal; font-size: 14px; line-height: normal; color: rgb(14, 14, 14); text-align: start;&quot; class=&quot;p1&quot;&gt;&lt;font face=&quot;Times New Roman&quot;&gt;Нотификация. Тип&lt;/font&gt;&lt;/p&gt;" style="rounded=1;whiteSpace=wrap;html=1;fillColor=#b1ddf0;strokeColor=#10739e;" vertex="1" parent="1">
          <mxGeometry x="1740" y="-3590" width="136" height="21" as="geometry" />
        </mxCell>
        <mxCell id="B4N4aQDUJcZZaR4VZE6Q-892" value="&lt;p style=&quot;margin: 0px 0px 0px 13px; text-indent: -13px; font-variant-numeric: normal; font-variant-east-asian: normal; font-variant-alternates: normal; font-kerning: auto; font-optical-sizing: auto; font-feature-settings: normal; font-variation-settings: normal; font-variant-position: normal; font-stretch: normal; font-size: 14px; line-height: normal; color: rgb(14, 14, 14); text-align: start;&quot; class=&quot;p1&quot;&gt;&lt;font face=&quot;Times New Roman&quot;&gt;Нотификация. ID&lt;/font&gt;&lt;span style=&quot;color: rgba(0, 0, 0, 0); font-family: monospace; font-size: 0px; text-wrap: nowrap; background-color: initial;&quot;&gt;%3CmxGraphModel%3E%3Croot%3E%3CmxCell%20id%3D%220%22%2F%3E%3CmxCell%20id%3D%221%22%20parent%3D%220%22%2F%3E%3CmxCell%20id%3D%222%22%20value%3D%22%26lt%3Bp%20style%3D%26quot%3Bmargin%3A%200px%200px%200px%2013px%3B%20text-indent%3A%20-13px%3B%20font-variant-numeric%3A%20normal%3B%20font-variant-east-asian%3A%20normal%3B%20font-variant-alternates%3A%20normal%3B%20font-kerning%3A%20auto%3B%20font-optical-sizing%3A%20auto%3B%20font-feature-settings%3A%20normal%3B%20font-variation-settings%3A%20normal%3B%20font-variant-position%3A%20normal%3B%20font-stretch%3A%20normal%3B%20line-height%3A%20normal%3B%20text-align%3A%20start%3B%26quot%3B%20class%3D%26quot%3Bp1%26quot%3B%26gt%3B%26lt%3Bspan%20style%3D%26quot%3Btext-align%3A%20center%3B%20text-indent%3A%200px%3B%26quot%3B%26gt%3B%26lt%3Bfont%20style%3D%26quot%3Bfont-size%3A%2014px%3B%26quot%3B%20face%3D%26quot%3BTimes%20New%20Roman%26quot%3B%26gt%3B%5B%D0%A2%D1%80%D0%B0%D0%BD%D0%B7%D0%B0%D0%BA%D1%86%D0%B8%D1%8F.ID%5D%26lt%3B%2Ffont%26gt%3B%26lt%3B%2Fspan%26gt%3B%26lt%3Bbr%26gt%3B%26lt%3B%2Fp%26gt%3B%22%20style%3D%22rounded%3D1%3BwhiteSpace%3Dwrap%3Bhtml%3D1%3BfillColor%3D%23B8B8B8%3BstrokeColor%3D%23FFD966%3B%22%20vertex%3D%221%22%20parent%3D%221%22%3E%3CmxGeometry%20x%3D%224896%22%20y%3D%22133.5%22%20width%3D%22104%22%20height%3D%2221%22%20as%3D%22geometry%22%2F%3E%3C%2FmxCell%3E%3CmxCell%20id%3D%223%22%20value%3D%22%26lt%3Bp%20style%3D%26quot%3Bmargin%3A%200px%200px%200px%2013px%3B%20text-indent%3A%20-13px%3B%20font-variant-numeric%3A%20normal%3B%20font-variant-east-asian%3A%20normal%3B%20font-variant-alternates%3A%20normal%3B%20font-kerning%3A%20auto%3B%20font-optical-sizing%3A%20auto%3B%20font-feature-settings%3A%20normal%3B%20font-variation-settings%3A%20normal%3B%20font-variant-position%3A%20normal%3B%20font-stretch%3A%20normal%3B%20line-height%3A%20normal%3B%20text-align%3A%20start%3B%26quot%3B%20class%3D%26quot%3Bp1%26quot%3B%26gt%3B%26lt%3Bspan%20style%3D%26quot%3Btext-align%3A%20center%3B%20text-indent%3A%200px%3B%26quot%3B%26gt%3B%26lt%3Bfont%20style%3D%26quot%3Bfont-size%3A%2014px%3B%26quot%3B%20face%3D%26quot%3BTimes%20New%20Roman%26quot%3B%26gt%3B%5B%D0%A2%D1%80%D0%B0%D0%BD%D0%B7%D0%B0%D0%BA%D1%86%D0%B8%D1%8F.%D0%A1%D1%82%D0%B0%D1%82%D1%83%D1%81%5D%26lt%3B%2Ffont%26gt%3B%26lt%3B%2Fspan%26gt%3B%26lt%3Bbr%26gt%3B%26lt%3B%2Fp%26gt%3B%22%20style%3D%22rounded%3D1%3BwhiteSpace%3Dwrap%3Bhtml%3D1%3BfillColor%3D%23B8B8B8%3BstrokeColor%3D%23FFD966%3B%22%20vertex%3D%221%22%20parent%3D%221%22%3E%3CmxGeometry%20x%3D%224896%22%20y%3D%22172.5%22%20width%3D%22125%22%20height%3D%2221%22%20as%3D%22geometry%22%2F%3E%3C%2FmxCell%3E%3C%2Froot%3E%3C%2FmxGraphModel%3E&lt;/span&gt;&lt;/p&gt;" style="rounded=1;whiteSpace=wrap;html=1;fillColor=#b1ddf0;strokeColor=#10739e;" vertex="1" parent="1">
          <mxGeometry x="1743" y="-3555" width="136" height="21" as="geometry" />
        </mxCell>
        <mxCell id="B4N4aQDUJcZZaR4VZE6Q-893" value="&lt;p style=&quot;margin: 0px 0px 0px 13px; text-indent: -13px; font-variant-numeric: normal; font-variant-east-asian: normal; font-variant-alternates: normal; font-kerning: auto; font-optical-sizing: auto; font-feature-settings: normal; font-variation-settings: normal; font-variant-position: normal; font-stretch: normal; font-size: 14px; line-height: normal; color: rgb(14, 14, 14); text-align: start;&quot; class=&quot;p1&quot;&gt;&lt;font face=&quot;Times New Roman&quot;&gt;Нотификация. Статус&lt;/font&gt;&lt;/p&gt;" style="rounded=1;whiteSpace=wrap;html=1;fillColor=#b1ddf0;strokeColor=#10739e;" vertex="1" parent="1">
          <mxGeometry x="1910" y="-2037.5" width="136" height="21" as="geometry" />
        </mxCell>
        <mxCell id="B4N4aQDUJcZZaR4VZE6Q-894" value="&lt;p style=&quot;margin: 0px 0px 0px 13px; text-indent: -13px; font-variant-numeric: normal; font-variant-east-asian: normal; font-variant-alternates: normal; font-kerning: auto; font-optical-sizing: auto; font-feature-settings: normal; font-variation-settings: normal; font-variant-position: normal; font-stretch: normal; font-size: 14px; line-height: normal; color: rgb(14, 14, 14); text-align: start;&quot; class=&quot;p1&quot;&gt;&lt;font face=&quot;Times New Roman&quot;&gt;Нотификация. ID&lt;/font&gt;&lt;span style=&quot;color: rgba(0, 0, 0, 0); font-family: monospace; font-size: 0px; text-wrap: nowrap; background-color: initial;&quot;&gt;%3CmxGraphModel%3E%3Croot%3E%3CmxCell%20id%3D%220%22%2F%3E%3CmxCell%20id%3D%221%22%20parent%3D%220%22%2F%3E%3CmxCell%20id%3D%222%22%20value%3D%22%26lt%3Bp%20style%3D%26quot%3Bmargin%3A%200px%200px%200px%2013px%3B%20text-indent%3A%20-13px%3B%20font-variant-numeric%3A%20normal%3B%20font-variant-east-asian%3A%20normal%3B%20font-variant-alternates%3A%20normal%3B%20font-kerning%3A%20auto%3B%20font-optical-sizing%3A%20auto%3B%20font-feature-settings%3A%20normal%3B%20font-variation-settings%3A%20normal%3B%20font-variant-position%3A%20normal%3B%20font-stretch%3A%20normal%3B%20line-height%3A%20normal%3B%20text-align%3A%20start%3B%26quot%3B%20class%3D%26quot%3Bp1%26quot%3B%26gt%3B%26lt%3Bspan%20style%3D%26quot%3Btext-align%3A%20center%3B%20text-indent%3A%200px%3B%26quot%3B%26gt%3B%26lt%3Bfont%20style%3D%26quot%3Bfont-size%3A%2014px%3B%26quot%3B%20face%3D%26quot%3BTimes%20New%20Roman%26quot%3B%26gt%3B%5B%D0%A2%D1%80%D0%B0%D0%BD%D0%B7%D0%B0%D0%BA%D1%86%D0%B8%D1%8F.ID%5D%26lt%3B%2Ffont%26gt%3B%26lt%3B%2Fspan%26gt%3B%26lt%3Bbr%26gt%3B%26lt%3B%2Fp%26gt%3B%22%20style%3D%22rounded%3D1%3BwhiteSpace%3Dwrap%3Bhtml%3D1%3BfillColor%3D%23B8B8B8%3BstrokeColor%3D%23FFD966%3B%22%20vertex%3D%221%22%20parent%3D%221%22%3E%3CmxGeometry%20x%3D%224896%22%20y%3D%22133.5%22%20width%3D%22104%22%20height%3D%2221%22%20as%3D%22geometry%22%2F%3E%3C%2FmxCell%3E%3CmxCell%20id%3D%223%22%20value%3D%22%26lt%3Bp%20style%3D%26quot%3Bmargin%3A%200px%200px%200px%2013px%3B%20text-indent%3A%20-13px%3B%20font-variant-numeric%3A%20normal%3B%20font-variant-east-asian%3A%20normal%3B%20font-variant-alternates%3A%20normal%3B%20font-kerning%3A%20auto%3B%20font-optical-sizing%3A%20auto%3B%20font-feature-settings%3A%20normal%3B%20font-variation-settings%3A%20normal%3B%20font-variant-position%3A%20normal%3B%20font-stretch%3A%20normal%3B%20line-height%3A%20normal%3B%20text-align%3A%20start%3B%26quot%3B%20class%3D%26quot%3Bp1%26quot%3B%26gt%3B%26lt%3Bspan%20style%3D%26quot%3Btext-align%3A%20center%3B%20text-indent%3A%200px%3B%26quot%3B%26gt%3B%26lt%3Bfont%20style%3D%26quot%3Bfont-size%3A%2014px%3B%26quot%3B%20face%3D%26quot%3BTimes%20New%20Roman%26quot%3B%26gt%3B%5B%D0%A2%D1%80%D0%B0%D0%BD%D0%B7%D0%B0%D0%BA%D1%86%D0%B8%D1%8F.%D0%A1%D1%82%D0%B0%D1%82%D1%83%D1%81%5D%26lt%3B%2Ffont%26gt%3B%26lt%3B%2Fspan%26gt%3B%26lt%3Bbr%26gt%3B%26lt%3B%2Fp%26gt%3B%22%20style%3D%22rounded%3D1%3BwhiteSpace%3Dwrap%3Bhtml%3D1%3BfillColor%3D%23B8B8B8%3BstrokeColor%3D%23FFD966%3B%22%20vertex%3D%221%22%20parent%3D%221%22%3E%3CmxGeometry%20x%3D%224896%22%20y%3D%22172.5%22%20width%3D%22125%22%20height%3D%2221%22%20as%3D%22geometry%22%2F%3E%3C%2FmxCell%3E%3C%2Froot%3E%3C%2FmxGraphModel%3E&lt;/span&gt;&lt;/p&gt;" style="rounded=1;whiteSpace=wrap;html=1;fillColor=#b1ddf0;strokeColor=#10739e;" vertex="1" parent="1">
          <mxGeometry x="1913" y="-2002.5" width="136" height="21" as="geometry" />
        </mxCell>
        <mxCell id="B4N4aQDUJcZZaR4VZE6Q-895" value="&lt;h1 style=&quot;margin-top: 0px;&quot;&gt;&lt;ul&gt;&lt;li style=&quot;&quot;&gt;&lt;span style=&quot;font-size: 23px;&quot;&gt;Портал электронной площадки&lt;/span&gt;&lt;br&gt;&lt;font style=&quot;font-size: 12px;&quot;&gt;Основной компонент который взаимодействует с остальными микросервисами&lt;/font&gt;&lt;/li&gt;&lt;li&gt;&lt;span style=&quot;font-size: 23px;&quot;&gt;Услуги&lt;/span&gt;&lt;br&gt;&lt;font style=&quot;font-size: 12px;&quot;&gt;Сервис для работы с услугами&lt;/font&gt;&lt;/li&gt;&lt;li&gt;&lt;span style=&quot;font-size: 23px;&quot;&gt;Товары&lt;/span&gt;&lt;br&gt;&lt;span style=&quot;font-size: 12px;&quot;&gt;Сервис для работы с товарами&lt;/span&gt;&lt;/li&gt;&lt;li&gt;&lt;span style=&quot;font-size: 23px; text-align: center;&quot;&gt;Профиль и авторизация&lt;/span&gt;&lt;br&gt;&lt;font style=&quot;font-size: 12px;&quot;&gt;Сервис для регистрации и авторизации&lt;/font&gt;&lt;/li&gt;&lt;li&gt;&lt;span style=&quot;font-size: 23px;&quot;&gt;Заказы&lt;/span&gt;&lt;br&gt;&lt;span style=&quot;font-size: 12px;&quot;&gt;Сервис для работы с заказами&lt;/span&gt;&lt;/li&gt;&lt;li&gt;&lt;span style=&quot;font-size: 23px;&quot;&gt;Аукцион&lt;/span&gt;&lt;br&gt;&lt;font style=&quot;font-size: 12px;&quot;&gt;Сервис для работы с аукционом&lt;/font&gt;&lt;/li&gt;&lt;li&gt;&lt;span style=&quot;font-size: 23px;&quot;&gt;Статистика и отчеты&lt;/span&gt;&lt;br&gt;&lt;span style=&quot;font-size: 12px;&quot;&gt;Сервис для получения статистики и отчетов&lt;/span&gt;&lt;/li&gt;&lt;li&gt;&lt;span style=&quot;font-size: 23px;&quot;&gt;Саппорт&lt;/span&gt;&lt;br&gt;&lt;font style=&quot;font-size: 12px;&quot;&gt;Сервис для получение технической поддержки&lt;/font&gt;&lt;/li&gt;&lt;li&gt;&lt;span style=&quot;font-size: 23px;&quot;&gt;Нотификаци&lt;/span&gt;&lt;br&gt;&lt;font style=&quot;font-size: 12px;&quot;&gt;Уведомление пользователей об изменениях&lt;/font&gt;&lt;/li&gt;&lt;li&gt;&lt;span style=&quot;font-size: 23px;&quot;&gt;Платеж&lt;/span&gt;&lt;br&gt;&lt;span style=&quot;font-size: 12px;&quot;&gt;Платежный модуль&lt;/span&gt;&lt;/li&gt;&lt;/ul&gt;&lt;/h1&gt;" style="text;html=1;whiteSpace=wrap;overflow=hidden;rounded=0;align=left;movable=1;resizable=1;rotatable=1;deletable=1;editable=1;locked=0;connectable=1;" vertex="1" parent="1">
          <mxGeometry x="-440" y="2526.5" width="860" height="743.5" as="geometry" />
        </mxCell>
        <mxCell id="B4N4aQDUJcZZaR4VZE6Q-898" value="&lt;font size=&quot;3&quot;&gt;GATEWAY&lt;/font&gt;" style="rounded=0;whiteSpace=wrap;html=1;rotation=-90;strokeColor=#FF6666;" vertex="1" parent="1">
          <mxGeometry x="-2565" y="173" width="3630" height="60" as="geometry" />
        </mxCell>
      </root>
    </mxGraphModel>
  </diagram>
</mxfile>
